<svg width="269" height="269" viewBox="0 0 269 269" fill="none" xmlns="http://www.w3.org/2000/svg">
<path fill-rule="evenodd" clip-rule="evenodd" d="M68.5009 103.283C71.1909 105.233 101.453 102.758 104.722 101.373C105.529 101.023 105.704 99.1401 105.811 98.1852C107.156 85.1656 104.466 32.8854 101.965 29.7516C100.418 27.8282 90.6396 32.0381 82.3275 43.0536C71.8769 56.9475 68.0705 74.8494 67.4249 92.3613C67.1646 95.8566 67.4047 99.3711 68.1378 102.799C68.1994 102.997 68.3277 103.168 68.5009 103.283ZM68.5951 92.4017C69.2003 75.1722 72.8856 57.3241 82.9866 43.5513C91.339 32.186 100.472 28.7563 101.588 30.1013C104.103 33.2082 106.322 95.8449 104.157 100.351C100.364 101.803 72.3207 103.74 69.1869 102.368C68.5317 99.0891 68.3325 95.7352 68.5951 92.4017ZM101.965 174.231C102.1 174.124 102.191 173.971 102.22 173.801C102.893 170.506 101.978 148.354 100.458 146.457C100.395 146.372 100.314 146.302 100.221 146.251C100.128 146.2 100.026 146.169 99.9201 146.161C96.4366 145.946 72.7511 148.098 69.2676 148.421C67.9226 148.542 69.0255 171.42 70.9488 175.698C71.0448 175.874 71.203 176.008 71.3927 176.074C73.6792 176.989 100.135 175.872 101.965 174.231ZM71.7962 174.971C70.2225 170.936 68.7296 153.317 69.4828 148.892C72.8722 148.676 96.1945 147.143 99.6108 147.264C100.808 150.788 101.655 170.035 101.063 173.451C101.063 173.357 101.063 173.263 101.171 173.33C101.736 174.057 79.651 175.684 72.926 175.24H72.0248C71.7962 175.24 71.8903 175.213 71.7962 174.971ZM103.874 191.582C103.726 191.098 103.498 190.533 102.987 190.506C99.4897 190.291 75.8177 192.429 72.3207 192.752C70.9757 192.873 72.0652 215.752 74.002 220.029C74.0453 220.119 74.1072 220.199 74.1837 220.264C74.2602 220.329 74.3495 220.377 74.4458 220.405C76.7189 221.306 103.175 220.217 105.018 218.576C105.146 218.463 105.235 218.312 105.273 218.146C105.959 214.756 105.071 195.63 103.874 191.582ZM104.224 217.662C104.762 218.374 82.8924 220.029 75.9791 219.571H75.199C74.9704 219.571 74.8897 219.491 74.7821 219.208C73.2353 214.931 71.7827 197.621 72.5359 193.25C76.0464 193.021 99.2342 191.501 102.664 191.636C103.861 195.16 104.695 214.407 104.09 217.809C104.13 217.702 104.17 217.608 104.224 217.662Z" fill="#14397F"/>
<path fill-rule="evenodd" clip-rule="evenodd" d="M259.289 220.997C259.101 219.894 257.446 218.912 256.384 218.307C253.855 216.962 249.982 215.375 247.144 214.164C247.668 213.236 250.103 208.986 250.036 208.058C250.036 207.332 249.202 206.632 248.691 206.162C241.965 200.782 210.694 187.87 207.278 185.812C208.287 180.822 209.134 175.415 209.833 169.968C211.784 169.309 213.976 168.327 216.074 167.547C219.114 167.036 225.261 164.991 227.009 164.561C229.524 163.786 231.925 162.683 234.151 161.279C239.639 158.02 244.47 153.764 248.395 148.73C249.847 146.968 253.775 145.691 251.999 140.97C251.085 138.508 248.812 136.154 247.843 134.245C247.157 132.9 246.391 131.38 245.53 129.86C245.887 129.581 246.154 129.201 246.295 128.77C246.436 128.339 246.446 127.876 246.323 127.439C245.839 126.013 234.218 112.751 228.838 112.146C227.38 112.327 225.97 112.783 224.682 113.491C224.117 111.931 223.552 110.546 223.257 109.954C221.427 106.403 219.531 102.825 217.473 99.3822C219.114 99.2746 222.463 99.0056 223.821 98.1179C224.79 97.4857 224.642 96.7729 224.225 95.2665C225.072 94.984 225.704 94.7016 226.054 94.5536C230.533 92.6841 231.865 85.1386 232.349 80.3773C232.779 76.1271 234.945 41.8431 235.039 41.5741C236.384 40.0946 238.294 35.804 239.275 34.1766C239.557 33.6148 239.722 33.0016 239.76 32.3743C239.784 32.1501 239.742 31.9237 239.639 31.723C239.537 31.5222 239.377 31.3559 239.181 31.2445C237.836 30.5989 236.639 31.5135 235.684 32.5895C235.975 31.6315 236.093 30.6297 236.034 29.6305C235.913 28.7159 235.294 27.9896 234.46 28.2855C234.021 28.4725 233.617 28.7316 233.263 29.0521C232.878 29.4099 232.547 29.8223 232.282 30.2761C232.282 29.4556 232.282 28.3931 231.596 28.0299C231.37 27.9464 231.127 27.9249 230.89 27.9674C230.653 28.01 230.433 28.1152 230.251 28.272C229.75 28.6955 229.299 29.1737 228.906 29.6977C227.735 31.0427 227.238 33.7327 226.848 34.7684C225.503 34.2304 223.095 33.3561 222.611 34.7684C221.858 37.0683 225.61 37.6467 225.422 38.8034C224.507 44.4255 220.042 53.1411 217.029 64.9905C215.16 72.3477 216.128 71.7155 215.2 69.846C214.541 68.501 201.481 67.0349 199.975 66.887C200.001 66.8301 200.015 66.7681 200.015 66.7054C200.015 66.6427 200.001 66.5807 199.975 66.5238C199.019 65.8083 197.86 65.4171 196.666 65.4075C195.422 65.4649 194.225 65.9014 193.236 66.6583C193.088 66.6583 180.62 67.815 174.204 70.3571C174.148 70.3754 174.097 70.4078 174.056 70.4512C173.518 70.4512 172.954 70.5857 172.402 70.6664L172.51 66.2952C174.635 65.273 176.733 63.9952 177.217 61.6684C177.636 59.4786 177.844 57.2536 177.836 55.0241C180.526 54.5264 181.871 52.0651 180.042 48.5815C179.875 47.8763 179.545 47.2202 179.078 46.6663C178.61 46.1125 178.019 45.6766 177.352 45.3939C177.906 44.7631 178.233 43.9651 178.282 43.1268C178.331 42.2884 178.098 41.4579 177.621 40.7671C178.034 40.0696 178.157 39.2377 177.964 38.4504C177.77 37.663 177.275 36.9832 176.585 36.5572C176.235 36.3584 175.852 36.2219 175.455 36.1537C175.361 36.1537 174.971 36.2479 174.729 36.2479C174.789 35.5596 174.624 34.8704 174.258 34.2842C174.015 33.849 173.67 33.4788 173.253 33.2049C172.837 32.931 172.36 32.7615 171.864 32.7105H171.38C171.368 32.5354 171.296 32.3695 171.178 32.2398C170.887 31.9241 170.552 31.6522 170.183 31.4328C169.446 31.0504 168.615 30.887 167.789 30.962C167.576 30.9867 167.377 31.0813 167.224 31.231C166.43 29.886 163.539 30.1819 162.22 31.0024C162.161 30.9158 162.093 30.8347 162.019 30.7603C161.583 30.5694 161.105 30.4975 160.632 30.5518C160.159 30.6062 159.71 30.7848 159.329 31.0696C159.025 31.3061 158.746 31.5719 158.495 31.8632C157.588 31.5867 156.61 31.67 155.764 32.0958C154.917 32.5216 154.267 33.2572 153.949 34.1497C153.667 34.0803 153.374 34.0745 153.09 34.1327C152.806 34.1908 152.539 34.3115 152.308 34.4859C151.909 34.7292 151.527 34.9988 151.165 35.2929C150.948 35.5081 150.779 35.7668 150.67 36.0521C150.561 36.3373 150.514 36.6425 150.532 36.9473C149.813 36.9057 149.097 37.0776 148.475 37.4413C147.853 37.805 147.352 38.3444 147.035 38.9917C146.946 39.1952 146.9 39.4151 146.901 39.6373C146.901 40.5653 147.022 40.1215 146.323 40.4039C143.707 34.2209 140.174 28.467 135.845 23.3359C123.202 8.71573 109.577 9.92623 108.326 9.56308C102.5 7.94059 96.3779 7.68741 90.4378 8.82333C87.9427 8.1718 85.4091 7.67766 82.852 7.34383C55.8713 3.75268 34.849 14.7951 22.3405 42.4752C8.07001 73.9751 8.79631 118.279 10.76 140.795C11.0156 143.727 18.83 223.754 19.4891 226.74C19.5698 227.13 19.7043 227.399 20.5382 227.695C24.8556 229.215 45.1248 228.543 49.8054 228.395C50.6662 240.5 50.5989 240.015 50.6931 240.15C53.9214 240.975 57.2339 241.426 60.5654 241.495C61.1437 241.414 115.092 231.851 139.086 227.507C139.665 229.471 143.996 244.064 145.435 245.503C145.582 245.643 145.771 245.733 145.973 245.759C147.786 245.744 149.592 245.518 151.353 245.086C151.824 246.633 152.281 248.301 152.698 249.955C152.281 250.278 153.276 250.197 146.376 254.636C144.825 255.562 143.345 256.605 141.951 257.756C141.266 258.531 140.765 259.45 140.485 260.446C140.391 260.778 140.428 261.133 140.588 261.438C140.748 261.744 141.02 261.976 141.346 262.087C144.48 263.136 166.04 255.631 168.152 253.492C168.932 252.685 168.73 250.802 168.569 249.578C168.104 246.72 167.494 243.887 166.74 241.091C167.816 240.769 172.604 239.329 173.465 238.59C174.675 237.514 173.007 230.52 172.617 228.879C169.726 217.204 162.745 199.047 161.857 194.003C162.637 192.308 169.927 179.289 171.178 177.19C171.178 177.056 171.084 163.66 171.178 161.535C171.178 160.647 171.313 157.217 171.326 156.451C171.318 156.415 171.317 156.378 171.325 156.342C171.333 156.306 171.349 156.273 171.371 156.244C171.394 156.215 171.423 156.192 171.456 156.176C171.489 156.16 171.525 156.152 171.561 156.152C171.598 156.152 171.634 156.16 171.667 156.176C171.7 156.192 171.729 156.215 171.752 156.244C171.774 156.273 171.79 156.306 171.798 156.342C171.806 156.378 171.805 156.415 171.797 156.451C172.445 162.859 172.549 169.312 172.106 175.738C172.106 182.987 171.904 203.821 176.316 209.578C180.728 215.335 231.676 236.088 233.842 234.999C234.756 234.541 238.119 229.242 238.805 228.166C241.723 228.995 244.582 230.024 247.359 231.246C247.345 231.308 247.345 231.372 247.359 231.434C248.058 233.169 246.834 242.194 247.171 244.521C247.411 245.54 247.87 246.494 248.516 247.319C248.726 247.591 249.034 247.772 249.374 247.825C249.714 247.877 250.062 247.797 250.345 247.601C252.954 245.745 259.746 223.943 259.289 220.997ZM118.575 214.514C116.907 210.398 116.612 194.07 117.15 189.901C118.239 189.739 124.184 188.878 130.398 188.031C130.949 195.55 133.384 206.229 135.226 213.586C131.447 214.03 123.39 214.931 119.786 214.85H118.965C118.71 214.85 118.723 214.877 118.575 214.514ZM115.589 146.605C120.028 145.973 138.643 143.296 143.121 143.001C142.906 143.834 142.731 144.655 142.583 145.408C142.328 145.944 142.107 146.497 141.924 147.062C141.669 148.515 143.269 148.407 144.816 148.327C144.816 148.744 144.937 149.174 144.991 149.672C140.978 156.3 137.385 163.173 134.231 170.25C130.384 170.721 121.938 171.595 118.172 171.595H117.203C115.805 171.501 114.876 152.348 115.589 146.605ZM149.214 119.867C149.077 118.128 148.839 116.399 148.501 114.688C148.501 114.554 147.035 107.654 146.995 107.519C146.861 106.928 146.148 104.332 145.758 104.399C145.368 104.466 145.758 107.089 145.852 107.883C146.121 109.322 146.538 111.016 146.834 112.213C145.058 113.128 136.854 120.028 132.267 121.628C131.117 122.203 129.92 122.68 128.69 123.054C128.542 123.054 128.179 122.005 128.125 121.857C127.576 119.605 126.871 117.393 126.013 115.24C124.87 112.308 119.705 101.548 120.472 99.5301C121.548 98.6828 125.717 96.3021 126.914 95.6162C137.876 89.3619 137.271 90.2362 138.01 89.214C138.574 88.0829 139.198 86.9829 139.88 85.9187C143.471 82.2872 147.869 77.9563 152.94 76.1137C151.017 79.6779 146 88.7567 145.731 89.2678C145.69 89.3428 145.671 89.4272 145.673 89.5123C145.676 89.5975 145.701 89.6804 145.746 89.7527C145.791 89.825 145.855 89.8841 145.93 89.9242C146.005 89.9642 146.089 89.9837 146.175 89.9806C146.672 89.9806 149.887 89.6444 150.479 89.5771C147.009 93.2355 145.771 94.2308 146.027 95.0244C148.455 100.71 151.198 106.255 154.245 111.635C155.697 117.217 160.593 124.951 159.235 130.317C158.212 134.573 156.761 138.714 154.904 142.678C154.433 143.619 154.231 145.986 153.666 146.619C151.788 146.944 149.883 147.088 147.977 147.049C146.982 147.049 144.076 147.318 143.135 147.183C143.256 146.793 143.659 146.107 143.74 145.691C145.381 137.621 147.13 137.499 149.806 129.551C150.546 127.251 149.295 122.301 149.295 119.893L149.214 119.867ZM72.1055 124.103C71.8634 123.996 71.8499 124.103 72.1055 123.969C74.1768 123.269 77.3375 121.79 78.9381 123.269C79.8123 124.076 77.2703 126.094 76.6247 127.573C75.5988 125.898 73.9889 124.662 72.1055 124.103ZM69.7652 124.251C70.0928 124.369 70.4471 124.392 70.7874 124.318C71.1758 124.352 71.5593 124.428 71.9306 124.547C80.7404 128.488 74.2575 137.486 67.6939 135.872C63.7799 134.931 61.3589 130.263 63.4706 127.089C64.2145 126.145 65.175 125.394 66.2707 124.9C67.3665 124.406 68.5651 124.184 69.7652 124.251ZM79.355 122.772C77.1627 120.835 73.2084 123.189 71.0295 123.767C70.5856 123.681 70.1361 123.627 69.6845 123.606C68.7564 122.92 68.5681 121.669 70.1283 120.795C72.5278 119.556 75.0411 118.551 77.6334 117.795C80.1276 117.29 82.7147 117.514 85.0847 118.441C85.1377 118.464 85.1949 118.476 85.2528 118.476C85.3107 118.476 85.368 118.464 85.421 118.441C106.268 108.152 113.384 104.668 119.705 101.897C120.862 106.981 125.246 115.025 126.349 119.221C113.02 122.099 83.1345 124.372 82.3006 126.08C81.4667 127.789 79.6106 129.698 77.7948 128.932C75.4276 127.923 81.3322 124.574 79.355 122.772ZM121.359 97.7278C120.3 97.786 119.237 97.7046 118.199 97.4857C118.199 90.7607 111.595 33.0468 114.352 30.2357C115.105 29.4825 117.378 30.155 118.387 30.5451C121.776 31.8901 126.659 35.3467 131.608 42.0717C138.01 50.7873 142.368 61.9912 145.058 72.4956C145.539 74.7421 145.889 77.0145 146.107 79.3013C143.708 81.1267 141.459 83.1417 139.382 85.3269C138.454 86.2415 137.741 88.7836 136.827 89.2274C133.532 90.8952 124.964 95.4951 121.359 97.7278ZM154.393 63.2151C154.547 63.5541 154.798 63.8404 155.113 64.0388C155.429 64.2372 155.795 64.3389 156.168 64.3315L157.271 74.002L154.393 75.0108C154.255 70.9473 153.806 66.9003 153.048 62.9058C153.45 63.1528 153.923 63.2615 154.393 63.2151ZM184.951 68.232C181.629 73.3026 177.432 83.417 177.419 84.372C177.419 85.717 181.05 84.8965 184.05 84.9503C182.624 88.259 177.029 98.9652 175.2 102.435C175.2 96.3694 175.052 95.3472 175.065 93.0203C175.065 88.1245 175.751 86.7526 176.074 81.1171C176.404 77.7146 175.968 74.2814 174.796 71.0699C178.054 69.7194 181.464 68.7709 184.951 68.2454V68.232ZM159.719 132.792C165.726 132.669 171.702 131.889 177.54 130.465C177.848 132.459 178.01 134.473 178.024 136.491C171.369 135.866 164.656 136.347 158.159 137.916C158.71 136.289 159.235 134.567 159.719 132.819V132.792ZM160.499 127.103C160.169 124.7 159.517 122.352 158.562 120.122C163.7 119.759 169.968 119.046 175.159 118.293C175.442 120.445 175.805 122.583 176.249 124.735C171.042 125.797 165.786 126.596 160.499 127.13V127.103ZM152.227 88.8643C152.228 88.7876 152.212 88.7117 152.181 88.6416C152.15 88.5715 152.104 88.5089 152.047 88.458C151.989 88.407 151.922 88.3689 151.848 88.3462C151.775 88.3235 151.698 88.3167 151.622 88.3263C151.622 88.3263 148.488 88.7836 146.955 88.945C147.883 87.0889 152.94 77.2031 153.68 75.8447C155.025 75.347 154.5 75.5353 157.392 74.6207C155.635 80.6534 154.278 86.7955 153.33 93.0069C152.576 97.7351 152.531 102.549 153.196 107.291C151.851 104.601 148.125 97.5799 147.156 94.8361C148.475 93.0069 152.241 89.7923 152.227 88.8912V88.8643ZM151.165 88.7298V88.8777C151.165 88.8777 151.111 88.7701 151.165 88.7701V88.7298ZM154.5 107.56C160.324 107.062 167.762 106.08 174.07 104.95C174.097 105.021 174.138 105.085 174.191 105.139C174.191 107.425 174.339 109.685 174.514 111.944C169.497 112.577 161.185 113.532 155.966 113.868C155.653 113.058 155.384 112.232 155.159 111.393C155.334 110.963 155.011 110.855 154.5 107.6V107.56ZM173.922 98.8845C161.817 100.969 156.518 101.844 153.989 102.126C153.882 99.5846 153.981 97.0387 154.285 94.5133C164.453 93.5987 162.355 93.8946 173.895 92.2537C173.882 92.4554 173.895 96.477 173.922 98.8711V98.8845ZM204.857 142.503C205.18 142.194 204.991 141.763 204.857 141.158C207.735 147.17 208.892 153.841 210.102 154.272C210.585 154.378 211.086 154.378 211.569 154.272C212.389 156.531 215.213 164.104 215.604 166.377C211.999 167.722 207.466 169.941 205.247 169.47C203.351 166.067 200.687 148.071 200.069 144.009C200.188 144.011 200.304 143.978 200.405 143.915C202.476 142.947 202.759 144.628 204.884 142.489L204.857 142.503ZM250.358 140.458C252.726 145.112 249.013 145.946 247.386 147.99C243.552 152.911 238.836 157.075 233.479 160.27C231.348 161.623 229.051 162.695 226.646 163.458C225.166 163.835 219.988 165.543 216.827 166.296C215.681 162.157 214.293 158.088 212.671 154.11C215.519 153.229 218.261 152.038 220.849 150.559C221.035 151.235 221.321 151.878 221.696 152.469C221.804 152.63 221.943 152.767 222.105 152.874C222.266 152.98 222.447 153.054 222.637 153.09C222.827 153.126 223.023 153.125 223.212 153.085C223.401 153.045 223.581 152.969 223.741 152.859C224.505 152.328 225.208 151.715 225.839 151.03C226.471 150.304 226.444 150.048 225.288 147.748C229.188 145.058 232.793 141.898 236.411 138.804C236.825 139.647 237.412 140.394 238.132 140.996C238.421 141.171 238.761 141.24 239.095 141.191C239.429 141.141 239.735 140.978 239.961 140.727C240.581 140.036 241.123 139.279 241.575 138.468C242.006 137.634 241.912 137.338 240.338 135.469C241.888 134.028 243.323 132.467 244.629 130.801C245.382 132.146 246.081 133.491 246.7 134.836C247.547 136.423 249.336 138.374 250.385 140.445L250.358 140.458ZM224.938 149.873C225.032 150.129 225.126 150.021 224.83 150.331C224.354 150.813 223.846 151.262 223.31 151.676C222.329 152.348 222.853 151.676 219.612 145.919C220.576 145.514 221.589 145.234 222.624 145.085C223.028 145.744 224.615 148.865 224.965 149.86L224.938 149.873ZM240.567 137.768C240.192 138.459 239.765 139.12 239.289 139.746C238.603 140.499 238.563 139.88 236.357 137.19C234.689 135.132 234.837 135.509 235.012 135.321C235.628 134.62 236.339 134.009 237.124 133.505C237.594 133.989 240.109 136.935 240.594 137.755L240.567 137.768ZM228.65 113.276C233.519 113.841 244.79 126.887 245.14 127.802C245.489 128.717 244.387 129.147 243.889 129.846C242.584 131.521 241.149 133.091 239.598 134.54C238.988 133.829 238.312 133.176 237.581 132.59C236.976 132.267 236.343 132.9 235.819 133.478C235.315 134.059 234.865 134.685 234.474 135.347C234.474 135.536 234.339 135.347 235.819 137.768C232.268 140.822 228.65 143.982 224.817 146.699C224.383 145.884 223.884 145.106 223.324 144.372C222.826 143.929 221.831 144.372 220.97 144.709C220.355 144.99 219.757 145.309 219.181 145.664C218.966 145.865 219.033 145.664 220.526 149.497C218.764 150.519 212.335 153.814 210.573 153.37C209.511 151.756 207.52 143.7 204.575 139.019C204.158 136.692 203.512 133.195 202.799 129.308C210.479 122.072 226.296 112.98 228.65 113.276ZM218.643 116.773C215.953 118.441 212.954 120.391 210.237 122.368C206.565 108.811 207.103 109.483 202.073 98.5483C204.333 99.0072 206.627 99.2771 208.932 99.3553C212.736 104.822 215.98 110.657 218.616 116.773H218.643ZM226.404 39.0051C226.767 36.8666 223.176 36.3958 223.593 35.1046C223.848 34.997 224.373 34.9701 226.458 35.7906C226.834 35.9385 227.171 36.0865 227.466 35.7906C228.045 35.2257 228.556 31.7556 229.713 30.4106C230.047 29.9002 230.46 29.4462 230.937 29.0656C230.985 30.6056 230.753 32.1416 230.251 33.5982C230.047 33.9853 229.893 34.3965 229.793 34.8222C229.78 34.9098 229.785 34.9994 229.809 35.0847C229.834 35.17 229.876 35.2492 229.933 35.3168C229.991 35.3844 230.062 35.4389 230.142 35.4765C230.222 35.5142 230.31 35.5341 230.399 35.535C230.842 35.535 230.977 35.1584 231.111 34.7684C231.246 34.3783 231.259 34.3245 231.34 34.0421C231.983 32.5389 232.844 31.1385 233.895 29.886C234.03 29.7784 234.581 29.079 234.662 29.3615H234.514C234.77 29.496 234.743 30.2492 234.716 30.5316C234.457 32.188 234.006 33.8085 233.371 35.3602C233.318 35.4908 233.31 35.6357 233.351 35.771C233.391 35.9062 233.476 36.0236 233.593 36.1037C233.709 36.1837 233.849 36.2217 233.99 36.2112C234.13 36.2008 234.263 36.1425 234.366 36.0461C235.146 35.266 237.124 31.8363 238.401 32.2801C238.39 32.7188 238.284 33.15 238.092 33.5444C237.177 35.0643 235.025 39.7314 233.909 40.8478C233.786 41.0223 233.711 41.2266 233.694 41.4396C233.694 41.8431 232.349 63.0941 231.999 67.4384C231.38 74.7552 232.322 91.0163 225.691 93.9215C225.355 94.0829 224.763 94.3519 223.956 94.6478C222.45 89.335 217.998 77.1628 216.02 72.1325C218.509 58.1176 225.274 45.5822 226.404 39.0051ZM214.299 70.3302C215.227 72.4149 222.92 93.6121 223.283 96.9477C223.189 97.1764 222.369 97.4588 222.113 97.5261C217.204 98.9652 201.831 98.1717 201.239 96.9074C201.182 96.7965 201.092 96.7058 200.982 96.6479C200.871 96.59 200.746 96.5676 200.622 96.5838C200.498 96.6 200.383 96.654 200.291 96.7384C200.199 96.8228 200.136 96.9335 200.109 97.0553C200.083 97.1869 200.089 97.3228 200.126 97.4515C200.164 97.5803 200.232 97.6982 200.324 97.7951C206.041 110.129 205.247 109.012 209.107 123.135C206.82 124.831 204.633 126.659 202.557 128.609C199.867 113.962 195.832 92.5496 195.63 90.949C194.998 84.224 194.85 72.7915 199.181 67.5729C202.261 67.9092 211.582 69.1466 214.353 70.3302H214.299ZM199.302 66.739C194.231 71.3658 194.191 84.224 194.729 91.0566C194.985 94.2577 203.418 139.571 203.781 141.844C202.907 142.651 202.651 142.449 202.059 142.395C201.447 142.332 200.829 142.434 200.27 142.691C197.876 137.459 188.851 89.752 189.753 81.8434C190.264 77.3914 191.555 70.9623 193.626 66.9811C194.434 66.3415 195.423 65.9737 196.452 65.9302C197.481 65.8867 198.497 66.1698 199.356 66.739H199.302ZM192.765 67.3308C190.778 71.9213 189.477 76.7796 188.905 81.7492C187.87 89.8192 194.5 124.789 197.164 136.06C192.91 137.551 188.792 139.405 184.857 141.602C183.27 142.557 180.647 145.422 179.167 145.758C178.737 145.274 179.046 142.624 179.046 142.207C179.046 139.14 179.114 136.329 178.898 133.491C178.334 126.309 175.576 122.597 175.025 105.098C175.24 104.856 183.808 88.528 185.139 85.0848C185.287 84.813 185.321 84.4939 185.233 84.1971C185.032 83.7936 184.534 83.8071 184.05 83.8071C182.705 83.8071 179.49 84.1702 178.428 84.0492C180.282 78.6066 182.628 73.3439 185.435 68.3261C193.68 67.2501 191.555 67.425 192.819 67.3308H192.765ZM173.935 71.0699C175.132 75.616 175.67 76.9341 174.366 86.7123C171.824 87.331 169.282 87.9497 166.471 88.3935C164.265 88.7567 156.585 89.8192 154.984 89.7385C156.208 81.6685 156.329 82.3141 157.755 75.7236C159.194 80.0007 162.019 85.2866 166.524 85.8246C171.03 86.3626 173.357 83.296 173.909 78.9113C174.124 77.1359 172.927 72.9529 172.416 71.2582L173.935 71.0699ZM176.195 61.4532C175.765 63.3631 173.814 64.4525 172.039 65.2595C171.689 65.4209 171.393 65.5689 171.38 65.9455C171.237 67.6946 171.187 69.4501 171.232 71.2044C171.703 72.6974 172.98 77.23 172.779 78.7902C172.321 82.4352 170.385 85.0848 166.713 84.641C162.449 84.1299 159.571 78.037 158.508 73.881C158.508 73.3699 157.352 64.1163 157.338 63.9952C157.62 63.8108 157.828 63.5335 157.926 63.2116C158.024 62.8897 158.007 62.5435 157.876 62.2333C157.756 61.9925 157.662 61.7402 157.594 61.4801C157.594 61.09 157.298 59.7316 157.163 59.1667C157.029 58.6018 156.894 58.5883 156.706 58.5076C154.016 57.4316 152.59 55.2527 153.801 52.3879C153.965 52.1039 154.204 51.8705 154.492 51.7132C154.78 51.5559 155.105 51.4808 155.433 51.496C155.761 51.5113 156.078 51.6164 156.35 51.7998C156.622 51.9831 156.838 52.2378 156.975 52.5358C157.216 53.2567 157.58 53.9302 158.051 54.5264C158.71 55.2124 159.396 54.8089 159.678 54.0153C159.961 53.2218 159.557 52.4955 159.921 49.8996C160.109 48.5546 160.391 47.3845 160.633 46.1067C160.728 45.6629 160.311 43.874 160.526 43.7261C161.548 43.0267 162.288 43.8606 163.323 44.5331C164.87 45.5418 166.578 46.4699 168.367 45.8781C170.351 45.4409 172.181 44.4794 173.666 43.0939C174.21 43.795 174.818 44.4435 175.482 45.0307C175.697 45.1787 175.67 45.1249 175.697 45.219C173.169 45.7032 172.685 47.64 173.182 50.1552C172.402 50.3166 171.38 50.8546 170.788 51.016C170.441 50.0703 169.823 49.2472 169.013 48.6488C168.325 48.0294 167.473 47.6214 166.56 47.4735C165.646 47.3256 164.709 47.4441 163.861 47.8149C161.871 48.5143 159.826 51.8499 161.171 55.3603C161.364 55.9551 161.677 56.5038 162.091 56.9721C162.505 57.4405 163.011 57.8183 163.578 58.0822C164.145 58.346 164.76 58.4901 165.385 58.5054C166.01 58.5208 166.631 58.4071 167.21 58.1714C168.001 57.9425 168.737 57.5565 169.375 57.0365C170.013 56.5165 170.539 55.8732 170.923 55.1451C171.286 54.1422 171.323 53.0503 171.03 52.0247C171.259 52.0247 171.635 52.0247 171.972 51.9306C172.197 52.8541 172.508 53.7547 172.9 54.6206C172.98 54.8089 173.492 56.0463 173.371 56.1808C173.137 56.4257 172.875 56.6424 172.59 56.8264C172.416 56.9205 172.241 56.934 172.241 57.1357C172.241 57.6737 173.586 57.2164 174.016 56.9071C174.447 56.5977 174.581 55.8042 174.366 55.0913C173.988 53.889 173.405 52.7606 172.644 51.7557L173.411 51.3522C173.962 52.9931 175.186 54.8627 176.894 55.1048C176.858 57.238 176.624 59.3632 176.195 61.4532ZM170.035 54.7282C168.945 56.9205 165.018 58.4807 163.068 56.517C162.704 56.1281 162.42 55.671 162.234 55.172C161.947 54.482 161.817 53.7371 161.852 52.9907C161.887 52.2444 162.086 51.5149 162.436 50.8546C162.765 50.0187 163.386 49.3305 164.184 48.9178C164.894 48.5378 165.698 48.3688 166.502 48.4307C167.305 48.4927 168.073 48.783 168.717 49.2675C169.408 49.9601 169.894 50.831 170.119 51.7833C170.345 52.7356 170.302 53.7318 169.995 54.6609L170.035 54.7282ZM179.571 48.8371C180.486 51.2312 180.176 53.437 177.688 53.9346C175.2 54.4323 172.819 47.7342 175.173 46.6851C177.258 45.5956 178.455 46.6582 179.531 48.7698L179.571 48.8371ZM174.514 36.1941C174.514 36.1941 174.621 36.1941 174.648 36.3017C174.675 36.4093 174.46 36.1941 174.473 36.1268L174.514 36.1941ZM162.53 31.3252C162.53 31.3252 162.395 31.3252 162.315 31.231C162.476 31.11 162.637 31.0965 162.489 31.2579L162.53 31.3252ZM20.4306 226.579C19.7177 223.579 12.0378 142.449 11.8764 140.687C9.97991 118.36 9.28051 74.2441 23.4434 43.0401C35.2256 16.9471 54.5263 5.98538 79.624 8.20463C81.6281 8.37948 83.5111 8.63503 85.3403 8.95783C43.5377 10.0069 28.3795 51.2312 24.5059 93.1414C23.0632 109.725 23.0632 126.403 24.5059 142.987C25.0574 149.309 32.5759 224.158 33.1543 227.722C31.4461 227.682 21.937 227.588 20.4306 226.579ZM33.6385 227.709C32.1993 217.715 26.2006 152.389 25.4205 142.974C22.865 112.63 24.627 72.6301 37.0817 45.1787C45.9452 25.6224 60.6326 11.0964 84.5736 10.2087C44.0891 22.4213 41.4126 84.5334 42.7845 126.699C42.9862 132.308 47.6937 199.329 49.6978 227.574C43.6722 227.668 38.198 227.749 33.625 227.709H33.6385ZM60.2695 241.091C59.4894 230.6 53.262 134.971 53.0603 128.031C51.5942 80.1083 55.9655 15.2659 103.767 11.0157C123.875 9.21338 137.19 22.5827 145.26 41.1706C144.371 42.3177 143.952 43.7607 144.09 45.2056C144.2 45.544 144.4 45.8462 144.668 46.0798C144.286 46.4948 144.013 46.9988 143.875 47.5459C143.872 48.1994 144.034 48.843 144.347 49.4168C144.66 49.9906 145.113 50.476 145.664 50.8277C145.569 51.0025 145.502 51.137 145.475 51.2043C144.789 53.5849 145.475 54.513 146.82 55.2393C146.606 56.0517 146.679 56.9131 147.027 57.6778C147.375 58.4425 147.977 59.0635 148.73 59.4357C149.079 59.5249 149.434 59.5834 149.793 59.6105C149.753 59.9501 149.753 60.2932 149.793 60.6327C149.981 61.4128 150.734 61.6549 151.528 61.7356C152.455 66.268 152.995 70.8711 153.142 75.495C150.985 76.2346 148.949 77.2908 147.103 78.6288C146.875 76.5138 146.534 74.4126 146.08 72.3342C143.229 61.5742 138.885 50.5049 132.214 41.6951C124.345 31.2983 115.831 28.1241 113.948 30.0071C110.667 33.2889 117.163 93.3566 117.015 97.7009C117.015 98.7366 118.642 98.8442 119.705 98.898C119.404 99.4475 119.304 100.085 119.423 100.7C107.963 105.731 85.2596 117.513 85.1251 117.593C82.6334 116.69 79.9335 116.526 77.351 117.123C74.7295 117.932 72.1933 118.995 69.7786 120.297C68.1646 121.252 68.0436 122.597 68.8909 123.592C64.3045 123.592 60.6595 126.847 61.7624 131.393C62.0728 132.626 62.6781 133.764 63.5262 134.711C64.3744 135.657 65.4398 136.384 66.6309 136.827C67.822 137.27 69.1031 137.417 70.3637 137.256C71.6243 137.094 72.8267 136.628 73.8674 135.899C74.9523 135.239 75.8387 134.298 76.4329 133.176C77.0272 132.054 77.3072 130.792 77.2434 129.524C79.4492 130.761 81.8567 128.744 83.0403 126.538C84.9099 125.717 103.35 123.848 113.531 122.503C118.521 121.83 123.175 121.158 126.632 120.378C126.85 121.661 127.336 122.885 128.057 123.969C128.905 124.83 131.649 123.135 132.778 122.745C137.311 121.212 144.883 114.971 147.156 113.545C147.62 115.638 147.948 117.758 148.138 119.893C148.138 122.18 149.349 127.264 148.744 129.093C146.713 135.173 144.709 137.486 143.498 141.898C138.696 142.22 120.055 145.381 115.414 146.188C115.363 146.194 115.315 146.217 115.278 146.254C115.242 146.29 115.218 146.338 115.213 146.39C114.486 150.721 114.392 168.381 116.356 172.133C116.625 172.658 117.701 172.644 118.602 172.644C121.615 172.644 127.936 172.16 133.841 171.474C132.229 175.129 131.094 178.976 130.465 182.92C130.347 184.366 130.347 185.819 130.465 187.264C123.579 188.367 117.015 189.497 117.015 189.497C116.968 189.509 116.925 189.535 116.891 189.57C116.858 189.606 116.836 189.651 116.827 189.699C116.1 194.043 115.993 211.69 117.957 215.456C118.058 215.627 118.222 215.753 118.414 215.805C120.337 216.451 133.626 214.998 135.657 214.77C136.706 218.899 137.836 222.988 138.925 226.767C114.567 231.206 61.9911 240.755 60.2695 241.091ZM165.933 241.374C166.282 243.069 166.672 244.884 166.982 246.592L153.397 249.767C152.967 248.139 152.456 246.512 151.931 244.992C156.195 244.091 161.669 242.652 165.933 241.374ZM238.98 227.736C241.481 223.795 244.534 218.791 246.821 214.743C248.731 215.644 251.017 216.666 253.062 217.675L247.48 230.479C244.712 229.374 241.872 228.457 238.98 227.736Z" fill="#14397F"/>
<path fill-rule="evenodd" clip-rule="evenodd" d="M167.21 52.7511C167.242 52.6278 167.24 52.4981 167.204 52.376C167.168 52.2538 167.099 52.1439 167.005 52.0581C166.911 51.9723 166.795 51.9138 166.67 51.8889C166.545 51.8641 166.416 51.8739 166.296 51.9172C165.637 52.1727 165.933 52.9125 165.906 53.6388C165.902 53.7293 165.917 53.8197 165.949 53.9044C165.981 53.9891 166.03 54.0665 166.093 54.1318C166.156 54.1971 166.231 54.2491 166.315 54.2845C166.398 54.32 166.488 54.3382 166.578 54.3382C166.751 54.3351 166.916 54.2669 167.041 54.1472C167.166 54.0275 167.241 53.8651 167.251 53.6926C167.251 53.4236 167.224 53.047 167.21 52.7511ZM176.303 49.8728C176.291 49.7845 176.262 49.6993 176.218 49.6221C176.174 49.5449 176.114 49.4772 176.044 49.4228C175.973 49.3685 175.893 49.3286 175.807 49.3054C175.721 49.2822 175.631 49.2762 175.543 49.2877C175.454 49.2992 175.369 49.3279 175.292 49.3723C175.215 49.4167 175.147 49.4759 175.093 49.5465C175.038 49.6171 174.999 49.6976 174.975 49.7836C174.952 49.8696 174.946 49.9593 174.958 50.0476C175.006 50.4027 175.083 50.7535 175.186 51.0967C175.206 51.1897 175.245 51.2774 175.301 51.3541C175.357 51.4307 175.429 51.4947 175.512 51.5416C175.594 51.5885 175.686 51.6174 175.781 51.6264C175.875 51.6353 175.971 51.6241 176.061 51.5935C176.151 51.5628 176.233 51.5135 176.303 51.4487C176.372 51.3839 176.427 51.3051 176.464 51.2175C176.501 51.1299 176.519 51.0355 176.516 50.9405C176.514 50.8455 176.492 50.752 176.451 50.6663C176.385 50.4051 176.336 50.1401 176.303 49.8728ZM171.582 60.7404C171.447 60.7404 170.237 60.2696 170.116 60.4445C169.995 60.6193 170.237 61.6281 171.218 61.8971C172.2 62.1661 172.98 61.5474 172.94 61.3187C172.9 61.0901 172.913 61.1304 171.582 60.7404ZM209.685 27.4516C210.842 25.2862 215.577 22.4617 216.975 22.2868C217.04 22.2868 217.101 22.2613 217.147 22.2159C217.192 22.1705 217.217 22.1089 217.217 22.0447C217.217 21.9805 217.192 21.9189 217.147 21.8735C217.101 21.8281 217.04 21.8026 216.975 21.8026C214.622 21.4126 209.901 23.9277 209.215 27.2902C209.193 27.3526 209.198 27.421 209.227 27.4803C209.256 27.5396 209.307 27.5849 209.369 27.6063C209.432 27.6277 209.5 27.6234 209.559 27.5944C209.619 27.5654 209.664 27.514 209.685 27.4516ZM216.989 29.3077C216.176 29.5529 215.429 29.9775 214.803 30.5502C214.177 31.1229 213.687 31.829 213.371 32.6164C212.73 34.1465 212.57 35.8354 212.913 37.4584C212.926 37.5113 212.956 37.5583 212.999 37.5919C213.042 37.6256 213.095 37.6439 213.149 37.6439C213.203 37.6439 213.256 37.6256 213.299 37.5919C213.341 37.5583 213.371 37.5113 213.384 37.4584C213.519 36.5707 213.788 35.5216 213.842 35.2795C214.076 33.6604 214.788 32.1479 215.886 30.9352C217.11 29.5902 217.5 29.7247 217.325 29.3884C217.289 29.3353 217.235 29.2975 217.173 29.2826C217.11 29.2676 217.045 29.2766 216.989 29.3077Z" fill="#14397F"/>
</svg>
