<svg width="306" height="306" viewBox="0 0 306 306" fill="none" xmlns="http://www.w3.org/2000/svg">
<path fill-rule="evenodd" clip-rule="evenodd" d="M87.914 71.2678V72.3541C87.914 72.6585 88.0349 72.9503 88.25 73.1655C88.4652 73.3807 88.7571 73.5016 89.0615 73.5016C89.3658 73.5016 89.6577 73.3807 89.8729 73.1655C90.0881 72.9503 90.209 72.6585 90.209 72.3541V71.2066C90.1933 70.9049 90.0622 70.6207 89.843 70.4129C89.6237 70.205 89.333 70.0893 89.0309 70.0897C88.8795 70.0916 88.7301 70.1239 88.5915 70.1845C88.4528 70.2452 88.3277 70.333 88.2236 70.4429C88.1195 70.5527 88.0384 70.6823 87.9852 70.824C87.932 70.9657 87.9078 71.1166 87.914 71.2678ZM87.4703 68.0701C89.1533 67.6723 90.5303 66.5401 88.0823 66.6931C87.4759 66.7777 86.8773 66.9107 86.2922 67.0909C83.9972 68.0395 85.9862 68.422 87.4703 68.0701ZM227.848 78.7189C227.143 80.1982 225.963 81.3992 224.497 82.1308C224.44 82.1511 224.392 82.1905 224.361 82.2423C224.33 82.2941 224.318 82.3551 224.327 82.4148C224.336 82.4745 224.366 82.5292 224.411 82.5695C224.456 82.6098 224.513 82.6332 224.574 82.6357C225.069 82.7229 225.578 82.6868 226.056 82.5304C226.534 82.3741 226.966 82.1023 227.314 81.7393C227.661 81.3763 227.914 80.9331 228.05 80.449C228.186 79.9649 228.201 79.4548 228.093 78.9637C228.093 78.8988 228.067 78.8365 228.021 78.7906C227.975 78.7447 227.913 78.7189 227.848 78.7189ZM221.758 66.586C221.464 66.5107 221.152 66.5534 220.889 66.7049C220.626 66.8564 220.433 67.1048 220.351 67.3969C220.212 67.895 220.186 68.4176 220.274 68.9269C220.274 69.2313 220.395 69.5231 220.61 69.7383C220.826 69.9535 221.117 70.0744 221.422 70.0744C221.726 70.0744 222.018 69.9535 222.233 69.7383C222.448 69.5231 222.569 69.2313 222.569 68.9269C222.569 67.8253 222.814 66.8767 221.758 66.586ZM169.142 216.909C167.902 216.281 144.203 217.827 143.606 220.489C143.484 221.07 143.866 223.304 144.539 223.671C145.87 224.375 168.667 223.09 169.922 220.611C170.279 220.008 170.396 219.294 170.252 218.608C170.107 217.923 169.711 217.316 169.142 216.909ZM144.83 223.029C144.358 222.287 144.104 221.429 144.096 220.55C144.402 219.173 157.024 218.423 158.416 218.331C158.383 219.568 158.701 220.788 159.334 221.85C157.59 222.126 145.656 223.472 144.83 223.074V223.029ZM168.805 219.969C167.596 220.825 161.461 221.606 159.992 221.789C160.121 220.578 159.864 219.357 159.258 218.301C161.079 218.178 166.908 217.857 168.637 218.01C169.096 218.347 169.111 219.387 168.805 219.999V219.969ZM128.933 220.535C128.892 220.509 128.844 220.495 128.796 220.495C128.747 220.495 128.699 220.509 128.658 220.535C128.658 220.382 99.4349 236.844 98.5475 238.589C98.5079 238.672 98.4874 238.764 98.4874 238.856C98.4874 238.949 98.5079 239.04 98.5475 239.124C99.4808 241.802 129.974 269.372 131.244 270C131.611 270.183 132.07 269.862 133.508 269.097C136.568 267.46 162.685 253.506 165.378 251.257C166.128 250.492 166.587 243.607 166.173 242.827C165.76 242.046 128.933 220.688 128.933 220.535ZM131.58 268.73C128.321 266.144 102.51 242.888 99.6491 238.941C102.311 236.431 128.061 221.514 128.841 221.055C132.789 223.457 161.201 240.746 164.842 243.194C162.918 243.75 161.087 244.591 159.411 245.688C158.539 246.529 160.711 248.09 163.725 251.012C159.12 253.98 136.277 266.22 131.58 268.73ZM164.598 250.14C164.445 249.987 160.757 246.392 160.589 246.254C162.075 245.326 163.607 244.473 165.179 243.699C165.184 245.861 164.979 248.018 164.567 250.14H164.598Z" fill="#14397F"/>
<path fill-rule="evenodd" clip-rule="evenodd" d="M151.883 247.325C150.812 247.784 137.746 252.114 134.058 253.613C132.975 254.153 131.794 254.471 130.585 254.547C130.371 254.547 131.61 252.16 140.989 244.846C141.969 244.081 143.85 242.628 144.049 241.434C144.952 237.487 134.257 243.393 124.695 247.126C123.706 247.657 122.627 248 121.512 248.136C121.405 247.509 123.563 245.535 123.7 245.382C129.407 239.078 136.644 236.477 136.155 234.152C135.405 230.51 122.124 237.594 119.325 238.742C116.968 239.736 113.205 240.93 113.434 240.93C112.929 241.128 113.434 241.48 113.526 241.434C113.618 241.389 118.468 239.904 119.646 239.384C121.405 238.711 133.171 233.035 135.129 234.366C135.91 234.917 127.587 239.4 122.889 244.586C122.063 245.474 119.829 247.279 120.518 248.748C120.644 248.975 120.836 249.159 121.067 249.276C121.299 249.393 121.561 249.438 121.818 249.406C124.098 249.406 139.643 241.618 142.841 241.373C142.107 242.342 141.23 243.193 140.24 243.898C137.96 245.703 131.35 251.089 129.82 253.567C129.025 254.853 129.683 255.618 130.723 255.633C132.1 255.633 133.783 254.7 137.929 253.139C151.99 247.723 152.434 247.968 152.204 247.463C152.192 247.432 152.175 247.405 152.152 247.381C152.129 247.358 152.102 247.339 152.072 247.326C152.043 247.313 152.01 247.307 151.978 247.307C151.945 247.306 151.913 247.313 151.883 247.325Z" fill="#14397F"/>
<path fill-rule="evenodd" clip-rule="evenodd" d="M298.35 188.986C298.151 172.982 296.713 140.317 293.546 124.481C291.878 116.081 288.267 104.591 281.551 99.0372C278.705 96.6963 274.513 94.4472 266.909 90.2397C267 90.0408 254.898 85.1448 254.332 86.7666C253.862 83.9761 253.202 81.2208 252.358 78.5199C253.49 78.1527 252.986 74.8479 253.46 72.9813C253.934 71.1147 255.724 69.7836 256.642 68.2536C258.708 64.8417 259.06 58.89 258.677 54.9273C258.31 51.24 252.924 43.0086 249.375 41.6622C245.825 40.3158 242.184 40.3617 238.435 39.612C235.375 38.9847 233.111 37.2864 229.684 36.858C226.256 36.4296 224.206 38.388 221.269 38.388C218.331 38.388 215.026 36.1083 211.951 35.9247C210.28 35.8987 208.657 36.48 207.382 37.5605C206.107 38.641 205.268 40.1474 205.02 41.7999C204.649 44.2629 204.941 46.7804 205.866 49.0931C206.791 51.4058 208.316 53.4302 210.283 54.9579C212.679 56.4733 215.37 57.4592 218.178 57.8496C217.994 65.6679 218.821 63.5718 217.903 64.2603C216.985 64.9488 217.275 69.7683 217.597 71.0994C217.734 71.6349 217.872 71.8338 218.53 72.048C218.163 73.578 215.577 76.8828 217.903 77.6937C218.209 77.8008 219.433 78.015 219.555 78.0609C219.869 79.5118 220.33 80.9268 220.932 82.2837C221.526 83.6478 222.392 84.8757 223.479 85.8916C224.566 86.9074 225.85 87.6894 227.251 88.1895C229.454 89.0463 231.198 89.2758 232.484 89.7195C232.661 90.3522 232.753 91.0056 232.759 91.6626C227.295 93.0987 222.148 95.5427 217.581 98.8689C209.304 105.586 197.538 133.447 194.463 136.507C193.27 137.685 165.164 143.132 161.017 145.947C160.206 146.498 160.176 146.972 160.283 147.951C159.273 148.135 155.02 148.93 154.545 149.833C154.405 150.489 154.442 151.17 154.652 151.807C150.867 151.1 147.047 150.589 143.208 150.277C142.506 150.293 141.814 150.457 141.179 150.757C140.544 151.058 139.979 151.488 139.521 152.021C138.236 153.551 139.276 153.291 137.914 153.077C135.023 152.664 124.664 156.137 123.364 156.749C123.364 156.198 123.364 155.815 122.783 155.509C121.075 155.015 119.291 154.838 117.519 154.989C116.448 155.708 120.579 155.464 122.293 156.351C122.293 157.529 122.446 169.616 122.293 171.988C122.293 172.416 122.293 172.355 121.972 172.401C120.442 172.615 118.238 172.401 117.565 172.89C117.81 167.566 117.565 154.53 116.831 153.765C116.387 153.306 108.217 152.327 99.3277 151.256C99.3592 144.825 99.0016 138.397 98.2567 132.009C96.6196 117.81 93.1924 101.072 82.4824 92.5806C83.103 92.834 83.786 92.8927 84.4408 92.7489C85.3152 92.4019 86.2563 92.2555 87.1948 92.3205C88.7248 92.7336 88.9237 93.8505 92.7487 91.2801C92.9935 91.1118 93.6361 91.1577 94.141 90.6528C95.8699 88.9239 94.9978 86.583 94.9978 84.8388C95.2511 83.653 95.3336 82.4371 95.2426 81.228C95.1957 81.0477 95.1077 80.8807 94.9857 80.7401C94.8636 80.5994 94.7106 80.4889 94.5388 80.4171C94.5388 79.9122 95.0743 79.0095 94.3093 78.0303C95.4109 77.4489 96.6043 76.7757 95.9923 75.5823C94.8232 73.7124 93.8588 71.7222 93.1159 69.6459C92.6416 67.8711 93.2842 65.6067 93.2536 63.6942C93.2536 62.3784 93.3913 60.8025 93.2536 59.3643C94.4337 58.5403 95.3354 57.3771 95.8393 56.0289C95.9509 55.4839 95.927 54.9198 95.7696 54.3863C95.6122 53.8527 95.3261 53.366 94.9366 52.9689C94.4317 52.6476 94.3246 52.9689 94.3399 52.0203C94.3952 51.6874 94.3802 51.3466 94.2959 51.0198C94.2116 50.6931 94.0598 50.3876 93.8503 50.1231C93.2077 49.4958 91.7389 48.8073 91.2799 48.1647C90.4996 47.0172 90.0406 45.8697 88.5718 45.4107C87.5314 45.0741 86.5522 45.732 85.8484 45.5025C84.8845 45.1965 83.89 44.1561 82.7884 45.2577C82.5424 45.391 82.2725 45.4745 81.9942 45.5034C81.716 45.5323 81.4347 45.506 81.1666 45.426C80.2486 44.6457 80.0191 43.2993 78.4585 43.0086C77.5711 42.8556 75.8269 43.284 75.1537 43.0086C74.0508 42.1968 72.8341 41.5523 71.5429 41.0961C70.0994 40.9586 68.6429 41.083 67.2436 41.4633C66.2644 41.6622 65.0098 41.5551 63.9847 41.7081C61.858 42.0447 61.246 43.8807 59.8384 44.7681C58.4308 45.6555 56.0593 45.6708 54.7129 47.6598C53.5807 49.3428 53.8255 51.1635 53.3818 52.8465C53.1982 53.5656 52.219 54.3765 51.8518 55.1109C50.995 56.8092 51.6529 58.5228 51.6376 59.9916C51.6223 61.4604 50.5972 62.8068 50.8879 64.5816C51.1241 65.4679 51.5123 66.3066 52.0354 67.0602C52.0417 67.3082 52.0108 67.5557 51.9436 67.7946C51.4768 68.9986 51.3809 70.3147 51.6682 71.5737C51.9186 72.7806 52.5015 73.8936 53.3512 74.7867C54.4222 75.72 54.973 75.4752 55.7533 76.8063C56.0814 77.5101 56.5749 78.1243 57.1915 78.5964C58.3237 79.3614 59.716 78.7035 60.3892 79.0401C60.808 79.2612 61.2648 79.4014 61.7356 79.4532C61.3589 79.6435 61.0336 79.9216 60.787 80.2641C52.4638 81.3198 41.4784 87.3939 34.777 95.7018C32.1301 99.1137 27.6778 104.04 26.0101 107.988C17.0443 128.245 21.4201 160.008 17.8093 169.815L8.87408 193.117C8.44568 194.234 7.34408 199.788 7.74188 201.7C8.38448 204.546 11.368 200.981 13.1887 198.961C12.0565 202.985 12.0718 204.041 11.4751 219.877C11.2915 224.834 11.1232 230.235 11.0467 234.779C11.0423 234.811 11.045 234.845 11.0545 234.876C11.0641 234.908 11.0803 234.937 11.102 234.961C11.1238 234.986 11.1506 235.006 11.1807 235.019C11.2107 235.032 11.2433 235.039 11.2762 235.039C11.7046 235.039 11.4292 235.528 12.0565 222.891C12.5002 214.001 13.0051 205.709 13.051 205.036C13.2775 202.42 13.8538 199.847 14.7646 197.386C19.0374 194.193 23.8455 191.789 28.963 190.286C34.6584 188.763 40.6727 188.917 46.2826 190.73C47.8126 191.235 51.9283 192.26 53.3971 191.572C56.4571 190.042 64.3366 184.977 65.6371 181.902C66.2797 180.372 66.7999 179.133 67.3048 177.985C69.6457 178.199 72.5221 178.796 75.0772 178.827C77.9383 178.827 79.7743 178.368 82.9414 175.568C94.5847 175.828 107.421 175.476 113.541 175.246C117.626 176.776 130.172 181.259 133.217 184.273C134.411 185.436 135.114 188.68 135.543 192.291C136.107 196.607 136.255 200.967 135.986 205.311C127.602 206.917 116.923 209.457 108.661 211.507C108.198 211.379 107.715 211.342 107.238 211.4C105.05 211.63 106.075 212.517 105.356 210.299C105.39 210.307 105.426 210.306 105.46 210.297C105.495 210.288 105.526 210.27 105.552 210.246C105.577 210.222 105.597 210.192 105.608 210.158C105.619 210.125 105.622 210.089 105.616 210.054C105.593 207.113 105.25 204.184 104.591 201.318C104.484 200.889 103.734 200.675 103.275 200.537C98.3179 199.099 79.1776 197.171 74.9701 198.258C72.2314 198.977 53.2747 208.769 52.4179 210.85C51.5611 212.93 49.2355 225.446 48.8071 227.756C38.8927 230.648 31.0744 233.035 27.2494 234.335C27.2177 234.345 27.1884 234.362 27.1633 234.384C27.1383 234.406 27.118 234.433 27.1037 234.463C27.0893 234.493 27.0813 234.526 27.08 234.559C27.0788 234.592 27.0843 234.625 27.0964 234.656C27.28 235.222 32.2984 232.621 83.7064 219.112C84.223 220.431 84.885 221.688 85.6801 222.86C84.1501 223.227 82.4212 223.9 81.9163 225.308C81.8265 225.605 81.8117 225.92 81.8731 226.224C81.9345 226.529 82.0702 226.813 82.2682 227.052C83.5234 228.458 85.1967 229.423 87.0418 229.806C90.2769 230.617 93.6385 230.794 96.9409 230.326C100.112 230.05 103.236 229.382 106.243 228.337C109.517 226.96 109.303 224.91 108.049 223.977C106.756 223.217 105.335 222.698 103.856 222.447C105.249 219.922 103.948 221.039 106.029 220.534C107.207 220.254 108.282 219.649 109.135 218.79C110.481 217.413 111.384 214.017 110.099 212.38C116.555 210.85 142.52 204.424 148.869 204.898C160.39 205.739 244.157 240.18 263.986 246.82C264.017 246.83 264.05 246.834 264.083 246.831C264.115 246.828 264.147 246.819 264.176 246.804C264.206 246.79 264.231 246.769 264.253 246.744C264.274 246.719 264.29 246.69 264.3 246.659C264.31 246.628 264.314 246.595 264.311 246.563C264.309 246.53 264.299 246.498 264.285 246.469C264.27 246.44 264.249 246.414 264.224 246.393C264.199 246.372 264.17 246.356 264.139 246.346C258.953 244.54 247.386 239.935 233.539 234.396C234.212 232.774 235.987 227.542 237.364 225.736C237.93 225.002 237.9 224.941 242.949 225.232C256.183 225.997 267.842 225.645 280.541 221.59C288.298 219.096 292.108 213.343 294.311 205.648C294.755 205.785 295.963 206.183 296.392 206.275C296.514 206.304 296.641 206.305 296.764 206.275C296.886 206.246 297 206.188 297.095 206.107C298.61 204.561 298.35 192 298.35 188.986ZM89.0767 83.7831C88.6626 83.9339 88.2156 83.9709 87.7823 83.8902C87.349 83.8094 86.9454 83.6139 86.6134 83.3241C86.2831 83.0597 86.0246 82.7167 85.8615 82.3263C85.6984 81.936 85.636 81.511 85.6801 81.0903C85.6598 81.0274 85.6653 80.959 85.6954 80.9002C85.7256 80.8413 85.7778 80.7969 85.8407 80.7766C85.9036 80.7563 85.972 80.7618 86.0308 80.792C86.0896 80.8221 86.1341 80.8744 86.1544 80.9373C86.9098 82.0238 87.9766 82.8559 89.2144 83.3241C89.2538 83.3567 89.2827 83.4001 89.2975 83.4491C89.3123 83.498 89.3124 83.5502 89.2977 83.5992C89.283 83.6482 89.2542 83.6918 89.2149 83.7245C89.1756 83.7572 89.1275 83.7775 89.0767 83.7831ZM74.71 70.3803C74.7622 69.9308 74.9428 69.5058 75.2302 69.1563C75.5668 68.8197 76.5919 69.0339 77.311 68.5443C77.8488 68.1192 78.2569 67.5521 78.4891 66.9072C79.3459 65.2089 80.7076 66.5247 82.6048 63.7248C83.089 62.9374 83.4647 62.0882 83.7217 61.2003C84.7927 60.6954 86.185 61.4298 87.5314 59.2113C87.9751 58.4616 88.2658 57.6813 89.0614 57.4671C89.6581 58.1097 90.2548 60.5271 92.6722 59.5938C92.6722 60.42 92.4886 64.5969 92.4427 64.9335C92.2444 65.9418 92.1368 66.9659 92.1214 67.9935C92.1214 71.0535 93.529 72.7365 95.0896 75.9342C95.3344 76.4391 94.0492 76.9287 93.4066 77.2806C92.5 76.9466 91.5619 76.7057 90.6067 76.5615C87.6385 75.8424 85.267 77.3877 82.7119 78.0915C82.2788 78.0942 81.847 78.0428 81.4267 77.9385C80.4628 77.8467 79.453 78.8259 78.0913 79.0095C77.7363 79.0792 77.3685 79.0406 77.0356 78.8987C76.7028 78.7568 76.4203 78.5182 76.2247 78.2139C76.0597 77.6535 75.942 77.0803 75.8728 76.5003C75.7351 75.9495 75.5668 75.3987 75.4444 74.8632C75.1996 73.7616 75.9187 73.3332 75.0772 71.8032C74.4958 70.7628 74.5111 71.2218 74.71 70.3803ZM75.2914 101.592C76.3216 99.6372 77.1618 97.5878 77.8006 95.4723C78.6574 100.797 79.1164 103.489 79.3306 104.836C78.2137 103.903 78.1066 103.551 75.2914 101.531V101.592ZM79.8814 107.819C80.6311 112.409 80.4628 111.369 80.6005 112.318C80.235 111.629 79.7881 110.987 79.2694 110.405C79.4406 109.394 79.5175 108.37 79.4989 107.345L79.8814 107.819ZM74.3428 110.573C73.4291 109.623 72.595 108.6 71.8489 107.513C72.6054 105.744 73.4584 104.018 74.404 102.342C77.617 104.805 77.3722 104.775 78.1678 105.769C78.2846 107.072 78.2846 108.383 78.1678 109.686L74.3428 110.573ZM74.5417 111.568C76.3624 115.622 77.0968 122.278 77.4793 126.715C75.5693 121.126 73.0013 115.785 69.8293 110.803C70.4496 109.955 71.0021 109.06 71.4817 108.125C72.1119 109.299 72.8658 110.402 73.7308 111.415C73.8413 111.484 73.9658 111.529 74.0954 111.545C74.225 111.56 74.3565 111.547 74.4805 111.507L74.5417 111.568ZM65.4535 78.8259C65.578 78.8645 65.7062 78.8902 65.836 78.9024C66.1922 78.8863 66.5338 78.7555 66.8095 78.5294C67.0853 78.3032 67.2805 77.994 67.366 77.6478C67.6108 77.4948 67.7944 77.3265 67.7791 77.0358C67.7638 76.7451 64.4743 72.2469 68.6665 69.9366C69.0362 69.8965 69.4078 69.9924 69.7119 70.2064C70.016 70.4204 70.2318 70.7378 70.3189 71.0994C70.5168 71.9155 70.9349 72.6617 71.5276 73.2567C71.5739 74.2346 71.7019 75.207 71.9101 76.1637C72.0325 76.7298 71.6041 77.4642 71.5123 78.2445C71.2981 79.7745 72.7822 81.4575 73.3177 82.8345C74.0368 84.6858 73.5472 86.6748 75.2608 88.3119C76.9744 89.949 76.6531 88.6026 77.2498 92.2746C76.536 95.1603 75.5524 97.9726 74.3122 100.674C72.5833 98.2263 63.8317 83.9361 62.0722 80.6772C62.7301 80.2794 64.7803 79.1166 65.3923 78.7647L65.4535 78.8259ZM60.8635 80.8608C61.9804 83.4618 73.1035 101.087 73.1035 101.24C72.568 102.939 69.4927 109.977 68.0392 110.742C64.8415 108.462 56.0746 84.4869 55.4473 82.3143C57.1734 81.5748 58.9893 81.0655 60.8482 80.7996L60.8635 80.8608ZM76.6531 148.41C74.9701 147.875 69.5386 129.438 64.6885 119.233C61.7815 113.113 56.0746 103 49.8475 100.307C43.1155 97.4154 30.6001 104.346 29.269 113.343C28.4562 119.276 28.9364 125.315 30.6766 131.045C37.8982 152.878 47.6749 170.289 68.5594 175.277C69.049 174.298 67.3201 175.109 81.0595 175.476C80.3861 176 79.6695 176.465 78.9175 176.868C76.3471 178.261 71.4664 177.144 67.8556 176.746L68.3146 175.751C46.8028 170.947 36.7354 152.801 29.5291 131.381C27.7091 125.479 27.1872 119.252 27.9991 113.128C29.3761 103.398 42.3352 96.4209 49.5109 98.8383C51.3405 99.5199 53.0155 100.56 54.4375 101.898C53.7551 95.7674 53.5862 89.5902 53.9326 83.4312C54.2137 83.1814 54.5157 82.9562 54.8353 82.758C56.1511 87.348 63.6481 109.288 67.4578 111.721C67.6994 111.864 67.9823 111.92 68.2602 111.881C68.5382 111.842 68.7947 111.71 68.9878 111.507C72.4303 117.428 75.6433 123.487 76.9285 129.867C77.6555 133.388 77.8413 136.999 77.4793 140.577C75.3067 131.58 69.2938 118.575 62.4547 112.348C69.4468 124.42 74.5417 143.728 76.8214 147.538C77.7333 147.79 78.6648 147.964 79.606 148.058C79.2082 138.878 78.9022 119.738 75.016 111.43C75.4903 111.43 78.841 110.711 78.841 110.711C79.4453 111.437 79.959 112.233 80.371 113.083C80.9983 114.291 80.7841 113.373 81.7327 119.799C86.3227 149.466 86.0626 149.313 86.6593 149.634C83.6605 149.252 78.382 148.93 76.6531 148.41ZM86.8123 142.29C80.8453 108.416 80.7841 107.467 78.2749 93.3303C78.4738 92.6571 78.6268 92.1063 78.7339 91.7085C79.6825 92.9172 84.8539 99.5421 85.42 100.996C84.5785 101.745 81.5491 103.03 82.4671 104.056C82.8802 104.53 86.2921 107.483 87.3631 108.554C87.9445 111.017 87.0265 138.006 86.8123 142.29ZM49.4191 227.557C49.8475 225.614 52.6474 212.976 53.4277 211.201C53.9938 209.886 72.4456 200.094 75.3526 199.359C79.5448 198.258 102.372 200.522 103.964 201.547C104.682 204.216 105.103 206.956 105.218 209.717C102.648 206.657 82.7578 207.468 82.5436 211.783C82.5394 211.924 82.5691 212.065 82.6303 212.193C82.6915 212.321 82.7825 212.432 82.8955 212.517C82.8854 214.367 83.096 216.211 83.5228 218.01C71.7724 221.177 60.022 224.482 49.4191 227.557ZM107.758 225.17C108.538 227.695 99.3736 228.781 96.7267 229.087C93.5837 229.535 90.384 229.374 87.3019 228.613C85.9555 228.246 83.4616 227.266 82.9873 226.042C82.7578 225.461 83.5075 224.91 84.0583 224.62C84.7561 224.255 85.496 223.978 86.2615 223.793C87.095 224.942 88.2127 225.854 89.5051 226.44C91.0351 227.113 97.5682 226.639 99.8326 226.15C100.827 225.935 101.883 225.645 103.382 223.243C104.3 223.38 107.498 224.329 107.758 225.17ZM100.445 224.635C99.2971 225.323 91.1881 225.874 89.9488 225.369C85.8484 223.732 83.6146 217.337 83.4463 212.823C86.7796 213.557 90.2007 213.809 93.6055 213.573C96.1606 213.236 102.204 212.196 104.423 211.079C105.754 216.097 102.938 223.181 100.445 224.635ZM108.997 216.74C108.583 217.559 108.001 218.282 107.29 218.862C106.578 219.442 105.752 219.866 104.866 220.106C105.667 217.96 106.046 215.679 105.983 213.389C106.104 213.136 106.279 212.913 106.497 212.736C106.714 212.559 106.968 212.432 107.24 212.365C107.512 212.298 107.796 212.292 108.07 212.347C108.345 212.402 108.604 212.518 108.829 212.686C109.976 213.435 109.472 215.44 108.997 216.74ZM266.587 90.6834C276.93 96.3903 281.52 98.7771 284.825 103.78C282.746 101.993 280.1 101 277.358 100.98C267.551 100.644 262.732 115.163 260.222 124.558C256.061 140.225 258.616 160.054 258.386 162.961C255.74 165.424 242.184 172.462 236.125 175.751C236.966 172.202 239.965 158.508 241.924 153.107C244.555 145.855 252.129 128.964 252.634 125.292C252.771 124.206 252.557 124.068 249.344 121.987C250.583 121.987 253.934 121.651 254.975 121.452C255.418 121.452 255.648 121.253 255.816 120.319C256.382 117.076 257.484 90.3468 257.576 87.501C257.468 87.4398 265.271 89.9337 266.633 90.6834H266.587ZM254.791 87.0267C255.488 86.9764 256.188 87.0542 256.856 87.2562C256.091 98.3487 255.326 117.856 254.607 120.35C253.796 120.503 250.92 120.702 249.803 120.778C247.416 120.916 247.355 120.778 247.11 121.115C246.866 121.452 247.202 121.911 247.646 122.217C248.426 122.767 251.027 124.405 251.394 124.833C251.041 126.655 250.498 128.434 249.773 130.142C241.128 153.092 241.648 146.039 235.834 171.207C236.223 159.151 237.337 147.129 239.17 135.206C240.394 128.643 241.878 122.477 246.82 108.431C248.763 103 252.787 92.5959 252.94 92.6571C253.707 90.8285 254.341 88.9468 254.837 87.0267H254.791ZM228.215 180.923C228.506 182.055 228.506 181.902 228.414 181.917L227.939 181.825C227.939 181.672 227.113 166.311 227.511 159.962C228.23 148.716 229.148 136.522 230.005 124.772C230.418 119.08 231.979 106.855 231.933 107.314L233.463 106.182C234.098 107.449 234.818 108.671 235.62 109.839C235.926 110.252 236.339 110.772 236.829 110.818C236.492 113.587 231.397 147.752 229.898 169.585C229.072 181.474 229.898 178.949 228.689 180.035C228.546 180.132 228.43 180.265 228.355 180.421C228.28 180.577 228.247 180.75 228.261 180.923H228.215ZM237.303 110.833C238.466 110.833 239.72 108.385 241.25 107.345C241.847 107.972 243.653 110.971 244.846 111.369C239.782 125.261 234.365 144.631 234.381 176.608C233.08 177.312 231.321 178.322 230.02 179.071C230.785 166.051 236.324 123.318 237.349 110.833H237.303ZM253.368 90.2703C252.878 91.8003 245.611 109.349 245.106 110.16C244.317 109.387 243.614 108.53 243.01 107.605C241.725 105.876 241.281 105.31 239.093 107.773C242.337 101.653 248.671 95.4417 251.333 92.3511C253.873 89.4441 253.536 89.6889 253.368 90.2703ZM219.096 58.1403C220.238 58.4918 221.458 58.4918 222.6 58.1403C223.473 57.7521 224.437 57.6144 225.384 57.7425C226.721 58.3588 228.096 58.8903 229.5 59.3337C231.237 59.3184 232.97 59.1803 234.687 58.9206C235.474 59.2882 236.14 59.8715 236.608 60.6027C237.077 61.334 237.328 62.1831 237.334 63.0516C234.482 63.4656 231.73 64.3935 229.209 65.7903C229.055 65.2879 228.748 64.8459 228.331 64.5253C227.915 64.2047 227.409 64.0212 226.884 64.0002C224.375 63.6983 221.841 63.6675 219.326 63.9084C219.102 61.9533 219.026 59.9843 219.096 58.0179V58.1403ZM218.499 71.1912C218.117 70.518 217.367 65.3007 218.132 64.7346C218.255 64.8876 217.719 64.4133 220.626 64.4439C222.675 64.5085 224.718 64.6924 226.746 64.9947C228.123 65.2395 228.353 65.8668 228.276 67.1979C228.276 69.6612 228.353 69.4164 228.276 70.1814C228.276 70.3956 228.184 70.9617 228.016 71.0841C224.869 71.6536 221.645 71.6484 218.499 71.0688V71.1912ZM232.56 88.4343C228.368 87.2409 224.528 87.0879 221.942 81.7635C220.274 78.3363 221.192 77.3418 219.677 76.8981C219.116 76.8311 218.562 76.7081 218.025 76.5309C218.025 75.5058 219.31 73.3638 219.555 72.2775C222.096 72.5812 224.664 72.5812 227.205 72.2775C228.735 72.048 229.546 71.7879 229.301 68.682V66.3105C231.703 65.5761 236.798 64.3674 237.41 64.1991C237.414 65.0314 237.527 65.8596 237.747 66.6624C237.986 67.1672 238.399 67.569 238.91 67.7946C238.991 67.8309 239.08 67.8479 239.17 67.8442C239.259 67.8405 239.346 67.8162 239.425 67.7733C239.503 67.7304 239.571 67.6699 239.622 67.5967C239.673 67.5234 239.707 67.4393 239.72 67.3509C240.072 65.928 240.348 64.6581 240.455 64.0461C240.455 64.3827 240.593 62.9751 241.602 62.4243C243.132 61.6287 245.504 63.4035 245.672 65.9127C245.764 67.1367 244.54 69.3552 243.622 71.9103C243.071 73.4403 246.407 74.0982 247.569 74.6643C247.998 75.6588 247.738 76.7757 248.319 77.3724C249.192 77.9102 250.149 78.2981 251.15 78.5199C252.205 81.9017 252.973 85.3668 253.445 88.878C249.558 92.9631 248.686 93.9423 247.646 94.998C243.581 98.8601 240.134 103.324 237.425 108.232C236.339 101.852 234.274 96.222 234.044 94.3707C233.861 92.9325 234.167 90.3927 233.493 89.031C233.391 88.8689 233.255 88.7314 233.093 88.6283C232.932 88.5251 232.75 88.4589 232.56 88.4343ZM233.004 93.621C233.738 96.3444 235.697 105.188 236.263 108.737C235.329 107.33 234.182 105.004 234.182 105.004C234.142 104.921 234.084 104.848 234.012 104.791C233.94 104.733 233.857 104.693 233.767 104.672C233.677 104.652 233.584 104.651 233.494 104.672C233.405 104.692 233.321 104.733 233.249 104.79L232.132 105.647C232.56 101.669 232.988 97.6143 233.05 93.621H233.004ZM232.56 92.2593C232.422 103.52 230.173 113.557 229.255 124.772C226.195 162.471 226.195 160.62 226.501 173.961C224.849 161.905 222.539 138.45 221.269 125.736C222.171 125.047 226.532 121.727 227.021 120.717C227.251 120.228 227.021 119.723 225.92 119.723C224.005 119.867 222.082 119.867 220.167 119.723C221.33 114.98 227.985 97.6755 229.76 93.0855C230.663 92.8254 231.413 92.5653 232.56 92.2593ZM161.43 147.094C163.802 144.601 193.56 138.787 195.182 137.211C197.462 134.916 203.735 120.671 210.13 109.87C215.562 100.69 218.515 97.293 229.087 93.3915C226.547 99.6798 221.59 111.981 219.356 119.141C219.218 119.585 219.02 120.075 219.356 120.365C220.198 121.192 223.717 120.702 225.736 120.733C224.313 122.155 220.397 125.047 220.397 125.047C220.321 125.103 220.262 125.177 220.224 125.263C220.186 125.349 220.172 125.444 220.182 125.537C220.825 132.636 224.772 175.002 226.486 181.152L223.732 180.448C221.952 179.574 220.019 179.055 218.04 178.918C221.529 161.568 220.274 156.718 220.703 147.263C220.703 146.284 216.572 126.608 216.541 126.455C216.541 126.39 216.515 126.328 216.469 126.282C216.423 126.236 216.361 126.21 216.296 126.21C216.231 126.21 216.169 126.236 216.123 126.282C216.077 126.328 216.051 126.39 216.051 126.455C216.311 133.156 218.209 139.536 219.509 146.85C214.613 151.44 209.488 157.789 201.149 159.855C195.993 161.155 171.85 166.418 168.637 166.648C166.005 163.71 161.017 149.053 161.43 147.094ZM158.523 149.129C158.523 149.129 160.359 148.686 160.329 148.395C161.758 153.771 163.557 159.042 165.714 164.169C164.323 164.6 162.901 164.922 161.461 165.133C160.589 165.133 161.201 165.898 159.074 160.849C157.764 157.71 156.64 154.497 155.708 151.225C155.448 150.17 155.004 150.277 158.523 149.129ZM140.607 152.358C141.816 151.027 142.688 150.828 154.775 152.358C155.85 156.006 157.153 159.583 158.676 163.068C156.189 165.007 153.338 166.427 150.292 167.245C150.2 166.587 149.986 166.786 150.506 166.831C150.946 166.844 151.382 166.758 151.784 166.579C152.185 166.4 152.542 166.133 152.826 165.799C153.111 165.464 153.317 165.07 153.429 164.645C153.542 164.22 153.557 163.775 153.474 163.343C153.352 161.813 148.976 158.631 147.737 157.759C148.473 157.91 149.236 157.852 149.94 157.59C150.003 157.57 150.055 157.526 150.085 157.467C150.115 157.408 150.121 157.34 150.101 157.277C150.08 157.214 150.036 157.161 149.977 157.131C149.918 157.101 149.85 157.096 149.787 157.116C147.217 157.789 144.616 154.729 144.279 154.637C143.101 154.347 143.835 157.085 141.219 158.722C140.837 158.967 139.368 158.416 139.276 157.667C139.083 156.739 139.103 155.779 139.334 154.86C139.564 153.94 139.999 153.085 140.607 152.358ZM123.502 157.177C125.46 156.473 135.436 153.383 138.312 154.117C137.988 155.339 137.915 156.615 138.098 157.866C138.195 158.263 138.377 158.635 138.631 158.956C138.885 159.277 139.205 159.539 139.569 159.725C139.934 159.911 140.334 160.016 140.743 160.033C141.152 160.05 141.559 159.979 141.938 159.824C143.004 159.113 143.806 158.069 144.218 156.856C145.58 157.682 152.342 162.165 152.25 163.756C152.25 164.827 151.684 165.73 150.613 165.638C149.709 165.314 148.854 164.866 148.073 164.307C147.288 163.679 146.46 163.107 145.595 162.593C145.457 162.522 145.298 162.504 145.148 162.543C144.998 162.582 144.868 162.675 144.783 162.804C144.697 162.933 144.663 163.089 144.685 163.243C144.708 163.396 144.787 163.535 144.906 163.634C144.906 163.634 146.054 164.491 147.324 165.317C149.236 166.847 149.894 168.254 147.523 168.973C147.151 169.084 146.761 169.116 146.377 169.069C145.993 169.021 145.622 168.895 145.289 168.698C144.899 167.928 144.382 167.23 143.759 166.633C143.481 165.918 142.983 165.31 142.336 164.897C141.69 164.485 140.929 164.289 140.163 164.338C139.368 164.429 139.307 164.827 139.383 164.46C139.75 162.639 137.425 161.538 135.803 161.844C133.187 162.364 131.733 165.822 130.876 168.346C130.356 169.448 132.406 168.224 123.456 171.406C123.708 166.963 123.708 162.508 123.456 158.065C123.379 157.009 123.349 157.254 123.502 157.177ZM131.305 168.514C132.146 166.709 133.997 163.328 135.971 163.022C136.736 162.884 138.281 163.404 138.113 164.185C137.782 166.256 136.826 168.178 135.374 169.693C135.558 169.999 130.769 170.09 131.305 168.514ZM139.964 165.592C140.332 165.225 142.474 165.975 142.535 167.122C142.642 169.035 140.821 171.314 139.245 172.37C138.74 172.722 136.751 171.1 136.292 170.442C137.385 168.73 138.613 167.108 139.964 165.592ZM142.55 170.687C142.657 170.534 144.187 167.137 144.447 169.953C144.554 171.054 142.917 171.636 141.846 171.483C142.095 171.23 142.33 170.965 142.55 170.687ZM176.577 190.577C170.136 195.58 169.218 202.159 170.274 210.008C159.931 206.336 152.036 203.888 148.961 203.628C144.799 203.714 140.656 204.226 136.598 205.158C137.012 201.042 136.828 186.599 133.906 183.631C130.983 180.663 120.38 176.608 116.387 175.078H117.29C117.642 174.895 117.06 173.288 118.391 173.196C119.998 173.104 122.247 173.716 122.981 173.074C123.201 172.741 123.327 172.355 123.349 171.957C125.032 171.421 128.994 170.213 130.999 169.693C131.672 170.227 132.461 170.598 133.303 170.776C134.145 170.954 135.016 170.934 135.849 170.718C136.308 171.743 138.45 173.992 139.781 173.257C140.15 173.044 140.503 172.804 140.837 172.538C141.804 172.807 142.832 172.764 143.774 172.416C144.273 172.28 144.718 171.995 145.049 171.598C145.38 171.201 145.581 170.712 145.625 170.197C146.427 170.428 147.281 170.391 148.059 170.093C148.837 169.795 149.498 169.251 149.94 168.545C153.295 167.791 156.434 166.284 159.12 164.139C159.411 164.766 159.686 165.301 159.916 165.669C159.992 165.798 160.099 165.906 160.227 165.983C160.355 166.061 160.5 166.105 160.65 166.112C162.18 166.265 165.791 164.582 165.944 164.582C166.468 165.676 167.12 166.703 167.887 167.642C168.162 167.918 168.621 167.841 169.05 167.795C173.487 167.26 195.519 162.517 201.409 161.048C209.059 159.136 214.047 153.765 219.295 148.655C219.004 157.437 220.152 161.721 216.679 178.964C209.457 179.862 202.302 181.232 195.259 183.065C189.093 184.824 181.749 186.568 176.577 190.592V190.577ZM198.9 220.764L198.365 220.55C198.242 212.777 200.17 205.617 205.862 200.308C206.365 200.436 206.876 200.533 207.392 200.599C201.532 205.617 199.221 212.93 198.9 220.764ZM223.059 195.259C218.469 197.952 219.815 199.405 215.608 199.849C212.237 200.08 208.85 199.818 205.556 199.069C202.893 198.212 204.301 197.187 207.086 196.881C207.56 196.957 211.293 196.988 213.053 196.881C213.196 196.858 213.327 196.784 213.422 196.674C213.516 196.563 213.568 196.422 213.568 196.276C213.568 196.131 213.516 195.99 213.422 195.879C213.327 195.768 213.196 195.695 213.053 195.672C211.068 195.501 209.074 195.47 207.086 195.58C205.819 195.562 204.558 195.413 203.322 195.136C203.199 194.936 203.127 194.708 203.114 194.473C203.101 194.238 203.146 194.003 203.245 193.79C204.852 192.826 212.425 193.193 213.68 193.147C213.827 193.124 213.962 193.049 214.059 192.935C214.156 192.822 214.21 192.677 214.21 192.528C214.21 192.378 214.156 192.234 214.059 192.12C213.962 192.007 213.827 191.931 213.68 191.908C211.169 191.961 208.658 191.828 206.168 191.51C205.097 191.327 202.603 190.791 202.786 189.705C203.123 187.747 207.147 189.43 209.977 189.231C211.974 189.201 213.951 188.828 215.822 188.129C215.962 188.086 216.079 187.99 216.148 187.861C216.217 187.732 216.232 187.581 216.189 187.441C216.146 187.301 216.05 187.183 215.921 187.114C215.792 187.046 215.641 187.031 215.501 187.073C213.586 187.534 211.644 187.871 209.687 188.083C209.562 188.057 209.452 187.987 209.376 187.886C209.3 187.784 209.263 187.659 209.273 187.532C209.295 187.246 209.368 186.967 209.488 186.706C210.277 185.677 211.336 184.888 212.548 184.426C216.893 182.621 220.198 184.426 225.17 184.748C225.794 187.577 226.586 190.367 227.542 193.102C226.017 193.711 224.539 194.432 223.12 195.259H223.059ZM228.903 193.392C228.368 191.587 226.379 185.038 226.18 183.508C226.97 183.123 227.801 182.83 228.659 182.636C229.362 185.253 230.663 189.797 231.504 192.337C230.683 192.747 229.835 193.1 228.965 193.392H228.903ZM233.233 193.392C232.422 191.556 230.02 183.004 229.469 180.862C232.101 178.704 255.724 167.092 259.243 163.557C260.345 162.456 256.627 141.724 260.987 124.665C263.313 115.485 267.872 101.057 277.282 101.378C283.739 101.592 287.426 106.519 289.522 112.669C293.362 123.991 291.832 139.705 291.832 139.552C291.832 152.388 287.242 171.682 278.062 180.862C271.131 187.808 237.548 194.173 233.294 193.438L233.233 193.392ZM296.315 205.02C294.525 204.546 286.309 201.517 282.836 201.226C264.797 199.696 265.914 196.269 254.76 191.373C260.88 189.843 274.482 186.293 278.996 181.825C288.527 172.37 292.934 152.878 292.888 139.689C293.242 135.07 293.242 130.431 292.888 125.812C296.269 144.998 298.35 199.206 296.315 205.02Z" fill="#14397F"/>
<path fill-rule="evenodd" clip-rule="evenodd" d="M59.7464 101.592L54.728 102.174C56.2579 103.612 57.6511 105.19 58.8896 106.886L60.2819 102.296C60.3244 102.214 60.3427 102.121 60.3346 102.029C60.3266 101.937 60.2926 101.849 60.2365 101.775C60.1805 101.701 60.1047 101.645 60.0179 101.613C59.9312 101.58 59.837 101.573 59.7464 101.592ZM204.882 241.22C203.62 240.421 202.227 239.851 200.767 239.537C204.24 233.891 203.612 227.297 202.694 226.716C201.83 225.835 200.68 225.292 199.451 225.186C194.861 224.222 183.738 224.145 180.8 226.593C180.157 227.129 179.775 228.001 180.402 228.582C180.104 232.209 180.864 235.844 182.59 239.048C181.06 239.338 179.285 239.92 178.704 241.297C178.604 241.593 178.576 241.909 178.624 242.218C178.672 242.527 178.794 242.82 178.979 243.071C180.154 244.528 181.761 245.573 183.569 246.055C186.763 247.027 190.113 247.375 193.438 247.08C196.614 246.951 199.764 246.437 202.817 245.55C206.198 244.295 206.167 242.23 204.882 241.22ZM180.938 228.858C184.227 229.756 187.627 230.178 191.036 230.112C194.752 229.858 198.422 229.138 201.96 227.97C202.266 230.075 202.154 232.22 201.629 234.281C201.103 236.342 200.176 238.279 198.9 239.981C198.592 240.521 198.146 240.971 197.609 241.285C197.072 241.599 196.462 241.767 195.84 241.771C193.698 242.046 187.853 242.199 186.66 241.664C182.789 239.874 180.877 233.371 180.938 228.858ZM193.377 245.688C190.218 245.987 187.032 245.665 183.998 244.739C182.624 244.365 181.359 243.667 180.31 242.704C180.066 242.444 179.668 241.924 179.79 241.603C180.188 240.593 182.131 240.073 183.202 239.889C183.969 241.058 185.022 242.012 186.262 242.658C187.792 243.439 196.268 243.347 197.844 242.536C198.827 241.936 199.659 241.12 200.277 240.149C201.18 240.409 204.331 241.48 204.546 242.337C205.234 244.969 196.131 245.596 193.377 245.764V245.688Z" fill="#14397F"/>
</svg>
