<svg width="810" height="152" viewBox="0 0 810 152" fill="none" xmlns="http://www.w3.org/2000/svg">
<path d="M63.6072 72.0102V70.0453C60.482 70.0453 57.7739 67.9934 56.9564 65.0808L56.9561 65.0795C56.137 62.1686 57.3871 59.0598 60.0492 57.4922L60.0501 57.4917L127.319 17.8331C127.319 17.833 127.32 17.8329 127.32 17.8328C135.45 13.0429 145.405 12.3065 154.177 15.8522C154.178 15.8522 154.178 15.8523 154.178 15.8524L265.023 60.6894C267.226 61.5805 268.452 63.865 268 66.1179L268 66.1183C267.546 68.3813 265.52 70.0453 263.124 70.0453V72.0102C263.124 70.0453 263.124 70.0453 263.123 70.0453H263.122H263.119H263.116H263.112H263.107H263.101H263.094H263.086H263.077H263.067H263.056H263.045H263.032H263.019H263.005H262.989H262.973H262.956H262.938H262.92H262.9H262.879H262.858H262.836H262.812H262.788H262.763H262.738H262.711H262.683H262.655H262.626H262.596H262.565H262.533H262.5H262.467H262.433H262.397H262.361H262.325H262.287H262.248H262.209H262.169H262.128H262.086H262.044H262H261.956H261.911H261.865H261.819H261.771H261.723H261.674H261.624H261.574H261.523H261.471H261.418H261.364H261.31H261.254H261.198H261.142H261.084H261.026H260.967H260.907H260.847H260.786H260.724H260.661H260.597H260.533H260.468H260.403H260.336H260.269H260.201H260.133H260.064H259.994H259.923H259.852H259.779H259.707H259.633H259.559H259.484H259.408H259.332H259.255H259.178H259.099H259.02H258.941H258.86H258.779H258.698H258.615H258.532H258.449H258.364H258.279H258.194H258.108H258.021H257.933H257.845H257.756H257.667H257.577H257.486H257.395H257.303H257.21H257.117H257.023H256.929H256.834H256.738H256.642H256.545H256.448H256.35H256.251H256.152H256.052H255.952H255.851H255.749H255.647H255.544H255.441H255.337H255.233H255.128H255.023H254.917H254.81H254.703H254.595H254.487H254.378H254.269H254.159H254.049H253.938H253.826H253.714H253.602H253.489H253.375H253.261H253.147H253.032H252.916H252.8H252.683H252.566H252.449H252.331H252.212H252.093H251.973H251.853H251.733H251.612H251.491H251.369H251.246H251.124H251H250.876H250.752H250.628H250.503H250.377H250.251H250.125H249.998H249.87H249.743H249.614H249.486H249.357H249.227H249.097H248.967H248.836H248.705H248.574H248.442H248.309H248.177H248.043H247.91H247.776H247.642H247.507H247.372H247.236H247.1H246.964H246.828H246.691H246.553H246.416H246.278H246.139H246H245.861H245.722H245.582H245.442H245.301H245.16H245.019H244.877H244.736H244.593H244.451H244.308H244.165H244.021H243.877H243.733H243.589H243.444H243.299H243.154H243.008H242.862H242.716H242.569H242.423H242.275H242.128H241.98H241.832H241.684H241.536H241.387H241.238H241.089H240.939H240.789H240.639H240.489H240.338H240.188H240.037H239.885H239.734H239.582H239.43H239.278H239.125H238.973H238.82H238.667H238.513H238.36H238.206H238.052H237.898H237.743H237.589H237.434H237.279H237.124H236.969H236.813H236.657H236.501H236.345H236.189H236.033H235.876H235.719H235.562H235.405H235.248H235.091H234.933H234.776H234.618H234.46H234.302H234.143H233.985H233.826H233.668H233.509H233.35H233.191H233.032H232.872H232.713H232.554H232.394H232.234H232.074H231.914H231.754H231.594H231.434H231.274H231.113H230.953H230.792H230.632H230.471H230.31H230.149H229.989H229.828H229.667H229.505H229.344H229.183H229.022H228.861H228.699H228.538H228.376H228.215H228.053H227.892H227.73H227.569H227.407H227.245H227.084H226.922H226.76H226.599H226.437H226.275H226.114H225.952H225.79H225.629H225.467H225.305H225.144H224.982H224.82H224.659H224.497H224.336H224.174H224.013H223.851H223.69H223.529H223.367H223.206H223.045H222.884H222.723H222.562H222.401H222.24H222.079H221.918H221.758H221.597H221.436H221.276H221.116H220.955H220.795H220.635H220.475H220.315H220.155H219.996H219.836H219.677H219.517H219.358H219.199H219.04H218.881H218.722H218.564H218.405H218.247H218.089H217.931H217.773H217.615H217.457H217.3H217.142H216.985H216.828H216.671H216.515H216.358H216.202H216.045H215.889H215.734H215.578H215.422H215.267H215.112H214.957H214.802H214.648H214.494H214.339H214.186H214.032H213.878H213.725H213.572H213.419H213.267H213.114H212.962H212.81H212.658H212.507H212.356H212.205H212.054H211.904H211.753H211.603H211.454H211.304H211.155H211.006H210.857H210.709H210.561H210.413H210.265H210.118H209.971H209.824H209.678H209.532H209.386H209.24H209.095H208.95H208.806H208.661H208.517H208.373H208.23H208.087H207.944H207.802H207.66H207.518H207.376H207.235H207.095H206.954H206.814H206.674H206.535H206.396H206.257H206.119H205.981H205.843H205.706H205.569H205.433H205.297H205.161H205.025H204.89H204.756H204.622H204.488H204.354H204.221H204.089H203.957H203.825H203.693H203.562H203.432H203.302H203.172H203.042H202.914H202.785H202.657H202.529H202.402H202.275H202.149H202.023H201.898H201.773H201.648H201.524H201.401H201.278H201.155H201.033C195.825 70.0453 191.175 66.896 189.303 62.1554C185.374 51.2472 174.775 43.5546 162.4 43.5546C150.016 43.5546 139.431 51.2546 135.335 62.0783C133.493 66.7576 128.906 69.8689 123.768 69.8689H123.759L123.751 69.869C113.573 69.9571 98.5389 70.0012 86.045 70.0233C79.799 70.0343 74.1894 70.0398 70.1414 70.0426C68.1173 70.0439 66.4837 70.0446 65.3561 70.045L64.0588 70.0453L63.7219 70.0453L63.6361 70.0453H63.6145H63.609H63.6077C63.6074 70.0453 63.6072 70.0453 63.6072 72.0102ZM206.454 77.523V79.4879C209.576 79.4879 212.287 81.5404 213.105 84.4525L213.105 84.4537C213.924 87.3635 212.671 90.4733 210.011 92.0415L211.009 93.7342L210.011 92.0416L142.742 131.7C134.611 136.49 124.652 137.227 115.884 133.681C115.884 133.681 115.884 133.681 115.884 133.681L5.03835 88.8439L5.03763 88.8436C2.83317 87.9529 1.60747 85.669 2.0579 83.4132C2.51231 81.1523 4.54052 79.4879 6.93751 79.4879V77.523C6.93751 79.4879 6.93766 79.4879 6.93797 79.4879H6.93934H6.94163H6.94483H6.94894H6.95395H6.95987H6.96668H6.9744H6.983H6.9925H7.00289H7.01417H7.02632H7.03936H7.05328H7.06807H7.08373H7.10027H7.11767H7.13593H7.15506H7.17504H7.19588H7.21758H7.24012H7.26351H7.28775H7.31283H7.33875H7.36551H7.3931H7.42152H7.45077H7.48084H7.51174H7.54346H7.576H7.60935H7.64351H7.67848H7.71426H7.75085H7.78823H7.82641H7.86539H7.90516H7.94572H7.98707H8.0292H8.07212H8.11581H8.16028H8.20553H8.25154H8.29833H8.34588H8.39419H8.44326H8.49309H8.54367H8.59501H8.64709H8.69992H8.75349H8.80781H8.86286H8.91865H8.97517H9.03242H9.09039H9.14909H9.20852H9.26866H9.32951H9.39108H9.45337H9.51635H9.58005H9.64444H9.70954H9.77533H9.84182H9.909H9.97686H10.0454H10.1147H10.1846H10.2552H10.3264H10.3984H10.471H10.5443H10.6182H10.6928H10.7681H10.844H10.9205H10.9978H11.0756H11.1541H11.2333H11.3131H11.3935H11.4746H11.5563H11.6386H11.7215H11.8051H11.8893H11.9741H12.0595H12.1456H12.2322H12.3195H12.4073H12.4958H12.5848H12.6745H12.7647H12.8555H12.9469H13.0389H13.1315H13.2247H13.3184H13.4127H13.5076H13.6031H13.6991H13.7956H13.8928H13.9905H14.0887H14.1875H14.2869H14.3868H14.4872H14.5882H14.6897H14.7917H14.8943H14.9974H15.1011H15.2052H15.3099H15.4151H15.5208H15.6271H15.7338H15.841H15.9488H16.057H16.1658H16.275H16.3848H16.495H16.6057H16.717H16.8286H16.9408H17.0535H17.1666H17.2802H17.3943H17.5088H17.6238H17.7392H17.8551H17.9715H18.0883H18.2056H18.3233H18.4415H18.5601H18.6791H18.7986H18.9185H19.0389H19.1596H19.2808H19.4024H19.5245H19.6469H19.7698H19.8931H20.0168H20.1409H20.2654H20.3903H20.5156H20.6413H20.7673H20.8938H21.0207H21.1479H21.2756H21.4036H21.5319H21.6607H21.7898H21.9193H22.0492H22.1794H22.31H22.4409H22.5722H22.7038H22.8358H22.9681H23.1008H23.2338H23.3672H23.5009H23.6349H23.7692H23.9039H24.0389H24.1742H24.3099H24.4458H24.5821H24.7187H24.8555H24.9927H25.1302H25.268H25.4061H25.5445H25.6831H25.8221H25.9613H26.1009H26.2407H26.3807H26.5211H26.6617H26.8026H26.9438H27.0852H27.2269H27.3688H27.511H27.6535H27.7962H27.9391H28.0823H28.2257H28.3694H28.5133H28.6575H28.8018H28.9464H29.0913H29.2363H29.3816H29.527H29.6727H29.8186H29.9648H30.1111H30.2576H30.4043H30.5512H30.6984H30.8457H30.9932H31.1408H31.2887H31.4368H31.585H31.7334H31.882H32.0307H32.1796H32.3287H32.4779H32.6273H32.7769H32.9266H33.0764H33.2264H33.3766H33.5269H33.6773H33.8279H33.9786H34.1294H34.2804H34.4315H34.5827H34.734H34.8855H35.037H35.1887H35.3405H35.4924H35.6444H35.7965H35.9487H36.101H36.2534H36.4059H36.5584H36.7111H36.8638H37.0166H37.1695H37.3225H37.4755H37.6286H37.7818H37.935H38.0883H38.2417H38.3951H38.5485H38.702H38.8556H39.0092H39.1628H39.3165H39.4702H39.624H39.7777H39.9315H40.0854H40.2392H40.3931H40.547H40.7009H40.8548H41.0087H41.1626H41.3165H41.4705H41.6244H41.7783H41.9322H42.0861H42.24H42.3938H42.5477H42.7015H42.8553H43.0091H43.1628H43.3165H43.4702H43.6238H43.7774H43.931H44.0845H44.2379H44.3913H44.5447H44.698H44.8512H45.0044H45.1574H45.3105H45.4634H45.6163H45.7691H45.9218H46.0745H46.2271H46.3795H46.5319H46.6842H46.8364H46.9885H47.1405H47.2923H47.4441H47.5958H47.7473H47.8988H48.0501H48.2013H48.3524H48.5033H48.6542H48.8048H48.9554H49.1058H49.2561H49.4062H49.5562H49.7061H49.8558H50.0053H50.1547H50.3039H50.4529H50.6018H50.7506H50.8991H51.0475H51.1957H51.3437H51.4916H51.6393H51.7867H51.934H52.0811H52.228H52.3747H52.5212H52.6675H52.8136H52.9595H53.1052H53.2506H53.3959H53.5409H53.6857H53.8303H53.9746H54.1187H54.2626H54.4063H54.5497H54.6928H54.8358H54.9784H55.1208H55.263H55.4049H55.5466H55.688H55.8291H55.97H56.1106H56.2509H56.391H56.5308H56.6702H56.8095H56.9484H57.087H57.2254H57.3634H57.5012H57.6386H57.7758H57.9127H58.0492H58.1854H58.3214H58.457H58.5922H58.7272H58.8619H58.9962H59.1301H59.2638H59.3971H59.5301H59.6627H59.795H59.927H60.0586H60.1898H60.3207H60.4513H60.5815H60.7113H60.8407H60.9698H61.0985H61.2269H61.3548H61.4824H61.6096H61.7365H61.8629H61.9889H62.1146H62.2398H62.3647H62.4892H62.6132H62.7369H62.8601H62.9829H63.1053H63.2273H63.3489H63.4701H63.5908H63.7111H63.831H63.9504H64.0694H64.188H64.3061H64.4237H64.541H64.6577H64.7741H64.8899H65.0053H65.1203H65.2348H65.3488H65.4623H65.5754H65.688H65.8001H65.9118H66.0229C70.5151 79.4879 74.6508 81.8398 76.8978 85.6391C81.8762 94.5348 91.7979 100.466 102.661 100.466C113.508 100.466 122.976 94.5549 127.909 85.8182C130.115 81.9996 134.246 79.6239 138.736 79.624L138.749 79.6239C149.149 79.5559 166.073 79.5219 180.402 79.5049C187.565 79.4964 194.078 79.4922 198.801 79.4901C201.162 79.489 203.075 79.4885 204.398 79.4882L205.922 79.488L206.319 79.4879H206.42H206.445L206.452 79.4879H206.453C206.454 79.4879 206.454 79.4879 206.454 77.523Z" fill="white" stroke="#14397F" stroke-width="3.92985"/>
<path d="M313.984 119.761V33.632H356.065C366.892 33.632 375.013 35.6827 380.427 39.7841C385.923 43.8855 388.671 49.2993 388.671 56.0256C388.671 60.5371 387.563 64.4744 385.349 67.8376C383.134 71.1187 380.099 73.6615 376.243 75.4661C372.388 77.2707 367.959 78.1731 362.955 78.1731L365.293 73.1283C370.707 73.1283 375.505 74.0307 379.689 75.8353C383.872 77.5578 387.112 80.1417 389.409 83.5869C391.788 87.032 392.977 91.2565 392.977 96.2602C392.977 103.643 390.065 109.426 384.241 113.609C378.417 117.71 369.845 119.761 358.525 119.761H313.984ZM333.794 104.75H357.049C362.217 104.75 366.113 103.93 368.738 102.289C371.445 100.567 372.798 97.8597 372.798 94.1685C372.798 90.5592 371.445 87.8933 368.738 86.1708C366.113 84.3661 362.217 83.4638 357.049 83.4638H332.318V68.9449H353.604C358.443 68.9449 362.135 68.1247 364.678 66.4841C367.302 64.7615 368.615 62.1776 368.615 58.7325C368.615 55.3693 367.302 52.8675 364.678 51.2269C362.135 49.5044 358.443 48.6431 353.604 48.6431H333.794V104.75ZM434.645 120.745C429.149 120.745 424.227 119.679 419.88 117.546C415.615 115.414 412.292 112.174 409.914 107.826C407.535 103.397 406.345 97.7777 406.345 90.9694V53.5647H425.54V88.1394C425.54 93.6353 426.688 97.6957 428.985 100.321C431.364 102.863 434.686 104.135 438.951 104.135C441.904 104.135 444.529 103.52 446.826 102.289C449.123 100.977 450.927 99.0081 452.24 96.3832C453.552 93.6763 454.209 90.3132 454.209 86.2938V53.5647H473.403V119.761H455.193V101.551L458.515 106.842C456.3 111.435 453.019 114.921 448.672 117.3C444.406 119.597 439.731 120.745 434.645 120.745ZM493.523 119.761V52.0882C493.523 44.6237 495.738 38.6767 500.167 34.2472C504.597 29.7357 510.913 27.4799 519.116 27.4799C521.905 27.4799 524.571 27.767 527.114 28.3412C529.738 28.9154 531.953 29.8177 533.758 31.0481L528.713 44.9518C527.647 44.2136 526.457 43.6394 525.145 43.2292C523.832 42.8191 522.438 42.614 520.962 42.614C518.173 42.614 515.999 43.4343 514.44 45.0749C512.964 46.6334 512.226 49.0122 512.226 52.2113V58.3634L512.718 66.6071V119.761H493.523ZM483.311 69.8062V55.0412H529.205V69.8062H483.311ZM570.779 120.745C563.232 120.745 556.588 119.269 550.846 116.316C545.186 113.363 540.798 109.344 537.681 104.258C534.564 99.0901 533.005 93.2251 533.005 86.6629C533.005 80.0187 534.523 74.1537 537.558 69.068C540.675 63.9002 544.899 59.8809 550.231 57.0099C555.563 54.0569 561.592 52.5804 568.318 52.5804C574.798 52.5804 580.622 53.9749 585.79 56.7638C591.04 59.4707 595.182 63.4081 598.217 68.5758C601.252 73.6615 602.77 79.7726 602.77 86.909C602.77 87.6473 602.729 88.5085 602.647 89.4929C602.565 90.3952 602.483 91.2565 602.401 92.0768H548.631V80.88H592.311L584.929 84.2021C584.929 80.7569 584.231 77.7629 582.837 75.2201C581.443 72.6772 579.515 70.7085 577.054 69.3141C574.593 67.8376 571.722 67.0993 568.441 67.0993C565.16 67.0993 562.248 67.8376 559.705 69.3141C557.244 70.7085 555.317 72.7182 553.922 75.3431C552.528 77.886 551.831 80.921 551.831 84.4482V87.4012C551.831 91.0104 552.61 94.2095 554.168 96.9984C555.809 99.7053 558.065 101.797 560.936 103.274C563.889 104.668 567.334 105.365 571.271 105.365C574.798 105.365 577.874 104.832 580.499 103.766C583.206 102.699 585.667 101.1 587.882 98.9671L598.094 110.041C595.059 113.486 591.245 116.152 586.651 118.039C582.058 119.843 576.767 120.745 570.779 120.745ZM642.618 120.745C634.825 120.745 628.755 118.777 624.408 114.839C620.06 110.82 617.887 104.873 617.887 96.9984V38.9228H637.081V96.7523C637.081 99.5413 637.819 101.715 639.296 103.274C640.772 104.75 642.782 105.488 645.325 105.488C648.36 105.488 650.944 104.668 653.076 103.027L658.244 116.562C656.276 117.956 653.897 119.023 651.108 119.761C648.401 120.417 645.571 120.745 642.618 120.745ZM607.674 69.8062V55.0412H653.569V69.8062H607.674ZM699.828 120.745C692.282 120.745 685.638 119.269 679.896 116.316C674.236 113.363 669.847 109.344 666.73 104.258C663.613 99.0901 662.055 93.2251 662.055 86.6629C662.055 80.0187 663.572 74.1537 666.607 69.068C669.724 63.9002 673.949 59.8809 679.28 57.0099C684.612 54.0569 690.641 52.5804 697.368 52.5804C703.848 52.5804 709.672 53.9749 714.839 56.7638C720.089 59.4707 724.232 63.4081 727.267 68.5758C730.302 73.6615 731.819 79.7726 731.819 86.909C731.819 87.6473 731.778 88.5085 731.696 89.4929C731.614 90.3952 731.532 91.2565 731.45 92.0768H677.681V80.88H721.361L713.978 84.2021C713.978 80.7569 713.281 77.7629 711.886 75.2201C710.492 72.6772 708.564 70.7085 706.104 69.3141C703.643 67.8376 700.772 67.0993 697.491 67.0993C694.21 67.0993 691.298 67.8376 688.755 69.3141C686.294 70.7085 684.366 72.7182 682.972 75.3431C681.577 77.886 680.88 80.921 680.88 84.4482V87.4012C680.88 91.0104 681.659 94.2095 683.218 96.9984C684.858 99.7053 687.114 101.797 689.985 103.274C692.938 104.668 696.383 105.365 700.321 105.365C703.848 105.365 706.924 104.832 709.549 103.766C712.256 102.699 714.716 101.1 716.931 98.9671L727.144 110.041C724.109 113.486 720.294 116.152 715.701 118.039C711.107 119.843 705.816 120.745 699.828 120.745ZM776.589 120.745C769.453 120.745 763.095 119.31 757.518 116.439C751.94 113.486 747.551 109.426 744.352 104.258C741.235 99.0901 739.677 93.2251 739.677 86.6629C739.677 80.0187 741.235 74.1537 744.352 69.068C747.551 63.9002 751.94 59.8809 757.518 57.0099C763.095 54.0569 769.453 52.5804 776.589 52.5804C783.561 52.5804 789.631 54.0569 794.799 57.0099C799.967 59.8809 803.781 64.0233 806.242 69.4371L791.354 77.4348C789.631 74.3177 787.458 72.021 784.833 70.5445C782.29 69.068 779.501 68.3297 776.466 68.3297C773.185 68.3297 770.232 69.068 767.607 70.5445C764.982 72.021 762.89 74.1127 761.332 76.8196C759.855 79.5265 759.117 82.8076 759.117 86.6629C759.117 90.5182 759.855 93.7993 761.332 96.5062C762.89 99.2132 764.982 101.305 767.607 102.781C770.232 104.258 773.185 104.996 776.466 104.996C779.501 104.996 782.29 104.299 784.833 102.904C787.458 101.428 789.631 99.0901 791.354 95.891L806.242 104.012C803.781 109.344 799.967 113.486 794.799 116.439C789.631 119.31 783.561 120.745 776.589 120.745Z" fill="white"/>
</svg>
