<?xml version="1.0" encoding="UTF-8" standalone="no"?><!DOCTYPE svg PUBLIC "-//W3C//DTD SVG 1.1//EN" "http://www.w3.org/Graphics/SVG/1.1/DTD/svg11.dtd"><svg width="100%" height="100%" viewBox="0 0 1194 160" version="1.1" xmlns="http://www.w3.org/2000/svg" xmlns:xlink="http://www.w3.org/1999/xlink" xml:space="preserve" xmlns:serif="http://www.serif.com/" style="fill-rule:evenodd;clip-rule:evenodd;stroke-linejoin:round;stroke-miterlimit:2;"><g><path d="M158.199,67.603c-3.704,7.76 -11.538,12.702 -20.137,12.702c-24.182,0.157 -65.11,0.157 -65.11,0.157c-4.571,0 -8.581,-3.051 -9.799,-7.457c-1.219,-4.407 0.653,-9.084 4.575,-11.433l77.152,-46.207c9.931,-5.948 22.087,-6.86 32.795,-2.459l127.132,52.244c3.514,1.444 5.517,5.171 4.781,8.898c-0.736,3.728 -4.005,6.414 -7.805,6.414c0,0 -42.555,0 -67.322,0c-8.659,-0.001 -16.547,-4.978 -20.276,-12.793c-4.741,-10.688 -15.477,-18.072 -27.924,-18.072c-12.446,0 -23.182,7.384 -28.062,18.006Zm-14.446,29.478c4.131,-6.284 11.147,-10.067 18.666,-10.067c25.179,-0.128 74.368,-0.128 74.368,-0.128c4.571,-0 8.581,3.051 9.799,7.457c1.219,4.406 -0.653,9.084 -4.575,11.433l-77.152,46.207c-9.931,5.948 -22.087,6.859 -32.795,2.459l-127.132,-52.244c-3.514,-1.444 -5.517,-5.171 -4.781,-8.899c0.736,-3.727 4.005,-6.413 7.805,-6.413c-0,-0 41.781,-0 64.51,-0c7.482,0 14.473,3.725 18.646,9.935c5.563,8.746 15.639,14.506 26.633,14.506c10.918,0 20.52,-5.681 26.008,-14.246Z"/><path d="M351.991,157.74l0,-147.224l71.93,0c18.508,0 32.424,3.505 41.748,10.516c9.325,7.011 13.987,16.265 13.987,27.762c-0,7.712 -1.893,14.407 -5.679,20.086c-3.786,5.679 -8.974,10.06 -15.564,13.145c-6.59,3.085 -14.161,4.627 -22.714,4.627l3.996,-8.623c9.254,-0 17.456,1.507 24.607,4.522c7.151,3.014 12.725,7.466 16.721,13.355c3.996,5.889 5.994,13.11 5.994,21.663c-0,12.619 -4.978,22.469 -14.933,29.55c-9.955,7.081 -24.607,10.621 -43.957,10.621l-76.136,0Zm33.862,-25.659l39.75,0c8.834,0 15.529,-1.437 20.086,-4.311c4.557,-2.875 6.835,-7.467 6.835,-13.776c0,-6.17 -2.278,-10.762 -6.835,-13.776c-4.557,-3.015 -11.252,-4.522 -20.086,-4.522l-42.274,-0l-0,-24.818l36.385,0c8.273,0 14.618,-1.437 19.034,-4.312c4.417,-2.874 6.625,-7.256 6.625,-13.145c0,-5.748 -2.208,-10.06 -6.625,-12.934c-4.416,-2.875 -10.761,-4.312 -19.034,-4.312l-33.861,0l-0,95.906Z" style="fill-rule:nonzero;"/><path d="M558.316,159.423c-9.395,0 -17.773,-1.823 -25.134,-5.468c-7.361,-3.646 -13.075,-9.219 -17.141,-16.721c-4.066,-7.501 -6.099,-17.071 -6.099,-28.709l-0,-63.937l32.81,-0l-0,59.1c-0,9.394 1.998,16.3 5.994,20.717c3.996,4.416 9.64,6.625 16.931,6.625c5.047,-0 9.534,-1.087 13.46,-3.26c3.926,-2.174 7.011,-5.539 9.254,-10.096c2.244,-4.557 3.366,-10.27 3.366,-17.141l-0,-55.945l32.81,-0l-0,113.152l-31.128,0l0,-31.127l5.679,9.044c-3.786,7.852 -9.359,13.776 -16.721,17.772c-7.361,3.996 -15.388,5.994 -24.081,5.994Z" style="fill-rule:nonzero;"/><path d="M659.059,157.74l0,-115.676c0,-12.759 3.786,-22.96 11.357,-30.602c7.572,-7.641 18.368,-11.462 32.39,-11.462c4.767,-0 9.359,0.491 13.776,1.472c4.417,0.982 8.167,2.524 11.252,4.627l-8.623,23.767c-1.823,-1.262 -3.856,-2.244 -6.099,-2.945c-2.244,-0.701 -4.627,-1.052 -7.151,-1.052c-4.768,0 -8.448,1.368 -11.042,4.102c-2.594,2.734 -3.891,6.835 -3.891,12.303l-0,10.516l0.841,14.092l0,90.858l-32.81,0Zm-17.456,-85.39l-0,-25.238l78.449,-0l0,25.238l-78.449,0Z" style="fill-rule:nonzero;"/><path d="M791.141,159.423c-12.9,0 -24.222,-2.524 -33.967,-7.572c-9.745,-5.047 -17.282,-11.953 -22.61,-20.716c-5.328,-8.763 -7.992,-18.754 -7.992,-29.971c0,-11.357 2.629,-21.417 7.887,-30.181c5.258,-8.763 12.444,-15.634 21.558,-20.611c9.114,-4.978 19.42,-7.467 30.917,-7.467c11.077,0 21.067,2.349 29.971,7.046c8.903,4.697 15.949,11.428 21.137,20.191c5.188,8.763 7.782,19.244 7.782,31.443c-0,1.262 -0.07,2.699 -0.21,4.311c-0.141,1.613 -0.281,3.12 -0.421,4.522l-91.91,0l-0,-19.139l74.664,0l-12.62,5.679c0,-5.889 -1.191,-11.007 -3.575,-15.354c-2.384,-4.346 -5.679,-7.746 -9.885,-10.2c-4.207,-2.454 -9.114,-3.681 -14.723,-3.681c-5.608,0 -10.551,1.227 -14.827,3.681c-4.277,2.454 -7.607,5.889 -9.99,10.306c-2.384,4.416 -3.576,9.639 -3.576,15.668l0,5.048c0,6.17 1.367,11.603 4.101,16.3c2.735,4.697 6.59,8.273 11.568,10.726c4.978,2.454 10.832,3.681 17.562,3.681c6.029,-0 11.322,-0.911 15.879,-2.734c4.557,-1.823 8.728,-4.557 12.514,-8.203l17.457,18.929c-5.188,5.889 -11.708,10.411 -19.56,13.566c-7.852,3.155 -16.896,4.732 -27.131,4.732Z" style="fill-rule:nonzero;"/><path d="M913.968,159.423c-13.321,0 -23.696,-3.4 -31.128,-10.201c-7.431,-6.8 -11.147,-16.93 -11.147,-30.391l0,-99.271l32.81,-0l0,98.851c0,4.767 1.262,8.447 3.786,11.041c2.524,2.594 5.959,3.891 10.306,3.891c5.188,0 9.604,-1.402 13.25,-4.206l8.833,23.135c-3.365,2.384 -7.396,4.172 -12.093,5.363c-4.697,1.192 -9.57,1.788 -14.617,1.788Zm-59.731,-87.073l-0,-25.238l78.449,-0l0,25.238l-78.449,0Z" style="fill-rule:nonzero;"/><path d="M1011.77,159.423c-12.9,0 -24.222,-2.524 -33.967,-7.572c-9.745,-5.047 -17.281,-11.953 -22.609,-20.716c-5.329,-8.763 -7.993,-18.754 -7.993,-29.971c0,-11.357 2.629,-21.417 7.887,-30.181c5.258,-8.763 12.444,-15.634 21.558,-20.611c9.114,-4.978 19.42,-7.467 30.917,-7.467c11.077,0 21.068,2.349 29.971,7.046c8.904,4.697 15.949,11.428 21.137,20.191c5.188,8.763 7.782,19.244 7.782,31.443c0,1.262 -0.07,2.699 -0.21,4.311c-0.14,1.613 -0.281,3.12 -0.421,4.522l-91.91,0l0,-19.139l74.664,0l-12.619,5.679c-0,-5.889 -1.192,-11.007 -3.576,-15.354c-2.383,-4.346 -5.678,-7.746 -9.885,-10.2c-4.206,-2.454 -9.114,-3.681 -14.722,-3.681c-5.609,0 -10.551,1.227 -14.828,3.681c-4.276,2.454 -7.606,5.889 -9.99,10.306c-2.384,4.416 -3.576,9.639 -3.576,15.668l0,5.048c0,6.17 1.368,11.603 4.102,16.3c2.734,4.697 6.59,8.273 11.567,10.726c4.978,2.454 10.832,3.681 17.562,3.681c6.029,-0 11.322,-0.911 15.879,-2.734c4.557,-1.823 8.729,-4.557 12.514,-8.203l17.457,18.929c-5.188,5.889 -11.708,10.411 -19.56,13.566c-7.852,3.155 -16.896,4.732 -27.131,4.732Z" style="fill-rule:nonzero;"/><path d="M1143.01,159.423c-12.199,0 -23.065,-2.489 -32.6,-7.466c-9.534,-4.978 -17.001,-11.883 -22.399,-20.717c-5.398,-8.833 -8.097,-18.859 -8.097,-30.076c-0,-11.357 2.699,-21.417 8.097,-30.181c5.398,-8.763 12.865,-15.634 22.399,-20.611c9.535,-4.978 20.401,-7.467 32.6,-7.467c11.918,0 22.294,2.489 31.127,7.467c8.834,4.977 15.354,12.093 19.56,21.347l-25.449,13.671c-2.944,-5.328 -6.625,-9.254 -11.041,-11.778c-4.417,-2.524 -9.219,-3.786 -14.407,-3.786c-5.609,0 -10.657,1.262 -15.143,3.786c-4.487,2.524 -8.028,6.1 -10.622,10.727c-2.594,4.627 -3.891,10.235 -3.891,16.825c0,6.59 1.297,12.199 3.891,16.826c2.594,4.627 6.135,8.202 10.622,10.726c4.486,2.524 9.534,3.786 15.143,3.786c5.188,0 9.99,-1.227 14.407,-3.681c4.416,-2.453 8.097,-6.414 11.041,-11.883l25.449,13.881c-4.206,9.114 -10.726,16.16 -19.56,21.138c-8.833,4.977 -19.209,7.466 -31.127,7.466Z" style="fill-rule:nonzero;"/></g></svg>