<?xml version="1.0" encoding="UTF-8" standalone="no"?>
<!DOCTYPE svg PUBLIC "-//W3C//DTD SVG 1.1//EN" "http://www.w3.org/Graphics/SVG/1.1/DTD/svg11.dtd">
<svg width="100%" height="100%" viewBox="0 0 77 36" version="1.1" xmlns="http://www.w3.org/2000/svg" xmlns:xlink="http://www.w3.org/1999/xlink" xml:space="preserve" xmlns:serif="http://www.serif.com/" style="fill-rule:evenodd;clip-rule:evenodd;stroke-linejoin:round;stroke-miterlimit:2;">
    <g transform="matrix(1,0,0,1,-0.589844,-0.102784)">
        <path d="M39.608,14.643C39,16.194 37.485,17.217 35.797,17.217C30.002,17.267 18.683,17.267 18.683,17.267C17.549,17.267 16.555,16.522 16.253,15.447C15.951,14.371 16.415,13.229 17.388,12.656L36.523,1.375C38.986,-0.076 42,-0.299 44.656,0.775L76.187,13.529C77.058,13.881 77.555,14.792 77.372,15.701C77.19,16.612 76.379,17.267 75.437,17.267L57.775,17.267C56.065,17.267 54.531,16.231 53.915,14.661C52.88,11.777 50.074,9.732 46.786,9.732C43.498,9.732 40.692,11.777 39.608,14.643ZM36.489,20.918C37.218,19.655 38.579,18.874 40.054,18.874C45.974,18.836 59.317,18.835 59.317,18.835C60.45,18.835 61.445,19.581 61.747,20.656C62.05,21.731 61.585,22.874 60.613,23.447L41.478,34.728C39.015,36.179 35.999,36.402 33.344,35.328L1.813,22.574C0.941,22.222 0.445,21.311 0.627,20.402C0.81,19.491 1.621,18.835 2.563,18.835L19.371,18.835C20.846,18.835 22.208,19.609 22.949,20.866C24.264,23.22 26.9,24.803 29.793,24.803C32.672,24.803 35.183,23.234 36.489,20.918Z"/>
    </g>
</svg>
