<svg width="38" height="38" viewBox="0 0 38 38" fill="none" xmlns="http://www.w3.org/2000/svg">
<path d="M19 33.25C26.8701 33.25 33.25 26.8701 33.25 19C33.25 11.1299 26.8701 4.75 19 4.75C11.1299 4.75 4.75 11.1299 4.75 19C4.75 26.8701 11.1299 33.25 19 33.25Z" stroke="#14397F" stroke-width="2.5" stroke-miterlimit="10"/>
<path d="M19 23.75C22.2792 23.75 24.9375 21.0917 24.9375 17.8125C24.9375 14.5333 22.2792 11.875 19 11.875C15.7208 11.875 13.0625 14.5333 13.0625 17.8125C13.0625 21.0917 15.7208 23.75 19 23.75Z" stroke="#14397F" stroke-width="2.5" stroke-miterlimit="10"/>
<path d="M9.46973 29.5946C10.3642 27.8359 11.7279 26.3591 13.4099 25.3275C15.0919 24.296 17.0265 23.75 18.9995 23.75C20.9726 23.75 22.9072 24.296 24.5892 25.3275C26.2711 26.359 27.6349 27.8359 28.5294 29.5945" stroke="#14397F" stroke-width="2.5" stroke-linecap="round" stroke-linejoin="round"/>
</svg>
