<svg width="306" height="306" viewBox="0 0 306 306" fill="none" xmlns="http://www.w3.org/2000/svg">
<path d="M147.14 144.799C147.7 144.97 148.303 144.924 148.83 144.669C149.357 144.415 149.769 143.971 149.983 143.427C150.197 142.882 150.199 142.277 149.986 141.732C149.774 141.186 149.364 140.741 148.838 140.485C148.365 140.298 147.853 140.229 147.347 140.282C146.841 140.335 146.356 140.51 145.931 140.791C145.61 141.086 145.378 141.467 145.262 141.888C145.147 142.31 145.153 142.755 145.279 143.174C145.405 143.592 145.647 143.967 145.976 144.254C146.305 144.542 146.708 144.73 147.14 144.799ZM146.268 142.443C146.268 141.158 148.823 141.005 149.068 142.443C149.542 144.447 146.191 144.325 146.268 142.443ZM145.35 46.8791C142.994 49.6484 143.56 53.2133 147.262 54.9575C148.1 54.7415 148.955 54.5982 149.818 54.5291C150.801 54.5936 151.777 54.7317 152.74 54.9422C153.761 54.3287 154.554 53.4001 155.001 52.2962C155.448 51.1924 155.525 49.9731 155.218 48.8222C154.934 47.8213 154.377 46.9186 153.612 46.2139C152.846 45.5092 151.9 45.0298 150.879 44.8288C149.858 44.6277 148.801 44.7128 147.826 45.0746C146.85 45.4365 145.993 46.061 145.35 46.8791ZM144.493 73.4399C144.475 73.3497 144.427 73.2684 144.355 73.2101C144.284 73.1517 144.195 73.1198 144.103 73.1198C144.011 73.1198 143.922 73.1517 143.851 73.2101C143.78 73.2684 143.731 73.3497 143.713 73.4399C143.599 74.2924 143.533 75.1505 143.514 76.0103C143.554 76.1328 143.632 76.2394 143.737 76.315C143.841 76.3905 143.967 76.4312 144.095 76.4312C144.224 76.4312 144.35 76.3905 144.454 76.315C144.559 76.2394 144.637 76.1328 144.677 76.0103C144.753 75.7502 144.493 73.7 144.493 73.4399ZM156.565 73.7153C156.547 73.6251 156.498 73.5438 156.427 73.4855C156.356 73.4271 156.267 73.3952 156.175 73.3952C156.083 73.3952 155.994 73.4271 155.922 73.4855C155.851 73.5438 155.803 73.6251 155.785 73.7153C155.785 73.9295 155.524 75.995 155.601 76.2857C155.641 76.4082 155.719 76.5148 155.824 76.5904C155.928 76.6659 156.054 76.7066 156.182 76.7066C156.311 76.7066 156.437 76.6659 156.541 76.5904C156.646 76.5148 156.724 76.4082 156.764 76.2857C156.84 75.995 156.565 73.9448 156.565 73.7153ZM144.6 68.4062C142.764 68.2532 141.923 71.099 141.892 71.2214C141.866 71.3087 141.875 71.4028 141.918 71.4832C141.961 71.5635 142.034 71.6235 142.122 71.6498C142.209 71.6762 142.303 71.6668 142.383 71.6238C142.464 71.5808 142.524 71.5076 142.55 71.4203C142.642 71.1908 143.621 69.5231 144.769 69.5843C145.35 69.6302 145.641 68.4827 144.6 68.4062ZM157.024 71.6345C156.996 71.0954 156.803 70.5777 156.472 70.1511C156.141 69.7245 155.688 69.4093 155.173 69.2477C155.018 69.2071 154.854 69.2295 154.717 69.3098C154.579 69.3902 154.479 69.5219 154.438 69.6761C154.398 69.8303 154.42 69.9943 154.5 70.1321C154.581 70.2698 154.712 70.37 154.867 70.4105C155.243 70.5442 155.579 70.7695 155.847 71.066C156.114 71.3625 156.303 71.7209 156.397 72.1088C156.421 72.192 156.477 72.2621 156.553 72.3037C156.629 72.3453 156.719 72.355 156.802 72.3307C156.885 72.3063 156.955 72.2499 156.997 72.1739C157.039 72.0979 157.048 72.0084 157.024 71.9252C157.024 71.9252 157.054 71.7569 157.024 71.6345ZM149.94 79.7588C150.001 79.7387 150.055 79.6998 150.092 79.6476C150.13 79.5954 150.15 79.5326 150.15 79.4681C150.15 79.4037 150.13 79.3409 150.092 79.2887C150.055 79.2365 150.001 79.1976 149.94 79.1774C149.236 79.0397 148.41 78.9938 148.41 78.3053C148.491 77.4464 148.624 76.5931 148.808 75.7502C148.816 75.6742 148.797 75.5976 148.754 75.5342C148.712 75.4709 148.647 75.4249 148.574 75.4046C148.5 75.3844 148.421 75.3911 148.352 75.4236C148.283 75.4561 148.227 75.5122 148.196 75.5819C147.815 76.5684 147.548 77.595 147.4 78.6419C147.431 79.5599 148.41 80.2484 149.94 79.7588ZM151.852 81.7631C151.516 82.1276 151.102 82.4128 150.642 82.598C150.181 82.7833 149.686 82.8639 149.19 82.8341C148.851 82.7772 148.527 82.6498 148.24 82.4601C147.952 82.2703 147.708 82.0225 147.523 81.7325C147.48 81.6534 147.408 81.5944 147.322 81.5686C147.236 81.5428 147.143 81.5522 147.064 81.5948C146.984 81.6374 146.926 81.7097 146.9 81.7958C146.874 81.8819 146.883 81.9747 146.926 82.0538C147.171 82.5843 147.554 83.0388 148.036 83.3694C148.517 83.7 149.079 83.8944 149.662 83.932C150.245 83.9696 150.828 83.8491 151.348 83.5831C151.868 83.3172 152.307 82.9157 152.617 82.421C152.816 81.9161 152.266 81.3959 151.852 81.7631ZM151.684 172.676C151.722 172.702 151.768 172.716 151.814 172.716C151.861 172.716 151.906 172.702 151.944 172.676C153.581 171.651 165.898 161.859 166.908 160.987C166.941 160.955 166.965 160.915 166.975 160.87C166.986 160.825 166.982 160.779 166.966 160.736C166.949 160.693 166.92 160.656 166.883 160.63C166.845 160.604 166.801 160.589 166.755 160.589C166.755 160.589 141.51 160.099 137.057 159.946C136.797 159.946 136.751 160.222 136.889 160.344C137.7 161.14 147.477 169.447 151.684 172.676ZM204.867 290.532C206.014 288.191 203.872 284.259 202.909 282.667C202.89 282.629 202.86 282.596 202.824 282.573C202.787 282.55 202.745 282.538 202.702 282.538C202.659 282.538 202.617 282.55 202.58 282.573C202.544 282.596 202.514 282.629 202.495 282.667C201.715 284.197 200.078 288.206 201.639 290.516C202.694 292.23 204.041 292.352 204.867 290.532ZM111.69 274.084C111.537 274.176 100.337 280.617 99.909 281.275C99.4806 281.933 99.4959 282.423 100.077 282.469C104.667 282.759 106.427 283.142 106.61 283.356C106.901 284.381 107.222 288.543 107.834 289.369C107.9 289.471 107.993 289.552 108.103 289.602C108.213 289.652 108.335 289.669 108.455 289.651C108.575 289.633 108.687 289.581 108.777 289.501C108.868 289.421 108.934 289.317 108.967 289.201C109.609 286.783 111.629 279.256 112.027 278.016C112.424 276.777 113.098 273.579 111.69 274.084ZM111.476 275.522C111.323 276.532 110.588 279.454 108.416 286.921C108.236 285.363 107.908 283.826 107.437 282.331C105.606 281.783 103.715 281.46 101.806 281.367C104.958 279.409 108.263 277.527 111.43 275.522H111.476ZM119.6 280.403C119.726 280.391 119.844 280.337 119.934 280.248C120.024 280.16 120.081 280.043 120.096 279.917C120.11 279.792 120.081 279.665 120.013 279.558C119.945 279.452 119.842 279.372 119.722 279.332C119.157 279.167 118.567 279.094 117.978 279.118V276.899C117.978 276.794 117.936 276.693 117.862 276.618C117.787 276.543 117.686 276.502 117.58 276.502C117.475 276.502 117.374 276.543 117.299 276.618C117.225 276.693 117.183 276.794 117.183 276.899C117.183 277.695 117.045 278.429 116.984 279.179C116.265 279.179 115.546 279.317 114.796 279.424C114.046 279.531 114.367 280.388 114.918 280.342C115.565 280.304 116.214 280.304 116.861 280.342C116.861 281.015 116.724 281.734 116.693 282.423C116.717 282.582 116.798 282.727 116.92 282.832C117.042 282.937 117.198 282.995 117.359 282.995C117.52 282.995 117.675 282.937 117.797 282.832C117.92 282.727 118 282.582 118.024 282.423V280.388C118.549 280.427 119.075 280.432 119.6 280.403ZM156.458 272.034C156.327 271.649 156.083 271.312 155.759 271.066C155.434 270.821 155.043 270.678 154.637 270.657C153.229 270.657 151.914 272.386 150.797 273.992H150.69C149.603 273.227 149.267 273.227 148.257 274.298C146.911 275.752 147.477 276.012 149.221 277.358C148.043 278.995 145.075 283.218 144.631 283.983C144.187 284.748 142.887 286.906 144.325 288.099C144.62 288.31 144.977 288.417 145.34 288.404C145.703 288.39 146.051 288.256 146.329 288.022C148.551 285.328 150.596 282.491 152.449 279.531C153.979 280.449 154.102 280.633 155.295 279.653C155.468 279.54 155.613 279.389 155.719 279.211C155.825 279.034 155.89 278.834 155.907 278.628C155.907 277.879 155.004 277.358 154.377 276.853C154.912 276.073 155.387 275.323 155.815 274.543C156.099 274.197 156.304 273.793 156.415 273.36C156.526 272.926 156.541 272.474 156.458 272.034ZM151.623 274.558C152.13 273.873 152.671 273.215 153.245 272.585C153.994 271.774 154.545 271.575 155.05 271.927C155.907 272.493 155.433 272.998 153.673 276.196L151.623 274.558ZM145.12 287.319C144.248 287.12 144.814 285.789 145.228 284.993C145.641 284.197 148.747 279.699 149.94 277.879C150.414 278.215 151.21 278.735 151.592 278.965C150.552 280.74 147.599 285.085 147.002 285.758C146.406 286.431 145.855 287.487 145.12 287.319ZM149.481 274.344L149.726 274.436C149.971 274.528 154.958 278.598 154.958 278.689C154.736 279.019 154.443 279.296 154.102 279.5C153.52 279.041 149.909 276.593 148.563 275.538C148.843 275.121 149.15 274.722 149.481 274.344ZM183.233 281.979C183.233 281.979 190.179 289.43 190.791 289.629C191.816 289.904 197.355 283.509 198.089 282.652C198.808 283.264 199.175 283.371 199.986 282.56C200.488 282.036 200.906 281.437 201.226 280.786C201.279 280.685 201.299 280.57 201.282 280.457C201.266 280.344 201.214 280.239 201.134 280.158C193.346 272.263 191.954 270.795 191.632 270.672C190.623 270.244 190.102 271.483 189.506 271.927C188.68 272.722 188.236 272.967 189.598 274.497C183.386 281.229 182.896 281.183 183.233 281.979ZM189.781 272.998C190.189 272.527 190.645 272.102 191.143 271.728C191.143 271.728 195.733 276.318 200.078 280.602C199.8 281.12 199.461 281.603 199.068 282.04C198.9 281.872 190.026 273.258 189.72 272.998H189.781ZM197.431 281.948C190.76 289.017 191.434 288.742 190.73 288.068C190.317 287.716 185.191 282.438 184.411 281.535C184.962 280.923 190.041 275.415 190.378 275.109C190.301 275.17 196.33 281 197.37 281.948H197.431Z" fill="#14397F"/>
<path d="M189.353 278.72C187.823 280.342 186.63 280.816 186.798 281.688C187.545 282.796 188.407 283.821 189.368 284.748C189.427 284.796 189.5 284.823 189.576 284.824C189.652 284.825 189.726 284.801 189.786 284.755C189.846 284.709 189.889 284.644 189.907 284.571C189.926 284.497 189.919 284.42 189.889 284.351C189.889 284.351 188.68 282.285 188.16 281.597C188.282 281.444 189.583 279.699 189.935 279.302C190.012 279.225 190.055 279.12 190.055 279.011C190.055 278.902 190.012 278.797 189.935 278.72C189.857 278.643 189.753 278.6 189.644 278.6C189.535 278.6 189.43 278.643 189.353 278.72Z" fill="#14397F"/>
<path d="M211.936 297.493L174.42 297.249C174.42 294.632 173.579 272.906 173.517 271.055C173.517 270.489 172.615 270.489 172.645 271.055C172.645 272.585 173.196 295.81 173.273 297.233H132.437C132.437 294.755 132.039 275.308 132.009 273.977C132.009 273.868 131.965 273.763 131.888 273.685C131.81 273.608 131.705 273.564 131.595 273.564C131.486 273.564 131.381 273.608 131.303 273.685C131.226 273.763 131.182 273.868 131.182 273.977V297.233C128 297.233 94.4624 297.233 89.8724 297.57C89.7745 297.589 89.6862 297.641 89.6228 297.718C89.5593 297.794 89.5246 297.891 89.5246 297.991C89.5246 298.09 89.5593 298.187 89.6228 298.264C89.6862 298.34 89.7745 298.393 89.8724 298.411C93.9575 298.595 208.264 298.809 212.012 297.937C212.062 297.918 212.103 297.882 212.13 297.836C212.156 297.79 212.165 297.736 212.156 297.684C212.147 297.631 212.12 297.584 212.08 297.549C212.04 297.514 211.989 297.495 211.936 297.493ZM101.898 21.4202C102.25 22.0322 105.83 22.2311 106.152 22.1087C106.363 22.0346 106.545 21.8953 106.672 21.7109C107.885 22.7231 109.157 23.6631 110.481 24.5261C110.67 24.6787 110.889 24.7902 111.124 24.8534C111.358 24.9167 111.603 24.9302 111.843 24.8933C112.486 24.7097 124.557 17.5187 124.741 17.3963C125.537 16.9067 125.552 16.4171 125.445 16.0958C125.215 15.4685 112.884 9.68506 110.91 7.52776C110.853 7.48636 110.788 7.45668 110.719 7.44042C110.65 7.42416 110.579 7.42165 110.51 7.43302C110.44 7.4444 110.373 7.46944 110.313 7.5067C110.253 7.54397 110.201 7.59273 110.16 7.65016C108.63 9.40966 107.268 11.2151 105.876 13.0052C104.474 12.962 103.073 13.1165 101.715 13.4642C101.565 16.1168 101.626 18.7772 101.898 21.4202ZM112.409 16.8302C112.253 17.2575 111.956 17.619 111.568 17.8553C110.803 18.1154 110.038 17.3963 109.778 17.075C108.936 16.0958 110.849 14.015 112.119 15.6521C112.277 15.8177 112.388 16.0233 112.439 16.2469C112.49 16.4705 112.48 16.7038 112.409 16.922V16.8302ZM111.308 13.9997C110.85 13.9192 110.379 13.9676 109.946 14.1393C109.514 14.3111 109.139 14.5995 108.861 14.9723C108.583 15.3452 108.415 15.7879 108.374 16.2511C108.333 16.7142 108.422 17.1795 108.63 17.5952C108.942 18.109 109.399 18.5195 109.943 18.7753C110.488 19.0311 111.095 19.1208 111.69 19.0334C112.101 18.8835 112.466 18.6301 112.75 18.2977C113.034 17.9654 113.228 17.5653 113.312 17.1362C114.995 17.1362 120.778 17.1362 123.089 17.0291L111.69 23.6693C111.048 23.3939 107.284 20.6093 106.825 20.2421C106.825 19.4006 106.825 14.3669 106.718 13.556C108.003 12.026 109.319 10.3889 110.573 8.75176C112.44 10.2818 121.054 14.8718 123.578 16.2029H113.358C113.291 15.6762 113.055 15.1855 112.685 14.8047C112.316 14.4238 111.832 14.1735 111.308 14.0915V13.9997ZM102.74 14.2751L105.57 14.168C105.57 14.6423 105.754 20.288 105.677 21.0836C104.711 21.1472 103.741 21.101 102.786 20.9459C102.877 19.8902 102.801 15.5603 102.74 14.3669V14.2751ZM54.8354 94.7072C54.9958 94.7998 55.1779 94.8486 55.3632 94.8486C55.5485 94.8486 55.7306 94.7998 55.8911 94.7072C57.0998 94.1105 59.5019 92.0144 66.5093 87.3785C66.7149 87.2668 66.8922 87.1094 67.0275 86.9184C67.1628 86.7274 67.2524 86.5079 67.2896 86.2769C67.2896 86.2769 67.5497 79.7438 67.1825 79.5296C66.0044 78.7952 62.5925 76.4696 61.6133 76.6226C61.4909 76.6226 48.5777 84.6704 48.5471 85.0529C48.4192 86.7225 48.3936 88.3985 48.4706 90.0713C50.4889 91.7536 52.615 93.3022 54.8354 94.7072ZM49.4039 86.1086C50.582 86.9042 53.8715 89.1686 54.7742 89.6276V93.116C49.052 89.291 49.4192 89.9336 49.4651 88.8014C49.4804 88.1741 49.4345 86.7053 49.4039 86.1086ZM55.4015 88.3577C55.304 88.4297 55.186 88.4686 55.0649 88.4686C54.9437 88.4686 54.8257 88.4297 54.7283 88.3577C54.4835 88.2047 51.0563 85.7567 50.1383 85.0988C62.1641 77.4488 61.7357 77.357 62.3783 77.5865C62.6843 77.7089 64.1225 78.6269 66.0656 79.9121C63.7706 81.8705 55.631 88.2047 55.4015 88.3577ZM66.1115 86.3228C65.7902 86.6288 57.5129 92.1215 55.6769 93.3149V89.4899C56.7632 88.6637 63.9389 83.0333 66.1727 81.1208C66.2339 86.1698 66.3257 86.1698 66.188 86.3228H66.1115ZM224.421 95.6405C227.278 95.5738 230.058 94.6985 232.438 93.116C233.625 92.368 234.519 91.2347 234.97 89.9061C235.422 88.5775 235.402 87.1341 234.916 85.8179C235.926 85.0529 239.154 82.3142 239.782 81.7175C241.082 81.794 242.597 79.4837 243.408 78.2291C243.744 77.7089 244.188 77.1734 243.959 76.5767C241.893 74.3906 239.707 72.3218 237.41 70.3802C237.257 70.2178 237.057 70.1059 236.839 70.0594C236.62 70.013 236.393 70.0341 236.186 70.1201C234.663 71.5974 233.289 73.222 232.086 74.9702C232.033 75.1967 232.06 75.4345 232.162 75.6434C232.162 75.7505 230.036 81.9164 229.776 82.6661C228.631 82.7816 227.567 83.3123 226.787 84.1578C226.006 85.0034 225.562 86.1054 225.537 87.2561C225.354 91.7237 228.888 93.1619 224.283 94.8143C224.219 94.8691 224.17 94.9395 224.142 95.0187C224.113 95.0979 224.105 95.1831 224.119 95.2662C224.133 95.3492 224.168 95.4273 224.221 95.4929C224.273 95.5584 224.342 95.6093 224.421 95.6405ZM233.264 75.2456C234.258 73.7853 235.43 72.4542 236.752 71.2829C237.579 71.9408 242.352 76.3472 242.872 77.0663C242.49 77.7242 240.348 80.5088 239.812 80.57C239.766 80.5241 233.463 75.4292 233.264 75.2456ZM234.366 84.8234C233.586 83.6801 232.388 82.8889 231.03 82.6202C231.336 81.5951 232.453 77.8466 232.836 76.3319C233.998 77.3264 236.875 79.7438 238.634 81.1361C237.946 81.8246 235.345 84.0431 234.366 84.8234ZM226.869 94.4318C228.062 93.3455 227.771 91.9226 227.22 90.5609C226.241 87.5009 226.532 85.5272 228.169 84.4409C228.592 84.1729 229.063 83.9918 229.557 83.9082C230.05 83.8247 230.555 83.8404 231.042 83.9544C231.53 84.0683 231.989 84.2783 232.394 84.572C232.799 84.8657 233.142 85.2372 233.402 85.6649C235.819 89.4746 231.29 93.5597 226.869 94.4318ZM128.765 16.8302C129.392 16.8302 133.064 16.3559 136.415 16.004C136.533 16.004 136.645 15.9572 136.729 15.874C136.812 15.7908 136.859 15.6779 136.859 15.5603C136.859 15.4426 136.812 15.3297 136.729 15.2465C136.645 15.1633 136.533 15.1166 136.415 15.1166C135.16 15.239 129.27 15.5909 128.627 15.7286C128.503 15.77 128.397 15.8531 128.327 15.9638C128.258 16.0745 128.228 16.206 128.245 16.3358C128.261 16.4656 128.322 16.5858 128.416 16.676C128.511 16.7661 128.634 16.8206 128.765 16.8302ZM140.76 15.851C141.173 15.851 149.298 15.1778 151.088 15.2696C151.684 15.2696 151.73 14.3975 151.088 14.3516C147.591 14.181 144.086 14.2936 140.607 14.6882C140.475 14.7315 140.362 14.8197 140.288 14.9374C140.214 15.0552 140.183 15.1951 140.201 15.333C140.22 15.4709 140.285 15.5982 140.387 15.6928C140.489 15.7873 140.621 15.8433 140.76 15.851ZM155.693 14.9789L162.287 14.7953C162.397 14.7754 162.495 14.7178 162.567 14.6325C162.638 14.5472 162.677 14.4397 162.677 14.3286C162.677 14.2175 162.638 14.11 162.567 14.0247C162.495 13.9394 162.397 13.8818 162.287 13.862L155.724 13.6784C155.567 13.6983 155.424 13.7736 155.318 13.8905C155.213 14.0074 155.153 14.1582 155.149 14.3155C155.146 14.4728 155.198 14.6262 155.298 14.7479C155.398 14.8696 155.538 14.9516 155.693 14.9789ZM167.535 15.1931C170.35 15.1931 180.51 15.6674 182.988 16.0958C183.6 16.2182 183.814 15.2696 183.202 15.1625C178.012 14.3732 172.77 13.9743 167.52 13.9691C167.358 13.9711 167.203 14.0375 167.089 14.1537C166.976 14.2699 166.913 14.4264 166.916 14.5887C166.918 14.751 166.984 14.9059 167.1 15.0192C167.216 15.1326 167.373 15.1951 167.535 15.1931ZM187.93 17.84C191.981 19.038 195.723 21.0998 198.9 23.8835C199.39 24.3272 200.078 23.6081 199.604 23.1644C196.395 20.0901 192.489 17.8381 188.221 16.6007C188.066 16.5864 187.912 16.6284 187.786 16.7191C187.66 16.8097 187.571 16.9428 187.536 17.0938C187.501 17.2448 187.521 17.4035 187.593 17.5406C187.666 17.6778 187.785 17.7841 187.93 17.84ZM201.501 38.2502C201.374 38.2811 201.263 38.3574 201.189 38.4645C201.114 38.5717 201.081 38.7024 201.096 38.8321C201.111 38.9617 201.173 39.0815 201.27 39.1687C201.367 39.256 201.493 39.3047 201.624 39.3059C203.643 39.3059 206.015 36.9497 206.214 33.6908C206.412 30.4319 204.179 27.8156 202.037 25.6277C201.945 25.5343 201.821 25.4811 201.69 25.4797C201.56 25.4782 201.434 25.5287 201.341 25.62C201.247 25.7113 201.194 25.836 201.193 25.9665C201.191 26.0971 201.242 26.2228 201.333 26.3162C203.75 28.8254 204.928 31.1204 204.944 33.3542C204.984 34.4344 204.67 35.4982 204.048 36.3826C203.426 37.2669 202.531 37.9229 201.501 38.2502ZM184.809 43.2227C186.339 43.2227 196.422 40.9124 198.089 40.5146C198.206 40.476 198.304 40.395 198.364 40.2875C198.424 40.18 198.441 40.054 198.412 39.9345C198.383 39.815 198.31 39.7107 198.208 39.6424C198.105 39.5741 197.981 39.5468 197.86 39.566C195.58 40.0862 187.532 41.4938 184.702 41.9834C184.553 42.0161 184.421 42.1018 184.331 42.2244C184.241 42.3471 184.199 42.4983 184.212 42.65C184.225 42.8016 184.293 42.9434 184.402 43.0487C184.512 43.1541 184.657 43.2159 184.809 43.2227ZM180.663 42.2129C177.404 42.5648 173.992 42.8708 170.702 43.3604C170.564 43.4018 170.444 43.4896 170.363 43.609C170.282 43.7285 170.245 43.8722 170.257 44.016C170.27 44.1598 170.332 44.2948 170.432 44.3984C170.533 44.5019 170.666 44.5676 170.809 44.5844C171.743 44.5844 179.209 43.6052 180.708 43.4216C181.489 43.3145 181.443 42.1058 180.663 42.2129ZM157.59 46.1297C158.478 46.1297 164.598 45.1352 166.02 44.9363C166.14 44.9062 166.244 44.8336 166.314 44.7321C166.383 44.6306 166.413 44.5071 166.398 44.385C166.383 44.2628 166.324 44.1504 166.232 44.0688C166.14 43.9872 166.021 43.942 165.898 43.9418C164.031 44.156 159.304 44.5691 157.468 44.8904C157.318 44.9238 157.186 45.0108 157.096 45.1349C157.007 45.2591 156.965 45.4117 156.98 45.5642C156.996 45.7166 157.066 45.8583 157.178 45.9625C157.29 46.0666 157.437 46.1261 157.59 46.1297ZM132.054 48.3329C135.329 48.3329 138.679 47.7515 141.923 47.4455C142.596 47.4455 142.596 46.3286 141.923 46.3898C138.664 46.6499 135.252 46.7876 131.963 47.2466C131.305 47.3231 131.381 48.3329 132.054 48.3329ZM115.928 49.7405C115.794 49.7723 115.676 49.8521 115.596 49.9649C115.517 50.0777 115.481 50.2157 115.496 50.353C115.511 50.4902 115.576 50.6173 115.678 50.7101C115.78 50.803 115.913 50.8554 116.051 50.8574C117.091 50.8574 125.491 49.6181 126.761 49.4498C126.894 49.4183 127.012 49.338 127.089 49.2246C127.167 49.1111 127.199 48.9728 127.18 48.8368C127.161 48.7007 127.091 48.5768 126.986 48.4892C126.88 48.4016 126.745 48.3568 126.608 48.3635C124.603 48.6083 117.627 49.3886 115.928 49.7405ZM92.6264 54.1163C98.564 52.8703 104.566 51.9509 110.604 51.3623C111.399 51.3623 111.369 50.0618 110.604 50.1383C104.49 50.5025 98.4246 51.4451 92.4887 52.9535C92.3571 52.9959 92.2444 53.0828 92.1697 53.1991C92.0951 53.3155 92.0632 53.4542 92.0794 53.5915C92.0957 53.7288 92.1591 53.8562 92.2589 53.9519C92.3586 54.0476 92.4885 54.1057 92.6264 54.1163ZM72.155 62.0111C76.235 59.5665 80.6914 57.814 85.3436 56.8244C86.1545 56.6561 85.8332 55.4321 85.0376 55.6004C80.2467 56.5515 75.6558 58.3217 71.4665 60.833C71.3352 60.9356 71.2456 61.0823 71.2143 61.2459C71.183 61.4095 71.212 61.5789 71.2961 61.7228C71.3801 61.8666 71.5135 61.9751 71.6714 62.0281C71.8294 62.0811 72.0012 62.075 72.155 62.0111ZM59.2265 74.3123C60.9152 69.764 64.17 65.9667 68.4065 63.6023C68.9726 63.2963 68.4983 62.4548 67.9169 62.7455C63.3043 65.0383 59.7611 69.0313 58.0331 73.8839C57.7424 74.7407 58.9358 75.0773 59.2265 74.3123ZM62.5619 92.6111C62.1029 92.0909 61.3685 92.81 61.7969 93.3149C62.8679 94.5542 68.5136 98.8994 69.6611 98.8994C69.7815 98.8984 69.8982 98.8579 69.9934 98.7843C70.0887 98.7106 70.1572 98.6078 70.1884 98.4915C70.2196 98.3752 70.2119 98.2519 70.1664 98.1404C70.1209 98.029 70.0401 97.9355 69.9365 97.8743C67.3412 96.3203 64.8751 94.5602 62.5619 92.6111ZM83.8901 102.418C80.4365 102.077 77.0562 101.205 73.8686 99.8327C73.1648 99.5267 72.5834 100.567 73.3025 100.904C76.615 102.473 80.1888 103.417 83.8442 103.688C84.6857 103.734 84.6857 102.51 83.8901 102.418ZM87.2102 104.514C88.985 104.775 96.2219 105.953 98.0579 106.044C98.2099 106.049 98.3582 105.997 98.4739 105.898C98.5895 105.799 98.6641 105.661 98.6832 105.51C98.7023 105.359 98.6645 105.206 98.5772 105.081C98.4899 104.957 98.3593 104.869 98.2109 104.836C96.4514 104.469 89.2757 103.612 87.5009 103.306C86.7818 103.29 86.4911 104.392 87.2102 104.514ZM110.787 106.381C107.819 106.645 104.828 106.396 101.944 105.647C101.824 105.633 101.703 105.663 101.603 105.731C101.503 105.799 101.431 105.9 101.4 106.017C101.368 106.133 101.38 106.257 101.432 106.366C101.484 106.475 101.573 106.562 101.684 106.611C104.662 107.478 107.773 107.795 110.864 107.544C111.552 107.467 111.537 106.335 110.787 106.381ZM212.471 98.8688C215.66 98.5194 218.803 97.8374 221.85 96.8339C222.493 96.6197 222.217 95.6099 221.559 95.8088C218.587 96.6726 215.539 97.2465 212.456 97.5224C211.569 97.6142 211.584 98.9453 212.471 98.8688ZM198.273 100.032C198.15 100.071 198.044 100.151 197.972 100.259C197.901 100.368 197.869 100.497 197.882 100.626C197.894 100.754 197.95 100.875 198.041 100.967C198.132 101.06 198.251 101.118 198.38 101.133C199.497 101.133 207.132 99.7868 208.432 99.6032C209.182 99.4655 208.891 98.3792 208.172 98.4863C204.225 99.0524 201.287 99.4502 198.273 100.032ZM194.31 100.506C190.5 101.179 186.66 101.577 183.019 101.929C182.223 102.021 182.254 103.245 183.019 103.183C186.873 102.873 190.708 102.362 194.509 101.653C194.584 101.64 194.656 101.613 194.721 101.572C194.786 101.531 194.842 101.478 194.886 101.415C194.93 101.352 194.961 101.282 194.978 101.207C194.995 101.133 194.996 101.056 194.983 100.98C194.97 100.905 194.943 100.833 194.902 100.768C194.861 100.704 194.808 100.648 194.745 100.604C194.682 100.56 194.612 100.528 194.537 100.511C194.463 100.495 194.386 100.493 194.31 100.506ZM82.5284 155.035C83.2016 155.035 83.2322 154.086 82.5284 153.995C79.4243 153.532 76.2688 153.532 73.1648 153.995C73.0177 154.027 72.8884 154.114 72.8027 154.237C72.7169 154.361 72.6811 154.513 72.7024 154.662C72.7237 154.811 72.8005 154.946 72.9174 155.041C73.0344 155.136 73.1829 155.183 73.3331 155.173C76.388 154.854 79.4653 154.808 82.5284 155.035ZM218.377 154.224C218.25 154.264 218.141 154.346 218.067 154.457C217.993 154.568 217.96 154.701 217.972 154.834C217.985 154.966 218.043 155.09 218.136 155.186C218.229 155.281 218.352 155.341 218.484 155.356C218.637 155.356 226.7 155.127 228.643 155.356C229.164 155.433 229.332 154.637 228.812 154.561C225.349 154.157 221.859 154.044 218.377 154.224ZM214.2 155.433C214.322 155.433 214.439 155.384 214.525 155.298C214.611 155.212 214.659 155.096 214.659 154.974C214.659 154.852 214.611 154.735 214.525 154.649C214.439 154.563 214.322 154.515 214.2 154.515C211.945 154.369 209.681 154.528 207.468 154.989C206.81 155.127 206.994 156.091 207.621 156.091C209.779 155.604 211.989 155.383 214.2 155.433ZM249.023 174.42C248.901 175.032 249.788 175.415 250.048 174.818C251.364 171.85 252.022 167.306 250.369 164.108C250.048 163.496 249.13 164.016 249.436 164.628C251.287 168.3 249.513 172.049 249.023 174.42ZM64.2602 220.32C62.1075 222.109 60.3071 224.283 58.9511 226.731C58.9209 226.781 58.901 226.837 58.8924 226.895C58.8837 226.953 58.8866 227.012 58.9008 227.069C58.9295 227.183 59.0026 227.282 59.1041 227.343C59.2055 227.404 59.327 227.422 59.4418 227.393C59.5565 227.364 59.6552 227.291 59.7161 227.19C61.1159 224.883 62.9074 222.838 65.0099 221.146C65.6219 220.703 64.8722 219.907 64.2602 220.32ZM74.4806 211.339C72.3842 212.907 70.391 214.609 68.5136 216.434C68.4223 216.527 68.3718 216.653 68.3732 216.784C68.3746 216.914 68.4279 217.039 68.5212 217.13C68.6145 217.221 68.7403 217.272 68.8709 217.27C69.0014 217.269 69.1261 217.216 69.2174 217.122C70.0742 216.22 74.6795 212.624 75.1385 212.242C75.5975 211.859 75.0467 211.14 74.4806 211.339ZM79.0706 208.554C79.3919 208.554 78.4433 208.86 84.1502 205.097C84.2692 205.014 84.3533 204.891 84.3859 204.75C84.4185 204.609 84.3974 204.46 84.3266 204.334C84.2558 204.208 84.1405 204.113 84.0032 204.067C83.8659 204.021 83.7164 204.028 83.5841 204.087C81.8979 205.236 80.288 206.493 78.7646 207.851C78.7132 207.912 78.6799 207.986 78.6683 208.065C78.6568 208.144 78.6676 208.224 78.6994 208.297C78.7312 208.371 78.7828 208.433 78.8484 208.479C78.9139 208.524 78.9909 208.55 79.0706 208.554Z" fill="#14397F"/>
<path d="M86.8889 202.496C87.2867 202.664 87.0266 202.496 91.8461 199.436C91.5358 203.278 91.5922 207.141 92.0144 210.972C89.6272 209.675 87.3364 208.207 85.16 206.581C84.7469 206.26 84.1961 206.841 84.6245 207.193C87.0021 209.23 89.563 211.043 92.2745 212.609C94.2798 227.84 102.05 241.722 113.985 251.395C108.508 252.68 105.05 253.399 103.704 253.537C103.122 253.537 103.122 254.485 103.704 254.485C105.035 254.485 113.511 252.833 115.301 252.466C137.272 269.953 166.158 268.24 187.211 252.129C191.426 253.243 195.709 254.081 200.032 254.638C200.167 254.628 200.293 254.572 200.39 254.479C200.488 254.386 200.55 254.262 200.566 254.129C200.582 253.995 200.552 253.86 200.479 253.746C200.407 253.633 200.298 253.548 200.17 253.506C198.273 253.185 192.948 252.175 188.358 251.226C199.869 242.11 207.54 229.006 209.855 214.506C210.436 214.139 211.002 213.741 211.553 213.328C212.104 212.915 211.553 211.951 210.957 212.334L210.084 212.869C211.951 196.621 206.229 180.433 196.116 168.27C198.992 165.103 200.996 161.354 199.818 157.192C201.268 156.75 202.745 156.403 204.24 156.152C204.913 156.06 204.668 155.066 204.026 155.158C202.476 155.356 200.942 155.662 199.436 156.076C198.318 153.305 196.399 150.931 193.924 149.257C191.449 147.584 188.531 146.687 185.543 146.681C187.987 144.112 189.781 140.995 190.774 137.59C191.766 134.186 191.93 130.593 191.25 127.113C188.42 114.108 178.306 101.745 165.577 94.6307C165.889 92.909 165.794 91.1382 165.301 89.4593C164.965 87.9293 163.955 87.4091 162.777 86.6441C162.165 86.2463 161.583 85.8791 160.941 85.5119C162.629 82.885 163.512 79.8216 163.481 76.6991C166.923 76.3625 167.046 71.3441 163.266 70.5791C167.107 52.5557 133.768 49.4957 135.726 71.1605C135.047 71.3544 134.439 71.7407 133.975 72.2729C133.51 72.805 133.21 73.4602 133.11 74.1593C133.02 74.6386 133.048 75.1328 133.194 75.5983C133.34 76.0637 133.598 76.486 133.946 76.8279C134.294 77.1697 134.721 77.4206 135.189 77.5583C135.657 77.6959 136.152 77.7161 136.629 77.6171C136.489 79.5983 136.902 81.5795 137.823 83.3393C137.057 83.5153 136.344 83.8707 135.743 84.3761C135.142 84.8815 134.67 85.5225 134.365 86.2463C133.687 88.1773 133.554 90.2579 133.982 92.2592C121.819 97.8083 112.093 107.599 106.626 119.799C102.296 129.668 104.407 136.889 112.057 144.417C108.631 143.312 104.929 143.426 101.577 144.738C99.4747 145.642 97.5947 146.994 96.0675 148.698C94.5403 150.402 93.4026 152.418 92.7335 154.607C91.2617 154.371 89.7673 154.31 88.2812 154.423C88.1795 154.442 88.0877 154.496 88.0217 154.576C87.9556 154.656 87.9195 154.756 87.9195 154.859C87.9195 154.963 87.9556 155.063 88.0217 155.142C88.0877 155.222 88.1795 155.276 88.2812 155.295C89.6906 155.235 91.1007 155.401 92.4581 155.785C91.4024 162.226 96.8645 167.673 102.174 171.498C96.4757 179.239 92.9666 188.371 92.0144 197.936C90.219 199.03 88.4873 200.226 86.8277 201.517C86.7403 201.568 86.669 201.643 86.6215 201.733C86.574 201.822 86.5522 201.924 86.5585 202.025C86.5649 202.126 86.5991 202.224 86.6574 202.307C86.7156 202.39 86.7958 202.455 86.8889 202.496ZM154.53 89.6582L155.173 89.4593C155.525 89.8265 156.473 90.6527 157.055 91.1423C152.511 93.5291 146.88 93.3302 141.005 90.4691C141.663 89.8724 142.734 88.7861 143.132 88.3271C144.184 88.73 145.256 89.0773 146.345 89.3675C146.791 90.0297 147.388 90.5768 148.087 90.9642C148.785 91.3516 149.565 91.5684 150.363 91.5967C151.162 91.6251 151.955 91.4642 152.679 91.1273C153.403 90.7904 154.038 90.287 154.53 89.6582ZM142.29 87.8987C141.77 88.4801 140.607 89.7194 140.225 90.0407C139.796 89.8061 139.368 89.5613 138.939 89.3063C138.856 89.2556 138.756 89.24 138.662 89.263C138.567 89.2859 138.485 89.3456 138.435 89.4287C138.384 89.5119 138.368 89.6119 138.391 89.7065C138.414 89.8012 138.474 89.8829 138.557 89.9336C142.275 92.3204 145.901 94.1258 150.292 94.1258C152.071 94.2102 153.846 93.8954 155.488 93.2044C157.129 92.5134 158.595 91.4638 159.778 90.1325C159.841 90.0676 159.875 89.9804 159.874 89.89C159.873 89.7996 159.835 89.7135 159.77 89.6506C159.705 89.5877 159.618 89.5532 159.528 89.5546C159.437 89.556 159.351 89.5933 159.288 89.6582C158.874 90.0001 158.44 90.3168 157.988 90.6068C157.575 90.2549 156.626 89.4899 156.167 89.0768C157.724 88.4892 159.137 87.5764 160.314 86.3993C161.843 87.0483 163.216 88.0188 164.337 89.2451C164.9 90.9119 164.99 92.7018 164.598 94.4165C163.19 98.7617 151.807 103.061 140.118 96.9563C136.002 94.8908 134.273 93.1925 135.007 88.0517C135.062 87.1429 135.411 86.2766 136.002 85.5837C136.593 84.8909 137.393 84.4092 138.282 84.2114C139.29 85.7554 140.668 87.0229 142.29 87.8987ZM154.744 100.98C157.238 100.674 163.159 99.542 165.255 95.6711C177.419 102.403 190.103 117.458 190.393 131.182C190.498 134.199 189.895 137.198 188.633 139.94C187.372 142.682 185.485 145.09 183.126 146.972C180.962 147.37 178.888 148.158 177.006 149.298C178.352 128.505 178.398 129.76 178.245 129.607C178.092 129.454 175.767 129.438 171.972 129.346C172.446 128.75 173.716 127.067 174.007 126.73C174.078 126.655 174.116 126.555 174.113 126.452C174.111 126.348 174.067 126.25 173.992 126.179C173.917 126.108 173.816 126.07 173.713 126.073C173.61 126.076 173.512 126.12 173.441 126.195C172.475 127.267 171.453 128.289 170.381 129.255H170.06C170.45 124.614 170.552 119.954 170.366 115.301C170.366 114.934 169.723 114.934 169.754 115.301C169.907 117.489 168.882 127.296 168.759 129.178C157.361 128.949 138.358 128.75 126.883 128.643C125.477 123.885 124.882 118.925 125.124 113.97C125.124 113.45 124.389 113.45 124.343 113.97C123.849 118.899 124.258 123.876 125.552 128.658H125.231C123.698 127.125 122.242 125.517 120.87 123.838C120.814 123.762 120.732 123.709 120.64 123.689C120.547 123.67 120.45 123.685 120.369 123.733C120.287 123.78 120.225 123.857 120.197 123.947C120.168 124.037 120.173 124.135 120.212 124.221C120.381 124.542 122.217 127.281 123.425 128.719H117.489C117.045 128.719 117.183 128.719 117.152 129.071C116.999 130.8 117.55 140.347 117.978 147.14C117.056 146.565 116.095 146.054 115.102 145.61C107.223 137.869 103.03 131.84 107.314 121.498C112.429 109.041 122.064 98.9788 134.288 93.3302C136.002 96.9869 144.708 102.174 154.744 100.98ZM118.131 129.805C119.876 129.805 173.548 130.28 177.297 130.616C176.577 136.645 175.246 154.454 174.787 160.436H171.437C169.539 162.073 155.463 173.762 154.454 174.619C154.102 174.895 154.744 175.124 156.259 176.486C157.212 177.185 158.011 178.073 158.605 179.094C159.2 180.116 159.579 181.248 159.717 182.422C159.721 182.476 159.745 182.527 159.785 182.564C159.825 182.601 159.877 182.621 159.931 182.621C165.378 182.851 169.983 187.701 166.204 190.699C162.731 193.453 157.361 190.699 154.698 188.16C157.101 185.023 158.508 182.284 155.815 179.454C155.494 179.117 152.036 176.302 147.645 172.722C131.014 159.151 132.345 159.916 132.131 159.916C131.274 159.916 122.186 159.289 120.549 159.197C119.34 149.405 118.453 135.099 118.131 129.805ZM134.135 190.149C131.886 190.317 128.107 190.608 126.485 188.328C125.43 186.798 127.005 185.008 128.704 184.518C132.422 185.865 138.266 187.747 140.163 188.343C138.276 189.295 136.235 189.906 134.135 190.149ZM126.179 189.843C127.709 191.373 130.31 191.556 132.391 191.526C135.786 191.509 139.116 190.596 142.045 188.879C145.396 189.858 148.716 190.699 152.174 191.434C152.215 191.448 152.26 191.448 152.302 191.434C152.343 191.421 152.379 191.394 152.403 191.357C152.985 190.638 153.551 189.827 154.071 189.139C157.59 192.413 163.465 194.57 167.076 191.786C169.738 189.72 169.325 186.186 166.663 183.998C179.331 180.28 189.414 174.94 195.075 169.325C200.359 175.383 204.269 182.513 206.537 190.225C208.806 197.936 209.379 206.047 208.218 214.001C204.986 216.116 201.64 218.052 198.196 219.8C198.113 219.843 198.047 219.913 198.009 219.998C197.97 220.083 197.962 220.179 197.985 220.269C198.008 220.36 198.061 220.44 198.136 220.497C198.21 220.553 198.302 220.583 198.395 220.58C198.594 220.58 204.714 217.627 207.942 215.715C205.3 229.541 197.88 241.997 186.981 250.905C184.518 250.385 182.391 249.895 181.382 249.589C180.831 249.406 180.586 250.232 181.122 250.431C182.055 250.767 183.799 251.242 185.88 251.777C176.011 259.297 163.957 263.39 151.549 263.434C139.142 263.479 127.059 259.471 117.137 252.022C118.971 251.639 120.776 251.127 122.538 250.492C123.211 250.201 122.798 249.207 122.109 249.36L115.745 250.89C104.084 241.53 96.2699 228.211 93.7892 213.466L94.0952 213.604C94.799 213.91 95.3498 212.946 94.6919 212.563L93.5597 211.905C91.5365 197.941 94.9423 183.732 103.076 172.202C110.696 177.076 118.86 181.041 127.403 184.013C124.986 185.237 124.175 187.869 126.179 189.843ZM162.685 76.3013C162.364 79.3613 161.905 82.4213 160.008 84.7775C158.967 86.078 156.749 88.0058 154.928 88.0517C153.719 88.0517 153.291 87.3479 152.511 86.5217C151.485 85.3283 150.981 84.701 150.43 84.7928C149.206 84.9458 149.42 87.2561 147.462 88.4036C146.865 88.7402 144.784 88.1435 143.193 87.3785C141.328 86.4534 139.79 84.9799 138.786 83.1558C137.783 81.3316 137.361 79.2441 137.578 77.1734C137.578 76.8062 137.042 76.5767 136.828 76.6838C136.496 76.7988 136.139 76.827 135.793 76.7656C135.446 76.7043 135.121 76.5554 134.848 76.3332C134.576 76.111 134.364 75.8228 134.234 75.4959C134.104 75.169 134.059 74.8142 134.105 74.4653C134.686 71.4053 138.113 72.1703 139.016 73.9451C139.046 73.9899 139.091 74.0226 139.143 74.0376C139.195 74.0525 139.25 74.0487 139.3 74.0267C139.349 74.0048 139.389 73.9662 139.413 73.9177C139.436 73.8692 139.442 73.8139 139.429 73.7615C138.813 72.153 138.736 70.3876 139.211 68.7317C139.685 67.0758 140.686 65.6192 142.061 64.5815C144.246 66.0991 146.843 66.9123 149.504 66.9123C152.165 66.9123 154.762 66.0991 156.948 64.5815C159.9 66.8765 160.008 71.6501 159.793 73.3178C159.791 73.3582 159.798 73.3986 159.814 73.4358C159.83 73.473 159.854 73.5059 159.885 73.532C160.145 73.7309 160.574 73.2107 160.788 72.9659C161.063 72.5388 161.458 72.2021 161.923 71.998C162.388 71.794 162.904 71.7315 163.404 71.8184C163.904 71.8915 164.36 72.1453 164.686 72.5319C165.011 72.9185 165.184 73.411 165.17 73.9162C165.157 74.4213 164.959 74.9042 164.614 75.2732C164.269 75.6423 163.8 75.872 163.297 75.9188C163.19 75.827 162.716 75.98 162.685 76.3013Z" fill="#14397F"/>
<path d="M140.76 244.112C140.76 244.311 140.913 244.479 140.76 244.112C136.438 245.86 131.968 247.217 127.403 248.166C126.853 248.273 127.036 249.084 127.587 249.023C132.313 248.491 136.919 247.183 141.219 245.152C141.847 244.8 141.434 243.867 140.76 244.112ZM162.18 237.609C162.548 237.609 174.941 232.744 176.149 231.963C176.746 231.566 176.333 230.541 175.629 230.801C174.39 231.26 164.536 235.911 162.073 236.783C161.983 236.817 161.908 236.881 161.858 236.963C161.809 237.046 161.789 237.143 161.801 237.238C161.813 237.334 161.858 237.422 161.926 237.489C161.995 237.557 162.085 237.599 162.18 237.609ZM181.122 229.5C181.52 229.5 191.832 224.803 192.796 224.069C193.27 223.701 192.949 222.829 192.321 223.074C191.388 223.426 182.927 227.664 180.984 228.475C180.875 228.52 180.785 228.6 180.726 228.703C180.667 228.805 180.644 228.924 180.66 229.04C180.676 229.157 180.729 229.265 180.813 229.349C180.896 229.432 181.005 229.485 181.122 229.5ZM211.14 198.747C211.997 199.298 215.18 201.807 216.036 202.358C216.167 202.434 216.321 202.46 216.47 202.431C216.619 202.402 216.752 202.321 216.845 202.201C216.938 202.082 216.985 201.933 216.977 201.782C216.969 201.631 216.907 201.487 216.801 201.379C215.99 200.69 212.487 198.502 211.615 197.982C211.513 197.919 211.391 197.899 211.275 197.926C211.158 197.954 211.058 198.026 210.995 198.127C210.932 198.229 210.912 198.351 210.939 198.467C210.967 198.584 211.039 198.684 211.14 198.747ZM230.342 211.446C229.868 211.064 229.225 211.752 229.715 212.15C230.801 213.053 235.115 216.878 236.309 217.688C236.435 217.751 236.58 217.768 236.717 217.736C236.855 217.705 236.977 217.626 237.064 217.515C237.15 217.403 237.196 217.265 237.192 217.124C237.188 216.982 237.135 216.847 237.043 216.74C236.064 215.73 231.612 212.456 230.342 211.446ZM240.21 220.228C240.119 220.139 239.996 220.09 239.868 220.091C239.741 220.093 239.619 220.145 239.529 220.236C239.44 220.327 239.391 220.45 239.392 220.578C239.394 220.706 239.446 220.828 239.537 220.917C241.458 222.861 243.185 224.987 244.693 227.266C245.183 227.955 246.3 227.266 245.825 226.563C244.228 224.223 242.341 222.095 240.21 220.228ZM218.79 255.51C216.74 255.51 207.912 254.929 205.739 254.485C205.64 254.461 205.535 254.477 205.447 254.53C205.36 254.583 205.297 254.669 205.273 254.768C205.248 254.867 205.265 254.972 205.318 255.06C205.371 255.148 205.456 255.21 205.556 255.235C209.926 256.056 214.348 256.568 218.79 256.765C218.957 256.765 219.116 256.699 219.234 256.581C219.352 256.463 219.418 256.304 219.418 256.137C219.418 255.971 219.352 255.811 219.234 255.694C219.116 255.576 218.957 255.51 218.79 255.51ZM164.108 244.509C163.573 244.249 163.129 245.045 163.68 245.32C167.534 247.267 171.661 248.619 175.92 249.329C176.746 249.482 177.067 248.212 176.226 248.074C172.04 247.457 167.961 246.257 164.108 244.509ZM146.177 243.454C148.089 243.041 151.991 241.924 152.603 241.832C153.184 242.061 156.917 243.469 158.906 243.943C159.055 243.976 159.211 243.951 159.342 243.873C159.473 243.794 159.569 243.669 159.61 243.522C159.651 243.375 159.635 243.218 159.563 243.083C159.492 242.948 159.372 242.845 159.227 242.796C157.697 242.245 156.167 241.786 154.469 241.266C155.703 240.856 156.9 240.344 158.049 239.736C158.133 239.646 158.188 239.535 158.209 239.414C158.23 239.293 158.215 239.169 158.166 239.057C158.118 238.945 158.037 238.85 157.935 238.783C157.832 238.716 157.713 238.68 157.59 238.68C155.877 239.262 154.194 239.996 152.526 240.639C150.629 239.965 148.885 239.277 147.217 238.542C146.666 238.298 146.222 239.109 146.789 239.369C148.181 240.027 149.573 240.654 150.95 241.22C149.324 241.785 147.669 242.265 145.993 242.658C145.923 242.709 145.869 242.78 145.838 242.862C145.808 242.943 145.802 243.032 145.822 243.117C145.841 243.201 145.885 243.279 145.948 243.339C146.011 243.398 146.091 243.438 146.177 243.454ZM77.6937 200.797C76.1637 199.604 70.4262 194.677 69.1563 193.331C68.7432 192.887 68.0547 193.545 68.4678 193.989C70.9649 196.926 73.8173 199.542 76.9593 201.777C77.5713 202.19 78.2751 201.256 77.6937 200.797ZM59.5173 273.197C58.5625 264.75 56.8418 256.408 54.3765 248.273C55.7722 250.384 57.9243 251.879 60.3894 252.45C60.4949 252.495 60.6138 252.496 60.72 252.453C60.8261 252.41 60.9109 252.326 60.9555 252.221C61.0001 252.115 61.001 251.996 60.958 251.89C60.9149 251.784 60.8315 251.699 60.726 251.654C58.7676 250.476 55.7535 249.283 54.8202 246.422C55.3308 245.49 55.4566 244.395 55.1707 243.372C54.8848 242.348 54.2099 241.477 53.2902 240.945C53.8407 237.695 55.0037 234.58 56.7174 231.765C56.9163 231.382 56.3961 230.984 56.1054 231.321C53.922 234.043 52.5866 237.347 52.2651 240.822C51.8668 240.851 51.4749 240.939 51.1023 241.082C47.0487 230.605 41.2895 220.87 34.0581 212.272C34.3365 211.798 34.4446 211.242 34.3647 210.698C34.2848 210.154 34.0215 209.653 33.6185 209.278C33.2154 208.904 32.6967 208.678 32.1479 208.638C31.5991 208.598 31.0532 208.747 30.6003 209.059C30.0835 209.411 29.7078 209.934 29.5398 210.536C29.3718 211.138 29.4223 211.78 29.6823 212.349C29.8556 212.652 30.0885 212.917 30.3669 213.128C30.6454 213.338 30.9637 213.49 31.3025 213.575C31.6414 213.659 31.9938 213.674 32.3385 213.618C32.6833 213.563 33.0132 213.438 33.3084 213.252C40.3985 221.752 46.0805 231.334 50.1384 241.633C47.6445 243.836 49.8171 247.967 52.9536 247.631C55.5396 256.05 57.3425 264.691 58.3392 273.442C57.8802 273.685 57.5244 274.086 57.3373 274.57C57.1501 275.055 57.1441 275.591 57.3204 276.08C57.4967 276.568 57.8434 276.977 58.2968 277.231C58.7503 277.484 59.28 277.566 59.7886 277.46C60.2973 277.354 60.7507 277.068 61.0656 276.655C61.3805 276.242 61.5357 275.729 61.5027 275.211C61.4697 274.692 61.2507 274.203 60.886 273.833C60.5212 273.463 60.0352 273.237 59.5173 273.197ZM33.2319 211.14C33.2856 211.342 33.2923 211.553 33.2513 211.758C33.2104 211.962 33.123 212.155 32.9958 212.32C32.8686 212.486 32.7051 212.62 32.5179 212.712C32.3307 212.804 32.1248 212.852 31.9161 212.852C31.7074 212.852 31.5015 212.804 31.3143 212.712C31.127 212.62 30.9635 212.486 30.8364 212.32C30.7092 212.155 30.6218 211.962 30.5808 211.758C30.5399 211.553 30.5466 211.342 30.6003 211.14C30.5466 210.938 30.5399 210.727 30.5808 210.522C30.6218 210.318 30.7092 210.125 30.8364 209.96C30.9635 209.794 31.127 209.66 31.3143 209.568C31.5015 209.476 31.7074 209.428 31.9161 209.428C32.1248 209.428 32.3307 209.476 32.5179 209.568C32.7051 209.66 32.8686 209.794 32.9958 209.96C33.123 210.125 33.2104 210.318 33.2513 210.522C33.2923 210.727 33.2856 210.938 33.2319 211.14ZM60.7719 275.262C60.7719 276.792 58.2474 276.792 58.2474 275.262C58.2474 273.732 60.7107 273.87 60.7107 275.4L60.7719 275.262ZM54.0705 245.274C53.2443 247.83 50.169 246.039 50.2149 243.959C50.2149 242.123 52.77 240.899 53.7339 242.658C53.9809 243.054 54.1341 243.501 54.1818 243.965C54.2295 244.429 54.1705 244.898 54.0093 245.336L54.0705 245.274ZM276.594 183.738C276.586 183.296 276.456 182.865 276.217 182.492C275.979 182.12 275.642 181.821 275.244 181.629C274.846 181.437 274.402 181.36 273.962 181.405C273.522 181.451 273.104 181.617 272.753 181.887C264.143 176.845 256.739 169.984 251.058 161.782C251.473 161.306 251.759 160.73 251.887 160.111C252.016 159.492 251.983 158.851 251.792 158.248C251.646 157.78 251.381 157.359 251.023 157.024C250.665 156.69 250.226 156.454 249.75 156.34C249.274 156.226 248.776 156.237 248.305 156.373C247.834 156.509 247.407 156.765 247.065 157.116C239.702 147.155 234.439 135.803 231.596 123.747C231.884 123.421 232.059 123.013 232.098 122.581C232.136 122.148 232.036 121.715 231.811 121.344C231.642 120.961 231.352 120.644 230.987 120.44C230.621 120.235 230.199 120.156 229.784 120.213C229.37 120.27 228.985 120.46 228.688 120.756C228.391 121.051 228.198 121.435 228.139 121.849C228.041 122.198 228.04 122.566 228.135 122.914C228.23 123.263 228.418 123.58 228.678 123.831C228.939 124.082 229.262 124.258 229.614 124.34C229.966 124.422 230.334 124.407 230.678 124.297C233.497 136.492 238.845 147.96 246.376 157.957C246.215 158.218 246.097 158.502 246.024 158.799C244.081 157.866 234.427 154.806 233.417 155.081C232.989 155.203 233.188 155.724 233.417 155.785C237.642 156.952 241.791 158.378 245.841 160.053C245.926 160.522 246.117 160.965 246.4 161.348C246.682 161.732 247.048 162.046 247.469 162.267C247.891 162.488 248.358 162.611 248.834 162.625C249.31 162.639 249.782 162.544 250.216 162.348C257.193 172.263 264.338 178.949 272.05 182.789C271.885 183.16 271.814 183.567 271.846 183.972C271.877 184.377 272.009 184.768 272.229 185.11C272.449 185.451 272.751 185.733 273.107 185.929C273.463 186.125 273.862 186.229 274.268 186.232C274.592 186.247 274.916 186.192 275.217 186.07C275.517 185.948 275.788 185.761 276.009 185.524C276.23 185.287 276.397 185.004 276.498 184.695C276.599 184.387 276.632 184.06 276.594 183.738ZM273.197 184.503C273.066 184.309 272.987 184.084 272.969 183.85C272.952 183.617 272.995 183.382 273.095 183.171C273.196 182.959 273.35 182.777 273.542 182.643C273.734 182.509 273.958 182.428 274.192 182.407C274.558 182.419 274.906 182.572 275.163 182.834C275.42 183.096 275.565 183.447 275.569 183.814C275.569 184.093 275.479 184.364 275.312 184.587C275.144 184.81 274.909 184.973 274.642 185.05C274.374 185.128 274.089 185.117 273.828 185.018C273.567 184.919 273.346 184.738 273.197 184.503ZM249.758 161.461C249.285 161.614 248.774 161.603 248.308 161.431C247.842 161.259 247.447 160.935 247.187 160.512C247.044 160.172 246.985 159.802 247.015 159.435C247.045 159.067 247.164 158.712 247.361 158.399C247.557 158.087 247.826 157.827 248.145 157.641C248.464 157.454 248.823 157.348 249.191 157.33C251.15 157.33 251.486 160.742 249.758 161.461ZM231.107 122.4C231.125 122.544 231.111 122.69 231.068 122.829C231.025 122.968 230.953 123.096 230.857 123.204C230.761 123.313 230.643 123.4 230.51 123.46C230.378 123.519 230.235 123.55 230.089 123.55C229.944 123.55 229.801 123.519 229.668 123.46C229.536 123.4 229.418 123.313 229.322 123.204C229.225 123.096 229.153 122.968 229.11 122.829C229.067 122.69 229.054 122.544 229.072 122.4C229.054 122.256 229.067 122.11 229.11 121.971C229.153 121.833 229.225 121.705 229.322 121.596C229.418 121.487 229.536 121.4 229.668 121.34C229.801 121.281 229.944 121.25 230.089 121.25C230.235 121.25 230.378 121.281 230.51 121.34C230.643 121.4 230.761 121.487 230.857 121.596C230.953 121.705 231.025 121.833 231.068 121.971C231.111 122.11 231.125 122.256 231.107 122.4ZM255.51 246.896C255.553 246.789 255.556 246.671 255.519 246.562C255.483 246.453 255.409 246.36 255.311 246.299C254.546 245.825 253.292 246.621 253.078 247.524C253.598 247.569 255.189 247.508 255.51 246.896Z" fill="#14397F"/>
<path d="M251.869 236.783C250.875 234.678 249.756 232.635 248.518 230.663C248.45 230.563 248.346 230.492 248.227 230.466C248.109 230.44 247.985 230.461 247.881 230.523C247.777 230.586 247.701 230.686 247.669 230.803C247.636 230.921 247.65 231.045 247.707 231.153C248.739 232.965 249.634 234.852 250.385 236.798C248.678 236.984 247.055 237.636 245.694 238.684C244.333 239.731 243.287 241.133 242.671 242.736C242.054 244.339 241.891 246.08 242.199 247.77C242.508 249.459 243.275 251.031 244.418 252.312C239.124 254.373 233.524 255.541 227.848 255.77C227.746 255.789 227.655 255.843 227.589 255.923C227.522 256.003 227.486 256.103 227.486 256.206C227.486 256.31 227.522 256.41 227.589 256.49C227.655 256.569 227.746 256.623 227.848 256.642C233.9 256.771 239.915 255.657 245.519 253.368C246.666 254.278 248.011 254.904 249.444 255.198C250.878 255.491 252.361 255.442 253.773 255.055C255.184 254.668 256.485 253.955 257.569 252.972C258.653 251.989 259.491 250.764 260.013 249.397C260.536 248.03 260.73 246.56 260.578 245.104C260.427 243.648 259.934 242.249 259.141 241.019C258.348 239.789 257.276 238.763 256.013 238.025C254.75 237.286 253.33 236.855 251.869 236.768V236.783ZM249.926 250.92C249.773 249.895 249.712 248.855 249.528 247.86H247.279C247.141 248.763 247.141 249.666 247.004 250.568C246.996 250.633 246.975 250.695 246.943 250.751C246.911 250.807 246.868 250.857 246.817 250.897C246.766 250.936 246.707 250.966 246.645 250.983C246.582 251 246.517 251.005 246.453 250.997C246.388 250.989 246.326 250.968 246.27 250.936C246.214 250.904 246.164 250.861 246.125 250.81C246.085 250.759 246.055 250.7 246.038 250.638C246.021 250.575 246.016 250.51 246.024 250.446C246.024 249.436 246.866 243.01 247.034 242.107C247.248 240.837 247.922 240.73 248.304 240.776C249.1 240.868 249.314 241.694 249.482 242.306C249.926 243.943 251.012 248.931 251.288 250.584C251.41 251.41 250.064 251.746 249.926 250.92ZM256.796 249.742C254.332 251.456 251.226 249.405 252.206 247.034C252.833 245.504 255.266 244.464 256.291 246.055C256.414 246.312 256.475 246.595 256.468 246.88C256.46 247.165 256.386 247.444 256.25 247.695C256.114 247.946 255.921 248.161 255.686 248.323C255.451 248.484 255.181 248.588 254.898 248.625C254.391 248.692 253.876 248.692 253.368 248.625C253.562 248.839 253.789 249.02 254.042 249.161C255.572 249.803 256.597 248.656 256.903 249.298C256.927 249.363 256.929 249.434 256.91 249.5C256.89 249.566 256.85 249.624 256.796 249.666V249.742Z" fill="#14397F"/>
<path d="M248.075 242.398C247.845 243.561 247.585 245.642 247.463 246.606H249.283C249.115 245.825 248.671 243.637 248.365 242.444C248.319 242.245 248.105 242.199 248.075 242.398ZM115.515 219.494C114.597 218.943 112.578 218.882 112.455 220.091C112.364 220.764 112.455 223.457 112.455 224.176C113.153 224.155 113.84 223.991 114.472 223.694C115.103 223.396 115.667 222.972 116.127 222.447C116.3 222.219 116.421 221.957 116.484 221.678C116.546 221.4 116.549 221.111 116.491 220.832C116.433 220.552 116.316 220.288 116.148 220.057C115.979 219.827 115.764 219.635 115.515 219.494Z" fill="#14397F"/>
<path d="M141.663 236.125C137.434 234.576 133.296 232.788 129.27 230.77C130.074 229.128 130.546 227.343 130.66 225.518C130.774 223.693 130.527 221.863 129.934 220.133C129.341 218.403 128.413 216.807 127.203 215.436C125.993 214.065 124.525 212.946 122.882 212.142C121.24 211.339 119.455 210.866 117.63 210.752C115.805 210.638 113.975 210.885 112.245 211.478C110.516 212.071 108.92 212.999 107.548 214.209C106.177 215.419 105.058 216.888 104.254 218.53C102.403 217.545 100.605 216.462 98.8688 215.286C98.3945 214.98 97.9507 215.7 98.3944 216.021C100.46 217.551 102.189 218.622 103.795 219.601C98.3026 235.635 119.646 245.902 128.734 231.703C132.723 233.968 136.993 235.697 141.433 236.844C141.523 236.857 141.615 236.838 141.691 236.79C141.768 236.742 141.826 236.668 141.853 236.582C141.881 236.496 141.877 236.402 141.842 236.319C141.807 236.235 141.744 236.166 141.663 236.125ZM117.183 223.885C115.944 225.073 114.308 225.759 112.593 225.813V230.097C112.593 230.271 112.524 230.439 112.4 230.562C112.277 230.685 112.109 230.755 111.935 230.755C111.76 230.755 111.593 230.685 111.47 230.562C111.346 230.439 111.277 230.271 111.277 230.097C111.277 229.362 111.017 223.288 111.002 222.799C111.002 221.269 110.42 218.652 112.532 217.811C116.418 216.174 120.09 220.473 117.106 223.87L117.183 223.885ZM124.221 228.475C124.007 230.923 120.717 231.979 118.759 230.525C118.619 230.415 118.525 230.257 118.495 230.082C118.465 229.907 118.502 229.726 118.597 229.576C118.692 229.426 118.839 229.316 119.01 229.268C119.182 229.22 119.364 229.238 119.524 229.317C119.967 229.613 120.499 229.747 121.029 229.693C121.56 229.64 122.055 229.404 122.431 229.026C122.89 228.552 122.706 227.603 121.956 227.71C121.375 227.876 120.769 227.938 120.166 227.894C119.861 227.823 119.578 227.677 119.342 227.47C119.107 227.262 118.926 227 118.817 226.706C118.708 226.412 118.674 226.095 118.717 225.784C118.76 225.474 118.88 225.179 119.065 224.925C119.323 224.56 119.664 224.262 120.059 224.053C120.454 223.844 120.893 223.731 121.34 223.724C121.787 223.716 122.23 223.814 122.632 224.01C123.034 224.205 123.384 224.493 123.655 224.849C124.114 225.446 123.165 226.165 122.706 225.583C122.492 225.335 122.209 225.156 121.893 225.068C121.577 224.981 121.242 224.99 120.931 225.094C119.6 225.583 120.442 226.899 121.329 226.624C121.528 226.563 124.343 226.119 124.144 228.414L124.221 228.475ZM248.105 177.587C247.609 178.719 247.042 179.817 246.407 180.877C245.208 179.211 243.656 177.831 241.861 176.835C240.067 175.839 238.074 175.252 236.026 175.116C233.978 174.98 231.926 175.299 230.015 176.049C228.105 176.8 226.384 177.963 224.976 179.456C223.568 180.949 222.507 182.735 221.87 184.686C221.233 186.637 221.035 188.705 221.29 190.741C221.546 192.778 222.248 194.732 223.348 196.466C224.447 198.199 225.916 199.668 227.649 200.767C226.119 202.128 222.952 204.546 222.309 205.051L221.177 204.531C220.672 204.301 220.259 205.051 220.779 205.296C221.015 205.406 221.245 205.528 221.468 205.663C219.542 207.06 217.545 208.357 215.485 209.549C215.378 209.61 215.299 209.711 215.266 209.83C215.233 209.949 215.249 210.076 215.309 210.184C215.37 210.291 215.471 210.37 215.59 210.403C215.71 210.436 215.837 210.421 215.944 210.36C218.469 208.952 220.641 207.621 222.554 206.321C223.95 207.292 225.252 208.393 226.44 209.61C226.56 209.704 226.71 209.751 226.862 209.743C227.014 209.734 227.158 209.671 227.267 209.564C227.376 209.457 227.442 209.314 227.453 209.162C227.464 209.01 227.42 208.86 227.328 208.738C226.135 207.613 224.85 206.59 223.487 205.678C224.421 205.005 227.404 202.786 228.903 201.471C231.579 202.787 234.606 203.211 237.54 202.68C240.475 202.149 243.161 200.691 245.205 198.52C247.25 196.349 248.544 193.58 248.898 190.619C249.252 187.658 248.647 184.662 247.172 182.07C247.959 180.756 248.615 179.367 249.13 177.924C249.39 177.266 248.365 176.945 248.105 177.587ZM235.238 194.631C234.931 193.597 234.69 192.545 234.519 191.48L231.29 191.801C231.107 192.765 230.923 193.729 230.77 194.693C230.617 195.657 229.362 195.259 229.485 194.433C229.76 192.398 231.397 183.723 231.719 182.896C232.621 181.122 233.983 182.346 234.779 184.35C235.55 187.668 236.153 191.023 236.584 194.402C236.615 194.58 236.573 194.764 236.468 194.912C236.363 195.059 236.204 195.159 236.026 195.19C235.847 195.22 235.664 195.179 235.516 195.074C235.368 194.969 235.268 194.81 235.238 194.631ZM237.854 184.702C237.931 184.521 238.046 184.359 238.191 184.226C238.336 184.093 238.507 183.992 238.693 183.93C238.88 183.868 239.077 183.846 239.273 183.865C239.468 183.885 239.657 183.946 239.828 184.044C239.98 184.146 240.108 184.279 240.203 184.435C240.299 184.591 240.36 184.766 240.381 184.947C240.403 185.129 240.386 185.313 240.33 185.487C240.274 185.661 240.181 185.821 240.057 185.956C239.865 186.192 239.596 186.353 239.297 186.409C238.998 186.465 238.689 186.413 238.424 186.262C238.16 186.112 237.958 185.872 237.853 185.586C237.749 185.301 237.749 184.987 237.854 184.702ZM240.516 194.478C240.514 194.654 240.448 194.823 240.332 194.954C240.216 195.086 240.056 195.171 239.882 195.195C239.709 195.219 239.532 195.18 239.384 195.085C239.237 194.99 239.128 194.846 239.078 194.677C238.956 194.341 238.726 189.628 238.726 189.078C238.726 188.919 238.789 188.768 238.901 188.656C239.013 188.544 239.165 188.481 239.323 188.481C239.481 188.481 239.633 188.544 239.745 188.656C239.857 188.768 239.919 188.919 239.919 189.078C239.965 189.95 240.531 194.218 240.516 194.478Z" fill="#14397F"/>
<path d="M231.596 190.286L234.259 189.995C233.992 188.13 233.541 186.295 232.912 184.518C232.56 186.048 231.918 188.771 231.596 190.286ZM84.1502 256.183C82.865 256.948 83.9207 259.029 85.6802 258.249C85.6802 257.239 85.5884 256.489 85.5578 256.137C85.3367 256.032 85.0934 255.981 84.8484 255.989C84.6035 255.997 84.364 256.063 84.1502 256.183Z" fill="#14397F"/>
<path d="M98.9303 254.24C96.3978 254.636 93.8426 254.872 91.2803 254.944C90.5918 242.903 73.364 242.888 72.6602 254.944C70.0021 254.687 67.3862 254.101 64.8725 253.2C64.8253 253.176 64.7738 253.161 64.7209 253.157C64.6681 253.153 64.6149 253.159 64.5645 253.175C64.5141 253.192 64.4673 253.218 64.427 253.252C64.3867 253.286 64.3535 253.328 64.3294 253.376C64.3053 253.423 64.2907 253.474 64.2865 253.527C64.2823 253.58 64.2885 253.633 64.3049 253.684C64.3212 253.734 64.3473 253.781 64.3817 253.821C64.4161 253.862 64.4581 253.895 64.5053 253.919C67.0547 255.269 69.8481 256.096 72.7214 256.352C73.011 258.598 74.1089 260.662 75.8097 262.157C77.5105 263.653 79.6978 264.478 81.9626 264.478C84.2275 264.478 86.4148 263.653 88.1156 262.157C89.8163 260.662 90.9142 258.598 91.2038 256.352C93.8677 256.08 96.5138 255.656 99.1292 255.082C99.2192 255.037 99.2914 254.964 99.3341 254.873C99.3769 254.782 99.3876 254.679 99.3645 254.582C99.3414 254.484 99.2859 254.397 99.2071 254.335C99.1282 254.273 99.0307 254.24 98.9303 254.24ZM80.5703 259.121C80.5495 259.224 80.5071 259.322 80.4459 259.408C80.3847 259.494 80.306 259.566 80.215 259.619C80.124 259.673 80.0228 259.707 79.9179 259.718C79.813 259.73 79.7069 259.719 79.6064 259.687C79.1474 259.549 79.2239 259.289 78.4895 258.249C78.26 258.631 78.0305 259.029 77.8163 259.427C77.7324 259.564 77.5992 259.663 77.4441 259.705C77.289 259.747 77.1238 259.727 76.9826 259.651C76.8414 259.574 76.7349 259.446 76.6851 259.294C76.6352 259.141 76.6458 258.975 76.7147 258.83C77.0054 258.279 77.2961 257.713 77.6174 257.162C77.24 256.769 76.8191 256.42 76.3628 256.122C76.2132 256.017 76.1092 255.859 76.0721 255.68C76.035 255.5 76.0675 255.314 76.163 255.158C76.2586 255.002 76.4099 254.888 76.5863 254.84C76.7627 254.792 76.9509 254.812 77.1125 254.898C79.025 256.076 77.8469 256.214 79.3004 254.408C79.8971 253.674 81.0293 254.577 80.5397 255.326C80.2031 255.847 79.7747 256.382 79.4075 256.856C80.1572 257.82 80.6468 258.57 80.555 259.121H80.5703ZM87.0881 259.304C86.7625 259.598 86.3774 259.819 85.9592 259.951C85.5409 260.082 85.0992 260.123 84.6639 260.069C84.2286 260.016 83.8099 259.869 83.4362 259.639C83.0626 259.41 82.7426 259.102 82.4981 258.738C82.1866 258.279 82.0214 257.735 82.0241 257.18C82.0269 256.625 82.1974 256.083 82.5135 255.626C82.8295 255.17 83.2762 254.819 83.795 254.621C84.3138 254.423 84.8804 254.386 85.4204 254.516C85.2881 252.862 85.2421 251.202 85.2827 249.543C85.2851 249.366 85.3527 249.196 85.4726 249.066C85.5925 248.935 85.7562 248.854 85.9325 248.837C86.1087 248.82 86.2851 248.868 86.4278 248.973C86.5704 249.078 86.6694 249.232 86.7056 249.405C87.0269 251.41 87.2717 257.285 87.3023 257.958C87.3329 258.31 87.4859 258.891 87.0728 259.304H87.0881ZM58.4924 168.851C58.7678 168.851 58.8443 168.851 58.8596 168.759C58.8596 168.499 58.3394 165.056 58.2782 164.643C53.933 165.24 54.4838 169.249 58.4924 168.851Z" fill="#14397F"/>
<path d="M69.3095 154.347C67.4956 154.595 65.6974 154.948 63.9239 155.402C62.4977 154.017 60.7588 152.996 58.8544 152.425C56.9499 151.854 54.936 151.75 52.983 152.122C51.03 152.495 49.1954 153.332 47.6344 154.563C46.0734 155.794 44.832 157.384 44.0152 159.196C43.1984 161.009 42.8302 162.991 42.9419 164.977C43.0536 166.962 43.6418 168.89 44.6567 170.6C45.6717 172.31 47.0835 173.75 48.7727 174.798C50.462 175.846 52.3789 176.473 54.3614 176.623C56.0877 181.484 59.0957 185.787 63.0671 189.078C63.1032 189.113 63.146 189.14 63.1928 189.159C63.2397 189.178 63.2898 189.187 63.3402 189.186C63.3907 189.185 63.4405 189.175 63.4868 189.155C63.5331 189.135 63.5751 189.106 63.6102 189.07C63.6454 189.034 63.6731 188.991 63.6917 188.944C63.7104 188.897 63.7196 188.847 63.7189 188.797C63.7182 188.746 63.7075 188.696 63.6876 188.65C63.6676 188.604 63.6387 188.562 63.6026 188.527C60.2903 185.06 57.6083 181.042 55.6772 176.654C57.9832 176.567 60.2194 175.84 62.1352 174.553C64.051 173.267 65.5706 171.472 66.5237 169.37C67.4768 167.269 67.8257 164.943 67.5314 162.654C67.237 160.366 66.311 158.204 64.8572 156.412C66.479 155.984 67.9172 155.601 69.4472 155.31C70.1816 155.188 69.9215 154.224 69.3095 154.347ZM50.2151 169.83V158.447C50.2387 158.295 50.3156 158.157 50.432 158.058C50.5485 157.958 50.6967 157.903 50.85 157.903C51.0033 157.903 51.1516 157.958 51.268 158.058C51.3844 158.157 51.4614 158.295 51.485 158.447C51.485 160.711 51.7451 168.3 51.791 169.83C51.7381 169.998 51.6332 170.144 51.4915 170.248C51.3498 170.352 51.1787 170.408 51.003 170.408C50.8273 170.408 50.6562 170.352 50.5145 170.248C50.3728 170.144 50.2679 169.998 50.2151 169.83ZM59.5787 169.983C56.5187 171.62 52.4336 168.698 54.3614 165.286C54.7841 164.679 55.3502 164.185 56.0094 163.849C56.6686 163.512 57.4006 163.344 58.1405 163.358C57.8849 161.691 57.7316 160.01 57.6815 158.325C57.6895 158.159 57.7559 158.001 57.869 157.88C57.982 157.758 58.1343 157.68 58.2991 157.66C58.4638 157.64 58.6304 157.679 58.7693 157.77C58.9083 157.86 59.0107 157.997 59.0585 158.156C59.3186 159.258 60.053 166.587 60.1295 167.55C60.1601 168.3 60.4967 169.417 59.5787 169.907V169.983Z" fill="#14397F"/>
</svg>
