<svg width="165" height="148" viewBox="0 0 165 148" fill="none" xmlns="http://www.w3.org/2000/svg">
<path d="M3.32 115.998V87.998H17C20.52 87.998 23.16 88.6647 24.92 89.998C26.7067 91.3314 27.6 93.0914 27.6 95.278C27.6 96.7447 27.24 98.0247 26.52 99.118C25.8 100.185 24.8133 101.011 23.56 101.598C22.3067 102.185 20.8667 102.478 19.24 102.478L20 100.838C21.76 100.838 23.32 101.131 24.68 101.718C26.04 102.278 27.0933 103.118 27.84 104.238C28.6133 105.358 29 106.731 29 108.358C29 110.758 28.0533 112.638 26.16 113.998C24.2667 115.331 21.48 115.998 17.8 115.998H3.32ZM9.76 111.118H17.32C19 111.118 20.2667 110.851 21.12 110.318C22 109.758 22.44 108.878 22.44 107.678C22.44 106.505 22 105.638 21.12 105.078C20.2667 104.491 19 104.198 17.32 104.198H9.28V99.478H16.2C17.7733 99.478 18.9733 99.2114 19.8 98.678C20.6533 98.118 21.08 97.278 21.08 96.158C21.08 95.0647 20.6533 94.2514 19.8 93.718C18.9733 93.158 17.7733 92.878 16.2 92.878H9.76V111.118ZM42.5459 116.318C40.7593 116.318 39.1593 115.971 37.7459 115.278C36.3593 114.585 35.2793 113.531 34.5059 112.118C33.7326 110.678 33.3459 108.851 33.3459 106.638V94.478H39.5859V105.718C39.5859 107.505 39.9593 108.825 40.7059 109.678C41.4793 110.505 42.5593 110.918 43.9459 110.918C44.9059 110.918 45.7593 110.718 46.5059 110.318C47.2526 109.891 47.8393 109.251 48.2659 108.398C48.6926 107.518 48.9059 106.425 48.9059 105.118V94.478H55.1459V115.998H49.2259V110.078L50.3059 111.798C49.5859 113.291 48.5193 114.425 47.1059 115.198C45.7193 115.945 44.1993 116.318 42.5459 116.318ZM61.6869 115.998V93.998C61.6869 91.5714 62.4069 89.638 63.8469 88.198C65.2869 86.7314 67.3402 85.998 70.0069 85.998C70.9135 85.998 71.7802 86.0914 72.6069 86.278C73.4602 86.4647 74.1802 86.758 74.7669 87.158L73.1269 91.678C72.7802 91.438 72.3935 91.2514 71.9669 91.118C71.5402 90.9847 71.0869 90.918 70.6069 90.918C69.7002 90.918 68.9935 91.1847 68.4869 91.718C68.0069 92.2247 67.7669 92.998 67.7669 94.038V96.038L67.9269 98.718V115.998H61.6869ZM58.3669 99.758V94.958H73.2869V99.758H58.3669ZM86.8022 116.318C84.3489 116.318 82.1889 115.838 80.3222 114.878C78.4822 113.918 77.0555 112.611 76.0422 110.958C75.0289 109.278 74.5222 107.371 74.5222 105.238C74.5222 103.078 75.0155 101.171 76.0022 99.518C77.0155 97.838 78.3889 96.5314 80.1222 95.598C81.8555 94.638 83.8155 94.158 86.0022 94.158C88.1089 94.158 90.0022 94.6114 91.6822 95.518C93.3889 96.398 94.7355 97.678 95.7222 99.358C96.7089 101.011 97.2022 102.998 97.2022 105.318C97.2022 105.558 97.1889 105.838 97.1622 106.158C97.1355 106.451 97.1089 106.731 97.0822 106.998H79.6022V103.358H93.8022L91.4022 104.438C91.4022 103.318 91.1755 102.345 90.7222 101.518C90.2689 100.691 89.6422 100.051 88.8422 99.598C88.0422 99.118 87.1089 98.878 86.0422 98.878C84.9755 98.878 84.0289 99.118 83.2022 99.598C82.4022 100.051 81.7755 100.705 81.3222 101.558C80.8689 102.385 80.6422 103.371 80.6422 104.518V105.478C80.6422 106.651 80.8955 107.691 81.4022 108.598C81.9355 109.478 82.6689 110.158 83.6022 110.638C84.5622 111.091 85.6822 111.318 86.9622 111.318C88.1089 111.318 89.1089 111.145 89.9622 110.798C90.8422 110.451 91.6422 109.931 92.3622 109.238L95.6822 112.838C94.6955 113.958 93.4555 114.825 91.9622 115.438C90.4689 116.025 88.7489 116.318 86.8022 116.318ZM110.157 116.318C107.623 116.318 105.65 115.678 104.237 114.398C102.823 113.091 102.117 111.158 102.117 108.598V89.718H108.357V108.518C108.357 109.425 108.597 110.131 109.077 110.638C109.557 111.118 110.21 111.358 111.037 111.358C112.023 111.358 112.863 111.091 113.557 110.558L115.237 114.958C114.597 115.411 113.823 115.758 112.917 115.998C112.037 116.211 111.117 116.318 110.157 116.318ZM98.7966 99.758V94.958H113.717V99.758H98.7966ZM128.755 116.318C126.302 116.318 124.142 115.838 122.275 114.878C120.435 113.918 119.009 112.611 117.995 110.958C116.982 109.278 116.475 107.371 116.475 105.238C116.475 103.078 116.969 101.171 117.955 99.518C118.969 97.838 120.342 96.5314 122.075 95.598C123.809 94.638 125.769 94.158 127.955 94.158C130.062 94.158 131.955 94.6114 133.635 95.518C135.342 96.398 136.689 97.678 137.675 99.358C138.662 101.011 139.155 102.998 139.155 105.318C139.155 105.558 139.142 105.838 139.115 106.158C139.089 106.451 139.062 106.731 139.035 106.998H121.555V103.358H135.755L133.355 104.438C133.355 103.318 133.129 102.345 132.675 101.518C132.222 100.691 131.595 100.051 130.795 99.598C129.995 99.118 129.062 98.878 127.995 98.878C126.929 98.878 125.982 99.118 125.155 99.598C124.355 100.051 123.729 100.705 123.275 101.558C122.822 102.385 122.595 103.371 122.595 104.518V105.478C122.595 106.651 122.849 107.691 123.355 108.598C123.889 109.478 124.622 110.158 125.555 110.638C126.515 111.091 127.635 111.318 128.915 111.318C130.062 111.318 131.062 111.145 131.915 110.798C132.795 110.451 133.595 109.931 134.315 109.238L137.635 112.838C136.649 113.958 135.409 114.825 133.915 115.438C132.422 116.025 130.702 116.318 128.755 116.318ZM153.71 116.318C151.39 116.318 149.323 115.851 147.51 114.918C145.696 113.958 144.27 112.638 143.23 110.958C142.216 109.278 141.71 107.371 141.71 105.238C141.71 103.078 142.216 101.171 143.23 99.518C144.27 97.838 145.696 96.5314 147.51 95.598C149.323 94.638 151.39 94.158 153.71 94.158C155.976 94.158 157.95 94.638 159.63 95.598C161.31 96.5314 162.55 97.878 163.35 99.638L158.51 102.238C157.95 101.225 157.243 100.478 156.39 99.998C155.563 99.518 154.656 99.278 153.67 99.278C152.603 99.278 151.643 99.518 150.79 99.998C149.936 100.478 149.256 101.158 148.75 102.038C148.27 102.918 148.03 103.985 148.03 105.238C148.03 106.491 148.27 107.558 148.75 108.438C149.256 109.318 149.936 109.998 150.79 110.478C151.643 110.958 152.603 111.198 153.67 111.198C154.656 111.198 155.563 110.971 156.39 110.518C157.243 110.038 157.95 109.278 158.51 108.238L163.35 110.878C162.55 112.611 161.31 113.958 159.63 114.918C157.95 115.851 155.976 116.318 153.71 116.318Z" fill="black"/>
<path d="M20.88 141.998L28.44 125.198H31.512L39.096 141.998H35.832L29.328 126.854H30.576L24.096 141.998H20.88ZM24.36 138.11L25.2 135.662H34.272L35.112 138.11H24.36ZM44.7874 142.166C43.7154 142.166 42.6834 142.03 41.6914 141.758C40.7154 141.47 39.9394 141.126 39.3634 140.726L40.5154 138.446C41.0914 138.814 41.7794 139.118 42.5794 139.358C43.3794 139.598 44.1794 139.718 44.9794 139.718C45.9234 139.718 46.6034 139.59 47.0194 139.334C47.4514 139.078 47.6674 138.734 47.6674 138.302C47.6674 137.95 47.5234 137.686 47.2354 137.51C46.9474 137.318 46.5714 137.174 46.1074 137.078C45.6434 136.982 45.1234 136.894 44.5474 136.814C43.9874 136.734 43.4194 136.63 42.8434 136.502C42.2834 136.358 41.7714 136.158 41.3074 135.902C40.8434 135.63 40.4674 135.27 40.1794 134.822C39.8914 134.374 39.7474 133.782 39.7474 133.046C39.7474 132.23 39.9794 131.526 40.4434 130.934C40.9074 130.326 41.5554 129.862 42.3874 129.542C43.2354 129.206 44.2354 129.038 45.3874 129.038C46.2514 129.038 47.1234 129.134 48.0034 129.326C48.8834 129.518 49.6114 129.79 50.1874 130.142L49.0354 132.422C48.4274 132.054 47.8114 131.806 47.1874 131.678C46.5794 131.534 45.9714 131.462 45.3634 131.462C44.4514 131.462 43.7714 131.598 43.3234 131.87C42.8914 132.142 42.6754 132.486 42.6754 132.902C42.6754 133.286 42.8194 133.574 43.1074 133.766C43.3954 133.958 43.7714 134.11 44.2354 134.222C44.6994 134.334 45.2114 134.43 45.7714 134.51C46.3474 134.574 46.9154 134.678 47.4754 134.822C48.0354 134.966 48.5474 135.166 49.0114 135.422C49.4914 135.662 49.8754 136.006 50.1634 136.454C50.4514 136.902 50.5954 137.486 50.5954 138.206C50.5954 139.006 50.3554 139.702 49.8754 140.294C49.4114 140.886 48.7474 141.35 47.8834 141.686C47.0194 142.006 45.9874 142.166 44.7874 142.166ZM53.1789 141.998V129.182H56.1789V141.998H53.1789ZM54.6909 127.07C54.1309 127.07 53.6669 126.894 53.2989 126.542C52.9469 126.19 52.7709 125.766 52.7709 125.27C52.7709 124.758 52.9469 124.334 53.2989 123.998C53.6669 123.646 54.1309 123.47 54.6909 123.47C55.2509 123.47 55.7069 123.638 56.0589 123.974C56.4269 124.294 56.6109 124.702 56.6109 125.198C56.6109 125.726 56.4349 126.174 56.0829 126.542C55.7309 126.894 55.2669 127.07 54.6909 127.07ZM64.0764 142.166C63.0044 142.166 61.9724 142.03 60.9804 141.758C60.0044 141.47 59.2284 141.126 58.6524 140.726L59.8044 138.446C60.3804 138.814 61.0684 139.118 61.8684 139.358C62.6684 139.598 63.4684 139.718 64.2684 139.718C65.2124 139.718 65.8924 139.59 66.3084 139.334C66.7404 139.078 66.9564 138.734 66.9564 138.302C66.9564 137.95 66.8124 137.686 66.5244 137.51C66.2364 137.318 65.8604 137.174 65.3964 137.078C64.9324 136.982 64.4124 136.894 63.8364 136.814C63.2764 136.734 62.7084 136.63 62.1324 136.502C61.5724 136.358 61.0604 136.158 60.5964 135.902C60.1324 135.63 59.7564 135.27 59.4684 134.822C59.1804 134.374 59.0364 133.782 59.0364 133.046C59.0364 132.23 59.2684 131.526 59.7324 130.934C60.1964 130.326 60.8444 129.862 61.6764 129.542C62.5244 129.206 63.5244 129.038 64.6764 129.038C65.5404 129.038 66.4124 129.134 67.2924 129.326C68.1724 129.518 68.9004 129.79 69.4764 130.142L68.3244 132.422C67.7164 132.054 67.1004 131.806 66.4764 131.678C65.8684 131.534 65.2604 131.462 64.6524 131.462C63.7404 131.462 63.0604 131.598 62.6124 131.87C62.1804 132.142 61.9644 132.486 61.9644 132.902C61.9644 133.286 62.1084 133.574 62.3964 133.766C62.6844 133.958 63.0604 134.11 63.5244 134.222C63.9884 134.334 64.5004 134.43 65.0604 134.51C65.6364 134.574 66.2044 134.678 66.7644 134.822C67.3244 134.966 67.8364 135.166 68.3004 135.422C68.7804 135.662 69.1644 136.006 69.4524 136.454C69.7404 136.902 69.8844 137.486 69.8844 138.206C69.8844 139.006 69.6444 139.702 69.1644 140.294C68.7004 140.886 68.0364 141.35 67.1724 141.686C66.3084 142.006 65.2764 142.166 64.0764 142.166ZM77.292 142.166C75.884 142.166 74.796 141.806 74.028 141.086C73.26 140.35 72.876 139.27 72.876 137.846V126.35H75.876V137.774C75.876 138.382 76.028 138.854 76.332 139.19C76.652 139.526 77.092 139.694 77.652 139.694C78.324 139.694 78.884 139.518 79.332 139.166L80.172 141.302C79.82 141.59 79.388 141.806 78.876 141.95C78.364 142.094 77.836 142.166 77.292 142.166ZM70.764 131.678V129.278H79.308V131.678H70.764ZM88.242 142.166C86.818 142.166 85.57 141.886 84.498 141.326C83.442 140.75 82.618 139.966 82.026 138.974C81.45 137.982 81.162 136.854 81.162 135.59C81.162 134.31 81.442 133.182 82.002 132.206C82.578 131.214 83.362 130.438 84.354 129.878C85.362 129.318 86.506 129.038 87.786 129.038C89.034 129.038 90.146 129.31 91.122 129.854C92.098 130.398 92.866 131.166 93.426 132.158C93.986 133.15 94.266 134.318 94.266 135.662C94.266 135.79 94.258 135.934 94.242 136.094C94.242 136.254 94.234 136.406 94.218 136.55H83.538V134.558H92.634L91.458 135.182C91.474 134.446 91.322 133.798 91.002 133.238C90.682 132.678 90.242 132.238 89.682 131.918C89.138 131.598 88.506 131.438 87.786 131.438C87.05 131.438 86.402 131.598 85.842 131.918C85.298 132.238 84.866 132.686 84.546 133.262C84.242 133.822 84.09 134.486 84.09 135.254V135.734C84.09 136.502 84.266 137.182 84.618 137.774C84.97 138.366 85.466 138.822 86.106 139.142C86.746 139.462 87.482 139.622 88.314 139.622C89.034 139.622 89.682 139.51 90.258 139.286C90.834 139.062 91.346 138.71 91.794 138.23L93.402 140.078C92.826 140.75 92.098 141.27 91.218 141.638C90.354 141.99 89.362 142.166 88.242 142.166ZM104.42 129.038C105.444 129.038 106.356 129.238 107.156 129.638C107.972 130.038 108.612 130.654 109.076 131.486C109.54 132.302 109.772 133.358 109.772 134.654V141.998H106.772V135.038C106.772 133.902 106.5 133.054 105.956 132.494C105.428 131.934 104.684 131.654 103.724 131.654C103.02 131.654 102.396 131.798 101.852 132.086C101.308 132.374 100.884 132.806 100.58 133.382C100.292 133.942 100.148 134.654 100.148 135.518V141.998H97.1477V129.182H100.004V132.638L99.4997 131.582C99.9477 130.766 100.596 130.142 101.444 129.71C102.308 129.262 103.3 129.038 104.42 129.038ZM118.401 142.166C116.993 142.166 115.905 141.806 115.137 141.086C114.369 140.35 113.985 139.27 113.985 137.846V126.35H116.985V137.774C116.985 138.382 117.137 138.854 117.441 139.19C117.761 139.526 118.201 139.694 118.761 139.694C119.433 139.694 119.993 139.518 120.441 139.166L121.281 141.302C120.929 141.59 120.497 141.806 119.985 141.95C119.473 142.094 118.945 142.166 118.401 142.166ZM111.873 131.678V129.278H120.417V131.678H111.873ZM129.351 142.166C127.927 142.166 126.679 141.886 125.607 141.326C124.551 140.75 123.727 139.966 123.135 138.974C122.559 137.982 122.271 136.854 122.271 135.59C122.271 134.31 122.551 133.182 123.111 132.206C123.687 131.214 124.471 130.438 125.463 129.878C126.471 129.318 127.615 129.038 128.895 129.038C130.143 129.038 131.255 129.31 132.231 129.854C133.207 130.398 133.975 131.166 134.535 132.158C135.095 133.15 135.375 134.318 135.375 135.662C135.375 135.79 135.367 135.934 135.351 136.094C135.351 136.254 135.343 136.406 135.327 136.55H124.647V134.558H133.743L132.567 135.182C132.583 134.446 132.431 133.798 132.111 133.238C131.791 132.678 131.351 132.238 130.791 131.918C130.247 131.598 129.615 131.438 128.895 131.438C128.159 131.438 127.511 131.598 126.951 131.918C126.407 132.238 125.975 132.686 125.655 133.262C125.351 133.822 125.199 134.486 125.199 135.254V135.734C125.199 136.502 125.375 137.182 125.727 137.774C126.079 138.366 126.575 138.822 127.215 139.142C127.855 139.462 128.591 139.622 129.423 139.622C130.143 139.622 130.791 139.51 131.367 139.286C131.943 139.062 132.455 138.71 132.903 138.23L134.511 140.078C133.935 140.75 133.207 141.27 132.327 141.638C131.463 141.99 130.471 142.166 129.351 142.166Z" fill="black"/>
<path fill-rule="evenodd" clip-rule="evenodd" d="M118.744 25.1968V53.6951C118.744 62.6929 111.397 69.9979 102.348 69.9979H63.3957C54.3466 69.9979 46.9999 62.6929 46.9999 53.6951V25.1968C46.9999 16.1991 54.3466 8.89404 63.3957 8.89404H102.348C111.397 8.89404 118.744 16.1991 118.744 25.1968ZM112.664 25.1968C112.664 19.5355 108.042 14.9392 102.348 14.9392H63.3957C57.7021 14.9392 53.0796 19.5355 53.0796 25.1968V53.6951C53.0796 59.3564 57.7021 63.9527 63.3957 63.9527H102.348C108.042 63.9527 112.664 59.3564 112.664 53.6951V25.1968Z" fill="black"/>
<path d="M68.1438 39.009C71.2266 39.009 73.7258 36.5241 73.7258 33.4587C73.7258 30.3934 71.2266 27.9084 68.1438 27.9084C65.0609 27.9084 62.5618 30.3934 62.5618 33.4587C62.5618 36.5241 65.0609 39.009 68.1438 39.009Z" fill="black"/>
<path d="M98.2656 39.009C101.348 39.009 103.848 36.5241 103.848 33.4587C103.848 30.3934 101.348 27.9084 98.2656 27.9084C95.1827 27.9084 92.6836 30.3934 92.6836 33.4587C92.6836 36.5241 95.1827 39.009 98.2656 39.009Z" fill="black"/>
<path fill-rule="evenodd" clip-rule="evenodd" d="M74.0585 44.4899H78.6314C78.6314 47.0012 80.6789 49.0369 83.2044 49.0369C85.7301 49.0369 87.7775 47.0012 87.7775 44.4899H92.3505C92.3505 49.5125 88.2556 53.584 83.2044 53.584C78.1533 53.584 74.0585 49.5125 74.0585 44.4899Z" fill="black"/>
<path d="M87.4581 0.679688H78.286V11.9165H87.4581V0.679688Z" fill="black"/>
<path d="M95.1273 -0.000244141H70.6171V6.29808H95.1273V-0.000244141Z" fill="black"/>
</svg>
