<svg width="306" height="306" viewBox="0 0 306 306" fill="none" xmlns="http://www.w3.org/2000/svg">
<path fill-rule="evenodd" clip-rule="evenodd" d="M264.476 121.604C264.721 122.109 265.654 122.262 266.266 122.369C271.254 123.257 292.873 123.716 294.953 121.926C296.774 120.396 295.764 95.3956 293.989 94.3858C291.694 93.0241 266.664 92.764 264.919 94.1563C263.65 95.212 262.854 118.07 264.476 121.604ZM265.302 94.4776C266.694 93.3148 291.144 94.1869 293.347 95.2579C294.525 98.4097 295.29 118.208 294.142 121.023C292.276 122.308 269.402 122.262 265.409 121.023C263.848 117.275 264.43 95.212 265.302 94.4776ZM203.628 91.8001C203.021 92.838 202.202 93.7359 201.223 94.4347C200.245 95.1335 199.13 95.6174 197.951 95.8546C197.915 95.8453 197.877 95.8444 197.841 95.852C197.804 95.8596 197.77 95.8755 197.741 95.8983C197.711 95.9212 197.687 95.9505 197.671 95.9841C197.654 96.0176 197.646 96.0544 197.646 96.0917C197.646 96.129 197.654 96.1659 197.671 96.1994C197.687 96.2329 197.711 96.2622 197.741 96.2851C197.77 96.308 197.804 96.3238 197.841 96.3314C197.877 96.339 197.915 96.3381 197.951 96.3289C200.644 97.0327 204.148 94.5847 204.148 91.8919C204.16 91.8229 204.144 91.7519 204.104 91.6945C204.064 91.6371 204.003 91.598 203.934 91.5859C203.865 91.5737 203.794 91.5894 203.736 91.6296C203.679 91.6698 203.64 91.7311 203.628 91.8001ZM191.128 78.1066V79.6366C191.128 79.8395 191.208 80.034 191.352 80.1775C191.495 80.321 191.69 80.4016 191.893 80.4016C192.094 80.3977 192.287 80.3158 192.429 80.1732C192.572 80.0306 192.654 79.8382 192.658 79.6366V78.1066C192.658 77.9037 192.577 77.7091 192.433 77.5656C192.29 77.4222 192.095 77.3416 191.893 77.3416C191.69 77.3416 191.495 77.4222 191.352 77.5656C191.208 77.7091 191.128 77.9037 191.128 78.1066ZM206.382 79.5601C206.382 79.763 206.462 79.9575 206.606 80.101C206.749 80.2445 206.944 80.3251 207.147 80.3251C207.35 80.3251 207.544 80.2445 207.688 80.101C207.831 79.9575 207.912 79.763 207.912 79.5601V77.6629C207.912 77.46 207.831 77.2654 207.688 77.1219C207.544 76.9785 207.35 76.8979 207.147 76.8979C206.944 76.8979 206.749 76.9785 206.606 77.1219C206.462 77.2654 206.382 77.46 206.382 77.6629C206.32 78.3208 206.382 79.0858 206.382 79.5601Z" fill="#14397F"/>
<path fill-rule="evenodd" clip-rule="evenodd" d="M295.091 190.24C294.991 190.07 294.848 189.927 294.678 189.827C293.362 189.185 286.202 189.506 284.718 189.567C284.978 149.435 263.833 124.404 233.141 117.229C227.511 115.913 227.496 115.821 227.343 115.913L226.302 113.052C229.24 112.96 231.642 110.696 234.335 111.155C236.37 111.491 237.395 113.297 239.399 114.062C242.796 115.347 248.839 113.373 250.69 110.145C251.639 108.462 250.797 106.718 251.394 105.555C252.465 104.621 255.51 103.122 256.382 102.036C258.172 99.8019 258.249 94.7988 257.438 92.0907C255.974 89.0262 253.98 86.2447 251.547 83.8746C248.901 81.3249 246.555 78.4811 244.555 75.3984C242.092 70.4871 242 63.6939 239.965 58.5684C237.722 53.9406 234.25 50.0185 229.928 47.2311C225.707 44.2496 220.618 42.7486 215.454 42.9624C210.635 43.2684 208.753 45.3186 206.504 46.0224C204.255 46.7262 203.781 46.0224 200.124 47.6289C198.672 48.5136 197.379 49.6359 196.299 50.949C195.84 51.4386 195.87 51.4692 195.09 51.4998C194.25 51.4366 193.406 51.4366 192.566 51.4998C191.133 51.8178 189.763 52.371 188.511 53.1369C179.989 58.2471 182.284 68.5287 179.071 76.0869C176.883 81.2277 170.794 86.1696 170.274 91.5399C170.089 94.0092 170.62 96.4793 171.804 98.6544C175.521 105.188 180.861 100.062 183.63 104.055C184.503 105.31 185.16 106.534 186.782 106.779C188.848 107.054 191.663 105.417 193.346 104.208C193.7 104.621 194.1 104.99 194.539 105.31C196.031 106.315 197.632 107.147 199.313 107.789L195.427 113.22C188.144 112.394 176.96 114.75 169.753 116.969C169.493 115.133 167.229 99.9702 165.515 99.2358C163.144 98.1954 138.251 101.087 136.736 102.724C135.619 103.918 137.623 126.638 139.796 130.035C140.117 130.555 141.219 130.57 141.831 130.586C138.251 133.034 134.793 135.512 133.554 136.415C132.59 133.079 127.525 115.439 125.659 112.547C125.123 111.705 124.634 111.721 122.17 112.547C120.766 105.541 118.989 98.6159 116.846 91.8C117.65 90.4791 118.292 89.0665 118.758 87.5925C119.329 85.2579 119.412 82.8309 119.003 80.4627C120.87 81.09 132.024 84.15 133.829 83.2626C134.314 82.9166 134.674 82.4228 134.854 81.855C136.828 77.5404 140.209 62.8065 140.469 58.14C140.576 57.5425 140.474 56.9263 140.178 56.3958C138.388 54.5292 114.306 47.5983 112.271 48.5163C111.032 49.0824 107.681 60.0831 107.329 61.3836C104.407 71.1909 105.891 69.0336 104.269 69.5997C102.403 70.2576 100.796 74.1897 100.138 76.0104C99.4805 77.8311 98.792 80.2791 99.5723 81.7173C99.2554 82.3023 99.1279 82.9711 99.2074 83.6316C99.2869 84.2921 99.5694 84.9116 100.016 85.4046C99.5294 85.947 99.2122 86.6199 99.1035 87.3403C98.9947 88.0608 99.0992 88.7973 99.404 89.4591C99.8477 90.8514 102.617 91.7694 103.994 92.1672C102.907 95.097 102.002 98.0913 101.286 101.133C100.065 105.853 99.09 110.633 98.3636 115.454C97.911 117.796 97.7619 120.188 97.9199 122.568L95.4107 123.701C95.3141 123.745 95.2325 123.816 95.1755 123.906C95.1185 123.995 95.0886 124.099 95.0894 124.205C95.0894 124.205 95.5637 142.749 101.668 158.156C109.043 176.807 121.176 183.049 139.643 176.072C139.809 177.536 140.17 178.972 140.714 180.341C140.989 180.831 141.923 180.923 142.55 180.984C147.982 181.162 153.419 180.993 158.829 180.479L163.419 209.549C162.18 213.129 148.119 253.919 148.318 257.713C148.318 258.111 148.471 258.417 149.129 258.723C153.183 260.605 191.602 265.623 193.055 261.431C193.422 260.406 194.31 253.873 194.478 252.634L216.097 250.247L236.706 251.609C236.928 253.672 237.296 255.717 237.808 257.729C237.991 258.188 238.206 258.432 238.741 258.386C240.776 258.188 251.624 256.229 254.622 255.663C266.128 253.49 265.868 253.307 265.531 252.175C264.72 249.497 257.193 228.613 254.255 218.867C258.553 219.325 262.886 219.325 267.184 218.867C267.23 219.032 267.318 219.184 267.438 219.307C267.558 219.43 267.708 219.52 267.872 219.57C270.672 220.595 295.688 219.173 297.738 217.122C299.589 215.485 296.483 192.566 295.091 190.24ZM112.302 49.1742C112.47 48.9141 112.409 48.807 113.755 49.0059C119.37 49.8015 137.73 55.7226 139.322 57.1149C139.628 60.6186 135.084 79.8507 133.293 82.1763C131.993 82.62 123.364 80.4168 122.033 80.0649C111.904 77.418 112.302 77.0049 109.992 76.4694C108.798 76.0563 108.676 76.041 108.706 75.8727C108.71 75.8349 108.728 75.7998 108.756 75.7743C108.785 75.7488 108.821 75.7348 108.859 75.735C110.236 75.735 113.924 75.6279 114.826 74.5569C115.026 74.3391 115.174 74.08 115.262 73.7981C115.349 73.5162 115.373 73.2184 115.333 72.9261C115.292 72.6337 115.187 72.354 115.025 72.107C114.864 71.8599 114.649 71.6516 114.398 71.4969C112.432 70.7091 110.376 70.1645 108.278 69.8751C107.651 69.7527 106.886 69.5385 106.121 69.4467C107.176 64.6731 110.665 51.714 112.302 49.1742ZM99.1592 122.063V119.692C99.2969 116.785 100.689 109.15 101.102 107.054C101.775 103.658 101.928 102.893 103.887 95.5179C103.887 95.319 105.065 92.0295 105.065 92.0295C105.086 91.9724 105.095 91.9115 105.09 91.8507C105.086 91.79 105.069 91.7308 105.04 91.6773C105.011 91.6237 104.971 91.5769 104.923 91.54C104.874 91.5032 104.818 91.4771 104.759 91.4634C104.591 91.4634 100.613 90.4842 100.169 89.2143C99.7253 87.9444 99.6335 86.4144 100.75 85.7412C100.791 85.7114 100.825 85.6723 100.848 85.6271C100.871 85.5819 100.883 85.5319 100.883 85.4811C100.883 85.4304 100.871 85.3804 100.848 85.3351C100.825 85.2899 100.791 85.2508 100.75 85.221C100.261 84.8196 99.9324 84.2563 99.8229 83.6332C99.7135 83.0102 99.8308 82.3685 100.154 81.8244C100.506 81.1053 98.6237 81.4572 100.857 76.3011C101.424 75.0312 103.336 71.1297 104.637 70.7013C105.788 70.589 106.95 70.7193 108.048 71.0838C109.966 71.3859 111.851 71.8674 113.679 72.522C113.795 72.5845 113.895 72.6729 113.972 72.7805C114.048 72.8881 114.099 73.0119 114.12 73.1422C114.14 73.2725 114.131 73.4058 114.091 73.5318C114.052 73.6578 113.984 73.773 113.893 73.8684C113.221 74.2494 112.484 74.5035 111.72 74.6181C106.901 75.5667 107.758 74.511 107.13 76.1481C105.289 76.0401 103.449 76.3705 101.76 77.112C101.102 77.2497 101.378 77.6781 101.852 77.6016C103.902 76.9299 106.094 76.8189 108.201 77.2803C109.424 77.5038 110.619 77.8577 111.766 78.336C112.807 78.7586 113.73 79.425 114.459 80.2791C114.589 80.6028 114.638 80.9535 114.601 81.3004C114.563 81.6473 114.441 81.9796 114.245 82.2681C113.878 82.8342 112.103 82.4517 111.43 82.2681C110.512 81.9927 109.548 81.7632 108.645 81.4725C107.375 81.0747 107.513 80.9676 107.115 80.9982C105.712 81.197 104.339 81.5723 103.03 82.1151C102.993 82.1194 102.957 82.132 102.926 82.1521C102.895 82.1722 102.868 82.1992 102.849 82.231C102.829 82.2628 102.818 82.2987 102.814 82.3358C102.811 82.3729 102.816 82.4103 102.829 82.4452C102.842 82.48 102.863 82.5114 102.89 82.5369C102.918 82.5624 102.95 82.5814 102.986 82.5923C103.022 82.6033 103.059 82.606 103.096 82.6002C103.133 82.5944 103.168 82.5802 103.198 82.5588C104.37 82.2284 105.568 81.9981 106.779 81.8703C107.467 81.8703 107.023 81.8703 108.752 82.5588C109.533 82.8495 110.282 83.079 111.108 83.3544C111.64 83.5366 112.188 83.6647 112.746 83.7369C113.725 84.6549 114.429 86.7969 113.113 87.1794C112.596 87.2686 112.064 87.2048 111.583 86.9958C108.079 85.8483 110.451 85.0221 102.846 86.5827C102.784 86.5904 102.727 86.6217 102.687 86.6701C102.648 86.7185 102.628 86.7803 102.632 86.8428C102.632 87.2406 102.892 86.9958 107.1 86.8428C107.609 86.7917 108.121 86.7917 108.63 86.8428C109.946 87.516 111.904 88.6635 113.419 88.2198C115.27 87.6231 115.209 85.5729 114.015 84.0735C113.587 83.5533 113.541 83.7063 113.908 83.6451C114.177 83.616 114.436 83.5316 114.671 83.3974C114.905 83.2631 115.109 83.0818 115.27 82.8648C115.632 82.365 115.835 81.7673 115.851 81.1502C115.868 80.533 115.697 79.9254 115.362 79.407L117.932 80.172C118.441 82.5418 118.399 84.9967 117.81 87.3477C117.646 87.9217 117.431 88.4798 117.167 89.0154C116.05 91.3716 115.637 91.4481 115.775 91.8918C117.901 98.8049 119.653 105.828 121.023 112.929C115.255 114.949 104.682 119.6 99.1592 122.063ZM220.228 228.383C226.776 228.659 240.852 229.163 247.309 228.965C246.865 230.892 246.59 232.116 246.513 232.392C243.438 232.392 223.563 228.949 220.228 228.383ZM249.788 227.603C245.687 228.567 192.459 226.486 187.899 224.543C188.373 221.116 192.841 201.853 193.744 197.921C197.759 199.15 201.937 199.769 206.137 199.757C207.667 200.552 210.191 201.929 211.706 202.649C211.538 203.949 211.125 207.024 212.043 207.942C212.961 208.86 234.09 216.617 252.618 218.79C251.871 221.787 250.925 224.731 249.788 227.603ZM193.254 190.776C192.55 190.562 191.898 190.202 191.342 189.72C190.944 189.292 191.082 187.991 191.342 187.379C191.484 187.082 191.736 186.851 192.045 186.737C192.419 186.574 192.817 186.476 193.224 186.446C193.345 186.443 193.463 186.403 193.561 186.332C193.659 186.26 193.733 186.16 193.773 186.045C193.813 185.931 193.817 185.806 193.785 185.689C193.752 185.572 193.684 185.468 193.591 185.39C192.696 184.636 192.072 183.61 191.816 182.468C191.816 181.626 192.137 180.754 193.484 179.989C195.014 180.112 199.604 183.906 201.73 181.718C203.857 179.53 201.348 174.405 203.719 173.976C206.091 173.548 207.284 180.678 207.697 181.458C209.074 184.136 212.777 186.048 214.888 188.251C213.613 192.812 212.592 197.44 211.828 202.113C208.768 200.476 206.504 199.053 206.274 199.053C203.077 198.946 194.493 198.059 192.26 195.779C191.862 195.472 191.59 195.031 191.495 194.538C191.399 194.045 191.486 193.535 191.739 193.101C191.902 192.814 192.122 192.562 192.385 192.362C192.648 192.163 192.949 192.018 193.269 191.939C193.401 191.906 193.517 191.831 193.6 191.724C193.682 191.618 193.726 191.486 193.724 191.351C193.723 191.216 193.675 191.086 193.59 190.981C193.504 190.877 193.386 190.804 193.254 190.776ZM210.298 139.827C207.456 139.555 204.601 139.442 201.746 139.49C201.378 139.49 201.072 139.674 200.965 140.026C200.705 141.005 196.375 172.829 196.161 174.389C195.243 159.089 194.295 142.979 193.591 131.167C198.915 139.658 199.374 140.5 200.216 139.903C203.053 137.57 205.736 135.056 208.248 132.376C208.707 134.074 209.442 136.843 210.298 139.827ZM224.298 134.456C223.257 132.926 222.232 131.396 221.85 130.83L226.792 118.391L224.298 134.456ZM227.863 116.892C233.65 118.085 239.292 119.896 244.693 122.293C244.463 123.012 241.51 132.039 237.976 142.81C236.354 142.611 227.067 141.479 224.206 141.173L227.863 116.892ZM221.605 132.529L224.022 136.17L223.257 141.066L220.886 140.76C221.238 137.44 221.483 134.288 221.605 132.529ZM263.848 148.67C263.829 150.662 263.635 152.649 263.267 154.607C258.019 153.26 212.241 141.999 207.59 144.646C205.265 145.993 197.615 177.388 196.88 180.219L196.329 179.943C198.747 162.945 201.96 140.653 201.96 140.592C207.177 139.995 257.438 145.687 263.848 148.67ZM237.15 180.662C233.723 180.433 220.121 179.76 217.26 181.657C216.816 181.963 216.633 182.024 215.057 187.685C213.022 185.528 209.61 183.493 208.462 181.091C207.942 180.035 207.101 172.324 203.536 172.921C198.732 173.732 204.867 183.631 197.768 180.571C198.227 178.628 205.754 146.222 207.85 145.029C212.287 142.504 260.681 154.821 266.801 156.55C266.449 160.283 261.951 180.203 261.125 183.845C253.201 182.322 245.196 181.26 237.15 180.662ZM213.588 73.6389C214.445 74.2203 214.414 75.6126 214.261 76.6224C213.19 83.4615 206.336 87.6078 201.577 81.0594C200.491 79.5294 199.65 74.664 200.384 73.593C200.874 72.9657 204.821 72.9351 205.617 72.9351C207.085 72.9504 212.823 73.1799 213.527 73.6389H213.588ZM195.366 74.7405C195.366 77.6169 194.402 82.3905 191.847 83.7675C187.731 85.9095 183.554 82.5129 183.447 78.0912C183.29 76.477 183.367 74.8486 183.676 73.2564L183.829 73.1799C183.585 72.7515 194.34 72.6138 195.304 73.5777C195.337 73.9646 195.337 74.3536 195.304 74.7405H195.366ZM200.69 108.049C203.337 108.814 207.606 108.446 209.656 106.35C209.699 106.305 209.723 106.245 209.723 106.182C209.723 106.119 209.699 106.059 209.656 106.014C209.304 105.585 209.656 106.412 205.678 107.008C201.7 107.605 199.298 107.008 195.274 104.392C193.424 102.693 192.039 100.549 191.25 98.1648C189.602 94.1293 188.571 89.8692 188.19 85.527C189.63 85.7628 191.108 85.521 192.397 84.8385C193.649 84.1064 194.619 82.9749 195.151 81.6255C194.635 83.2424 194.211 84.8872 193.881 86.5521C193.81 86.7653 193.799 86.9942 193.85 87.2132C193.902 87.4321 194.013 87.6324 194.172 87.7914C195.23 88.438 196.476 88.7077 197.706 88.5564C197.743 88.5657 197.78 88.5666 197.817 88.559C197.853 88.5514 197.888 88.5355 197.917 88.5127C197.947 88.4898 197.971 88.4605 197.987 88.4269C198.003 88.3934 198.012 88.3566 198.012 88.3193C198.012 88.282 198.003 88.2451 197.987 88.2116C197.971 88.1781 197.947 88.1488 197.917 88.1259C197.888 88.103 197.853 88.0872 197.817 88.0796C197.78 88.072 197.743 88.0729 197.706 88.0821C196.799 87.9811 195.923 87.6891 195.136 87.2253C194.784 86.9805 194.937 87.1335 195.044 86.6286C195.151 86.1237 197.14 78.8256 197.247 78.3666C197.722 78.3666 199.527 78.1218 199.527 77.6781C199.527 77.2344 198.089 77.112 197.553 77.1426C197.553 76.9437 197.645 76.7754 197.691 76.6224C197.716 76.5616 197.715 76.4935 197.689 76.4333C197.663 76.373 197.614 76.3255 197.553 76.3011C197.493 76.2768 197.425 76.2776 197.364 76.3034C197.304 76.3293 197.257 76.378 197.232 76.4388C196.697 77.4792 197.064 77.0967 196.345 77.2803C196.621 75.8657 196.621 74.411 196.345 72.9963C195.473 71.6499 190.225 71.9559 188.511 72.063C189.383 66.9375 192.78 64.413 194.861 60.3126C195.444 59.3609 196.22 58.5425 197.14 57.9105C197.599 57.7881 198.502 58.9356 199.053 59.211C199.604 59.4864 200.124 61.0011 200.583 61.5213C202.026 63.1646 203.689 64.601 205.525 65.79C207.055 66.8763 209.442 67.0446 210.482 68.4369C210.921 69.6209 211.134 70.8769 211.109 72.1395C209.136 72.0171 200.904 71.8947 199.925 73.3023C199.038 74.4345 199.42 79.6059 200.721 81.5949C203.995 86.5521 209.028 86.8581 212.961 82.3905C213.383 81.8632 213.743 81.288 214.032 80.6769C216.969 85.2669 219.279 88.0056 219.387 93.3912C219.509 100.215 217.581 111.522 224.971 112.945L226.241 116.448C220.121 131.84 220.442 130.876 220.442 131.029C220.442 131.182 220.152 135.619 219.616 140.699C216.678 140.393 213.94 140.133 211.507 139.934C211.323 139.307 209.044 131.198 209.09 131.029C209.319 130.264 208.172 128.765 207.284 127.434C203.956 122.616 200.323 118.016 196.406 113.664L200.69 108.049ZM195.304 114.077C195.564 114.475 206.58 126.592 207.927 131.045C205.452 133.788 202.777 136.345 199.925 138.695C198.9 137.348 196.131 132.911 193.499 128.765C193.025 120.763 192.703 115.194 192.627 114.031C193.484 113.97 194.448 114.016 195.243 114.077H195.304ZM140.668 129.377C138.924 126.317 136.506 106.427 137.073 103.367C137.073 103.091 137.073 103 138.358 102.648C143.835 101.225 163.052 99.5877 165.072 100.276C166.602 103.26 169.952 122.737 169.157 125.735C167.596 126.99 145.166 130.157 140.607 129.377H140.668ZM141.739 179.714C139.98 176.256 138.679 154.086 139.551 153.245C140.852 151.99 165.27 150.919 167.581 151.822C169.111 155.035 171.283 174.772 170.381 177.449C168.3 179.01 145.35 180.54 141.678 179.714H141.739ZM176.669 154.071C177.771 153.78 185.451 151.822 186.369 151.271C187.027 150.889 187.777 152.128 174.909 116.816C176.439 115.408 189.812 113.603 191.923 114.26C191.923 115.102 193.927 150.812 195.503 179.469C194.754 179.102 193.667 178.536 192.979 178.918C190.102 180.448 189.919 182.988 192.045 185.467C191.648 185.564 191.279 185.753 190.969 186.019C190.658 186.285 190.413 186.619 190.255 186.997C190.01 187.571 189.906 188.196 189.951 188.818C189.996 189.441 190.19 190.044 190.515 190.577C190.872 190.918 191.28 191.202 191.724 191.418C191.267 191.725 190.906 192.154 190.684 192.658C190.483 193.091 190.364 193.558 190.332 194.035L176.669 154.071ZM214.751 249.283L194.769 251.501C194.861 250.767 197.11 233.034 197.829 227.021C201.99 227.389 207.009 227.71 212.379 228.001C213.267 239.032 214.827 246.651 214.689 249.283H214.751ZM215.806 249.161C216.021 245.672 213.144 228.184 213.129 228.031L214.659 228.108C219.861 229.072 233.264 231.443 234.717 231.688C235.207 236.615 236.431 248.09 236.721 250.446C213.909 248.977 216.372 249.099 215.73 249.161H215.806ZM296.988 216.419C295.458 217.643 272.982 219.693 268.347 218.683C266.556 215.21 265.287 193.055 266.159 192.214C267.474 190.944 291.893 189.904 294.173 190.791C295.611 193.989 297.83 213.802 296.927 216.419H296.988Z" fill="#14397F"/>
<path fill-rule="evenodd" clip-rule="evenodd" d="M141.77 205.173C141.647 204.622 141.479 203.827 141.035 203.643C139.505 202.725 129.423 202.542 127.632 202.511C127.235 195.213 126.531 186.783 125.383 184.518C124.634 182.988 75.1841 182.835 73.4858 182.82C73.6082 174.588 73.6235 162.042 73.4858 153.75C75.6431 153.75 86.4143 153.75 87.8984 152.526C89.7956 150.996 88.5257 130.57 87.6689 126.516C87.5465 125.965 87.3629 125.169 86.9345 124.986C84.7007 123.655 59.6393 123.333 57.8645 124.756C56.9312 125.537 56.5793 135.099 56.5334 136.308C53.0297 136.308 31.3649 135.864 23.6231 136.048V123.548C25.6274 123.548 37.3931 123.869 38.9231 122.584C40.7744 121.054 40.1624 96.0535 38.4029 95.0437C36.6434 94.0339 25.658 93.7126 23.7608 93.6667C23.7608 91.4941 23.5925 86.0167 23.5772 85.879C30.6611 85.6189 49.3271 86.2156 57.023 86.2156C57.023 88.6177 56.8853 97.1704 57.8951 99.3583C58.1399 99.8785 59.0732 100.032 59.6852 100.139C64.5506 100.995 86.246 101.5 88.3727 99.6949C90.4994 97.8895 89.0153 75.016 87.776 72.5527C87.6939 72.3756 87.5674 72.2228 87.4088 72.109C85.0985 70.7473 60.0677 70.579 58.3388 71.8795C57.3443 72.721 57.0077 83.6758 56.9771 84.9916C49.1588 84.9916 30.7682 84.3949 23.4854 84.655C23.4854 81.7021 23.3324 78.7186 23.3324 75.781C25.505 75.781 38.6324 75.5821 40.2695 74.1439C41.9066 72.7057 40.2695 49.5262 38.9537 47.017C38.8719 46.8392 38.7386 46.69 38.5712 46.5886C36.2456 45.2881 11.2148 45.6859 9.50117 47.1241C8.20067 48.2563 7.97117 71.1298 9.71537 74.6641C9.83553 74.8615 10.0188 75.0124 10.2356 75.0925C11.9798 75.8269 20.1194 75.8422 22.0319 75.8422C22.0319 82.6813 22.3379 88.2352 22.3991 93.6973C20.8691 93.6973 10.4345 93.4678 9.27167 94.4011C8.10887 95.3344 6.70127 118.193 8.32307 121.941C8.55257 122.446 9.48587 122.63 10.0979 122.737C14.1527 123.322 18.2413 123.644 22.3379 123.701V146.283C20.8844 146.283 10.9241 146.1 9.80717 147.003C8.69027 147.905 7.22147 170.794 8.84327 174.543C9.07277 175.063 10.0061 175.231 10.6181 175.353C15.5753 176.302 37.1789 177.128 39.3056 175.353C41.4323 173.579 40.3307 150.644 39.1679 148.211C39.0851 148.03 38.959 147.873 38.8007 147.752C37.133 146.742 25.5356 146.406 23.5007 146.36V137.517C31.4261 137.318 52.2035 137.761 56.3957 137.777C56.3957 140.362 56.1509 150.108 57.2525 152.48C57.3525 152.685 57.5278 152.844 57.7421 152.924C59.7158 153.826 69.9821 154.01 72.0782 154.025C72.2771 162.348 72.2618 174.925 72.0782 183.095C51.515 182.988 30.1868 183.202 25.8875 184.074C25.4285 184.166 24.6788 184.319 24.6482 184.962C24.6482 184.962 23.822 198.181 23.4395 202.725C22.0778 202.725 13.1273 202.725 12.0869 203.643C11.0465 204.561 9.89897 227.481 11.582 231.183C11.8115 231.688 12.7448 231.856 13.3568 231.963C18.2375 232.82 39.9176 233.325 42.0443 231.52C44.171 229.714 42.6716 206.795 41.4476 204.378C41.509 204.231 41.5286 204.071 41.5043 203.914C41.48 203.758 41.4127 203.611 41.3099 203.49C39.5504 202.434 26.9891 202.343 24.9083 202.327C25.2755 197.737 26.0711 184.962 26.0711 184.962C31.3037 183.432 118.345 183.615 124.435 185.161C125.368 187.395 125.965 195.06 126.454 202.389C124.924 202.389 113.296 202.297 112.088 203.307C110.879 204.316 109.961 227.282 111.583 230.847C111.69 231.052 111.87 231.21 112.088 231.29C114.796 232.514 139.842 233.065 142.045 231.183C142.424 230.724 142.644 230.155 142.672 229.561C143.391 224.91 142.764 209.763 141.77 205.173ZM58.6601 72.0631C60.0218 70.9309 84.4406 71.7418 86.705 72.8434C87.2732 75.2582 87.6012 77.7233 87.6842 80.2027C77.8769 79.2082 64.6271 79.9732 57.8645 80.2027C57.8951 79.2847 58.1399 72.4303 58.6601 72.0172V72.0631ZM57.8492 81.0442C68.9876 81.3961 82.2068 80.8147 87.7301 80.8759C87.8984 83.584 88.4951 96.2677 87.5006 98.6086C86.3684 99.3889 77.4485 99.5266 76.0868 99.5419C72.7973 99.5419 61.9496 99.5419 58.7672 98.6239C57.6656 95.9464 57.7727 84.0583 57.8492 80.9983V81.0442ZM9.89897 47.2465C11.2607 46.0531 35.7254 46.2826 37.9592 47.2465C38.4612 48.9519 38.7792 50.7061 38.9078 52.4791C29.0243 52.1877 19.1335 52.6994 9.33287 54.0091C9.34817 53.4583 9.45527 47.6443 9.89897 47.2465ZM10.7099 73.792C9.47057 71.0227 9.30227 58.1401 9.33287 54.5293C10.6181 54.3763 38.4029 52.9993 38.969 52.9993C39.3056 56.0593 40.499 70.3342 39.428 73.0117C37.3778 74.4958 14.3513 74.7865 10.7099 73.792ZM9.65417 94.4929C11.0465 93.376 35.45 94.5847 37.6991 95.7169C38.1995 98 38.4762 100.326 38.5253 102.663C38.6783 102.663 16.8911 101.806 8.76677 102.066C8.81267 101.164 9.17987 94.8601 9.65417 94.4929ZM38.4947 174.053C36.8117 175.155 14.2442 175.017 9.77657 173.594C8.67497 170.855 9.01157 158.294 9.16457 155.096C9.31757 155.096 30.2327 156.718 38.9843 155.693C39.1373 158.493 39.5504 171.666 38.4947 174.038V174.053ZM38.1275 148.257C38.6256 150.546 38.9073 152.877 38.969 155.219C39.122 155.219 17.3807 154.362 9.19517 154.607C9.26336 152.147 9.52425 149.697 9.97547 147.278C10.0826 146.972 9.97547 146.911 11.3525 146.758C16.8299 146.146 36.1691 147.263 38.1275 148.242V148.257ZM9.33287 121.038C8.24657 118.3 8.58317 105.83 8.73617 102.556C8.91977 102.556 29.7737 104.178 38.5559 103.153C38.7089 105.968 39.1373 119.065 38.0663 121.513C36.0008 122.859 13.0202 122.217 9.33287 121.038ZM41.6465 212.303C41.8301 215.149 42.4115 227.802 41.417 230.204C39.7952 231.336 17.1359 231.566 12.6836 230.204C11.582 227.542 11.6891 215.562 11.7656 212.364C21.6341 212.747 30.5999 212.303 41.6465 212.303ZM40.6214 204.439C41.1874 206.849 41.5204 209.309 41.6159 211.783C31.8851 210.804 18.1763 211.584 11.7809 211.875C11.7809 210.911 12.0716 204.072 12.5765 203.658C13.9535 202.526 38.357 203.337 40.6214 204.439ZM58.1399 124.955C59.5475 123.777 83.9663 124.665 86.1848 125.736C86.7667 128.247 87.1049 130.809 87.1946 133.386C80.5544 133.034 64.0304 131.978 57.3596 132.804C57.4361 131.932 57.6962 125.368 58.1399 124.955ZM58.2929 151.47C57.176 148.793 57.2984 136.553 57.3902 133.355C59.5475 133.141 75.1535 134.12 82.4057 134.059C84.257 134.059 85.9247 133.982 87.2711 133.936C87.4394 136.66 88.0055 149.099 87.0263 151.455C85.022 152.878 62.0108 152.648 58.2929 151.47ZM112.348 203.658C113.725 202.526 138.128 203.337 140.408 204.439C140.969 206.855 141.297 209.319 141.387 211.798C131.748 210.819 117.795 211.599 111.567 211.798C111.583 210.987 111.843 204.117 112.348 203.704V203.658ZM141.204 230.204C139.536 231.336 116.877 231.566 112.47 230.204C111.353 227.557 111.46 215.531 111.552 212.349C121.849 212.747 129.576 212.349 141.418 212.349C141.601 215.164 142.183 227.863 141.204 230.25V230.204Z" fill="#14397F"/>
</svg>
